<svg width="157" height="120" viewBox="0 0 157 120" fill="none" xmlns="http://www.w3.org/2000/svg">
<g clip-path="url(#clip0_166_1354)">
<path d="M146.612 60C146.612 93.1371 119.749 120 86.6123 120C53.4752 120 98.6122 78.5 26.6122 60C26.6122 26.8629 -9.38776 22.5 86.6123 0C100.612 64.5 146.612 26.8629 146.612 60Z" fill="#EEFFEF"/>
<g opacity="0.4">
<path d="M67.349 46.6606L67.4699 41.7659L63.7347 41.3686C63.3771 39.5598 62.6736 37.8371 61.6627 36.2954L64.126 33.5659L60.7304 30.013L57.8182 32.3739C56.2925 31.3031 54.5688 30.5474 52.7477 30.1512L52.575 26.5867L47.6715 26.4485L47.3089 30.013C45.4096 30.3258 43.593 31.0191 41.968 32.0514L39.4759 29.8057L35.9191 33.1743L38.0371 35.7829C36.8691 37.3933 36.0533 39.2317 35.6428 41.1786L32.4947 41.3456L32.368 46.2402L35.5335 46.5742C35.8831 48.5709 36.6478 50.4718 37.7781 52.1541L35.7119 54.4575L39.0788 58.0105L41.5824 55.9835C43.2339 57.1341 45.1115 57.9193 47.0902 58.2869L47.2456 61.4655L52.1492 61.598L52.5002 58.235C54.4241 57.8416 56.2461 57.0555 57.8527 55.9259L60.3793 58.2005L63.9418 54.8376L61.6397 52.0275C62.6785 50.4581 63.391 48.6955 63.7347 46.8449L67.349 46.6606ZM49.9276 48.964C48.9498 48.964 47.9939 48.6738 47.1809 48.1303C46.3679 47.5868 45.7343 46.8143 45.3601 45.9104C44.9859 45.0065 44.888 44.012 45.0787 43.0525C45.2695 42.0929 45.7404 41.2115 46.4318 40.5198C47.1232 39.828 48.0041 39.3569 48.9631 39.166C49.9221 38.9752 50.9161 39.0731 51.8195 39.4475C52.7229 39.8219 53.495 40.4559 54.0382 41.2693C54.5815 42.0828 54.8714 43.0391 54.8714 44.0175C54.8669 45.3264 54.344 46.5801 53.4173 47.504C52.4907 48.4279 51.2358 48.9467 49.9276 48.9467V48.964Z" fill="#A6A6A6"/>
</g>
<g opacity="0.4">
<path d="M126.341 52.7474L126.428 49.1599L123.688 48.8719C123.429 47.5454 122.915 46.282 122.174 45.152L123.976 43.148L121.501 40.5452L119.372 42.2728C118.251 41.4905 116.988 40.9367 115.654 40.6431L115.527 38.0288L111.93 37.9309L111.665 40.5452C110.274 40.7759 108.943 41.283 107.752 42.0367L105.944 40.3782L103.32 42.8601L104.874 44.7719C104.017 45.9529 103.417 47.3006 103.113 48.728L100.811 48.8489L100.719 52.4364L103.021 52.6782C103.274 54.144 103.835 55.5395 104.667 56.7725L103.153 58.4482L105.616 61.051L107.452 59.5653C108.662 60.4005 110.035 60.9696 111.481 61.2353L111.596 63.5387L115.193 63.6366L115.452 61.1719C116.848 60.885 118.171 60.319 119.343 59.5078L121.19 61.1777L123.803 58.7073L122.134 56.6516C122.898 55.5037 123.421 54.2127 123.671 52.8568L126.341 52.7474ZM113.57 54.4231C112.854 54.4219 112.155 54.2085 111.561 53.8098C110.966 53.4111 110.503 52.8451 110.23 52.1831C109.957 51.5212 109.886 50.7931 110.026 50.0909C110.166 49.3886 110.512 48.7438 111.018 48.2378C111.525 47.7318 112.17 47.3874 112.872 47.2481C113.574 47.1088 114.301 47.1809 114.963 47.4552C115.624 47.7295 116.189 48.1938 116.586 48.7893C116.984 49.3848 117.196 50.0849 117.196 50.801C117.196 51.7596 116.816 52.6792 116.14 53.3581C115.463 54.0371 114.546 54.42 113.587 54.4231H113.57Z" fill="#A6A6A6"/>
</g>
<path d="M116.839 27.2547V23.4138L112.269 22.9589C112.036 20.893 111.493 18.874 110.658 16.9701L114.359 14.3097L112.442 10.9756L108.269 12.8701C107.03 11.2018 105.548 9.72864 103.872 8.49945L105.754 4.3361L102.422 2.41279L99.7458 6.13273C97.844 5.30433 95.828 4.76848 93.766 4.5434L93.3113 0H89.4725L89.0121 4.55492C86.9497 4.79792 84.9345 5.34513 83.0323 6.17879L80.3676 2.47612L77.0352 4.39369L78.9172 8.5743C77.2501 9.81441 75.776 11.2951 74.5432 12.968L70.3821 11.085L68.4483 14.4191L72.1777 17.0853C71.3494 18.9985 70.8214 21.0283 70.6123 23.1028L66.0656 23.5635V27.4044L70.6238 27.8651C70.8678 29.9203 71.4127 31.9285 72.241 33.825L68.5231 36.4854L70.4569 39.8196L74.6295 37.9366C75.8697 39.5987 77.3473 41.0694 79.0151 42.3015L77.1446 46.459L80.4712 48.3939L83.1359 44.6624C85.0394 45.4973 87.0603 46.0334 89.1272 46.2517L89.5877 50.8009H93.4265L93.8869 46.2402C95.9492 45.9965 97.9642 45.4493 99.8667 44.6163L102.531 48.319L105.858 46.4015L103.964 42.2266C105.634 40.9866 107.108 39.5037 108.339 37.8272L112.5 39.7102L114.416 36.376L110.704 33.7099C111.527 31.7995 112.063 29.7773 112.292 27.7096L116.839 27.2547ZM91.4524 34.2224C89.7083 34.2224 88.0033 33.7048 86.5532 32.7352C85.1031 31.7656 83.973 30.3875 83.3058 28.7751C82.6386 27.1628 82.4643 25.3887 82.805 23.6773C83.1457 21.9658 83.986 20.3939 85.2197 19.1604C86.4534 17.9268 88.025 17.0871 89.7357 16.7473C91.4465 16.4076 93.2195 16.5831 94.8305 17.2517C96.4416 17.9203 97.8182 19.0519 98.7864 20.5034C99.7546 21.955 100.271 23.6612 100.27 25.4062C100.267 27.7445 99.3364 29.986 97.6833 31.6388C96.0303 33.2917 93.7894 34.2208 91.4524 34.2224Z" fill="#7CC683"/>
<path d="M96.5919 30.5946L98.52 23.5405L93.3747 18.3464L86.3071 20.2064L84.3791 27.2605L89.5244 32.4546L96.5919 30.5946Z" fill="#7CC683"/>
<path d="M146.64 57.1294C146.548 59.8243 147.918 60.7802 147.953 62.2256C147.953 62.2256 141.714 64.909 131.32 64.5577C120.925 64.2065 114.888 61.1027 114.888 61.1027C115.02 59.6631 116.454 58.7993 116.546 56.1101C116.649 53.0006 114.583 52.7011 115.233 48.0022C115.723 44.5069 118.37 44.1671 119.02 37.2858C119.694 30.1741 122.474 27.3986 124.643 25.8495C128.816 22.8494 132.701 23.4656 132.701 23.4656C132.701 23.4656 136.442 22.8552 140.402 26.1375C142.439 27.8247 145.242 31.0494 145.432 38.1899C145.61 45.1 148.229 45.6183 148.476 49.1309C148.833 53.8643 146.744 54.0198 146.64 57.1294Z" fill="#263238"/>
<path d="M118.75 41.1209C119.711 39.1803 119.751 36.8308 119.659 34.6829C119.659 34.5793 119.515 34.5678 119.51 34.6829C119.418 36.7387 119.435 38.8636 118.549 40.7408C117.789 42.3705 116.419 43.5049 115.36 44.8754C114.345 46.1397 113.767 47.6998 113.714 49.3209C113.696 50.1616 113.822 50.9992 114.088 51.797C114.42 52.5818 114.815 53.3386 115.268 54.0601C116.459 56.3635 114.842 58.7647 113.541 60.521C113.541 60.521 113.541 60.5671 113.57 60.521C114.646 59.2024 115.809 57.734 115.97 55.9143C116.031 55.0417 115.818 54.1719 115.36 53.4267C114.839 52.613 114.463 51.7147 114.249 50.772C114.075 49.8163 114.101 48.8346 114.327 47.8896C114.553 46.9447 114.973 46.0573 115.561 45.2842C116.597 43.8849 117.944 42.739 118.75 41.1209Z" fill="#263238"/>
<path d="M149.535 48.958C149.242 46.9484 148.24 45.4166 147.233 43.7755C146.712 42.9839 146.287 42.1334 145.967 41.2418C145.649 40.2102 145.437 39.1491 145.334 38.0746C145.23 36.894 145.065 35.7197 144.839 34.5562C144.581 33.3981 144.227 32.2636 143.78 31.1645C143.78 31.1184 143.694 31.1645 143.717 31.2048C144.463 33.2966 144.911 35.4834 145.046 37.7003C145.131 39.6544 145.646 41.5656 146.554 43.2975C147.509 44.9502 148.689 46.4301 149.109 48.3822C149.553 50.461 149.622 53.0293 148.534 54.8777C147.63 56.3922 145.898 58.1312 146.721 60.1179C146.721 60.187 146.848 60.1179 146.83 60.0776C146.168 57.8145 148.154 56.2828 149.035 54.5265C149.84 52.8853 149.806 50.7432 149.535 48.958Z" fill="#263238"/>
<path d="M129.904 64.6154C118.537 73.541 105.921 78.4357 101.979 78.7869C96.9891 79.213 75.6597 68.4793 74.6526 67.8459C72.1663 66.222 82.6755 49.4707 85.4093 51.0946C89.5704 53.565 103.493 62.7382 104.977 62.5596C106.462 62.3811 115.337 60.4002 127.815 57.0028C136.419 54.6303 136.96 59.0758 129.904 64.6154Z" fill="#C95F50"/>
<path d="M77.9964 69.5848C75.8669 68.9457 66.3418 65.1393 63.9303 63.4867C61.5188 61.834 54.9175 56.5765 55.9937 54.6014C57.07 52.6263 59.1246 54.0256 59.1246 54.0256C59.1246 54.0256 56.6901 51.3652 57.9735 49.4764C59.257 47.5876 62.3649 49.8392 62.3649 49.8392C62.3649 49.8392 60.0627 46.9254 61.4555 45.1288C62.8483 43.3321 65.6166 46.1307 65.6166 46.1307C65.6166 46.1307 63.3893 43.5625 65.162 42.5663C67.2915 41.3685 70.8713 46.5972 73.6684 48.1923C74.3072 48.5608 87.0898 54.7454 87.0898 54.7454L77.9964 69.5848Z" fill="#C95F50"/>
<path d="M65.3634 45.8773C67.9994 49.6952 69.8181 50.9102 73.9964 52.6953C74.0828 52.7299 74.0483 52.8623 73.9562 52.8335C69.6857 51.4573 67.1936 50.2653 65.1562 45.9983C65.0699 45.791 65.2368 45.6988 65.3634 45.8773Z" fill="#263238"/>
<path d="M62.1461 49.5167C65.231 53.2424 67.1878 54.5726 71.4525 56.7724C71.5101 56.7724 71.4525 56.9106 71.4007 56.8818C67.0382 55.0736 64.5807 53.8298 61.985 49.701C61.8814 49.5167 62.008 49.3497 62.1461 49.5167Z" fill="#263238"/>
<path d="M59.3491 54.1178C62.6008 57.5038 64.6785 59.0586 69.0929 60.6594C69.115 60.6663 69.1335 60.6817 69.1443 60.7022C69.1551 60.7227 69.1573 60.7467 69.1504 60.7688C69.1436 60.791 69.1282 60.8095 69.1077 60.8203C69.0872 60.8311 69.0632 60.8333 69.0411 60.8264C64.385 59.6286 61.7721 57.7111 59.257 54.2272C59.0843 53.9854 59.1476 53.9048 59.3491 54.1178Z" fill="#263238"/>
<path d="M90.4682 55.6437C90.4682 55.6437 87.8898 50.4323 86.2553 48.3938C84.6208 46.3553 75.723 41 74.4569 42.8542C72.8223 45.2554 77.3345 49.3554 79.8323 51.0772C79.8323 51.0772 76.0511 56.6168 78.6813 60.2619C81.3115 63.907 90.4682 55.6437 90.4682 55.6437Z" fill="#C95F50"/>
<path d="M74.2266 43.6605C74.313 46.9198 77.7144 48.9698 79.982 50.8182C80.0176 50.8426 80.0467 50.8752 80.0669 50.9133C80.087 50.9515 80.0975 50.9939 80.0975 51.0371C80.0975 51.0802 80.087 51.1227 80.0669 51.1608C80.0467 51.1989 80.0176 51.2316 79.982 51.2559C78.5489 53.686 77.2424 57.5326 78.4798 60.2333C78.4843 60.2412 78.4873 60.25 78.4884 60.2591C78.4896 60.2681 78.4889 60.2773 78.4865 60.2861C78.4841 60.295 78.48 60.3032 78.4744 60.3105C78.4688 60.3177 78.4619 60.3238 78.4539 60.3283C78.446 60.3328 78.4372 60.3358 78.4282 60.3369C78.4191 60.3381 78.4099 60.3374 78.4011 60.335C78.3923 60.3326 78.384 60.3285 78.3768 60.3229C78.3695 60.3173 78.3635 60.3103 78.359 60.3024C76.6324 57.5786 77.6165 53.7032 79.3546 51.1407C76.9834 49.2807 73.6683 47.081 74.1748 43.6548C74.1978 43.6432 74.2266 43.6432 74.2266 43.6605Z" fill="#263238"/>
<path d="M89.1272 52.0273L80.9547 74.1512C80.9547 74.1512 98.6293 80.9347 103.596 80.2149C108.563 79.4951 123.665 70.6789 131.222 65.0068C138.779 59.3348 136.039 53.9334 129.064 55.7588C122.088 57.5842 104.972 61.8397 104.316 61.7015C103.659 61.5633 89.1272 52.0273 89.1272 52.0273Z" fill="#7CC683"/>
<path d="M88.2294 67.3563C89.133 64.8859 90.0136 62.4098 91.0035 59.9739C91.579 58.5862 92.1258 57.1984 92.7013 55.8164C92.7013 55.7645 92.8164 55.8164 92.7991 55.8509C91.9934 58.3673 91.1819 60.8895 90.261 63.3657C89.3402 65.8418 88.4481 68.3064 87.4985 70.7595C86.9575 72.153 86.3819 73.5293 85.7719 74.8941C85.7719 74.8941 85.7143 74.8941 85.7258 74.8941C86.428 72.3316 87.3258 69.8439 88.2294 67.3563Z" fill="#263238"/>
<path opacity="0.1" d="M131.251 65.0069C125.495 69.297 115.487 75.3721 108.805 78.401L130.859 55.4364C136.465 54.8951 138.105 59.8819 131.251 65.0069Z" fill="black"/>
<path d="M153.483 102.155L113.196 102.621L116.805 88.1327C115.423 86.5506 114.509 84.6141 114.166 82.541C113.824 80.4678 114.066 78.3401 114.865 76.397C115.913 73.6272 124.851 60.6247 128.499 56.2886C132.039 52.0792 138.376 53.8125 140.701 56.254C148.925 64.9032 150.364 79.8003 153.483 102.155Z" fill="#7CC683"/>
<path d="M121.254 87.246C123.113 86.977 125.005 87.0394 126.842 87.4302C128.724 87.77 132.994 89.1174 134.071 89.4457C134.071 89.4457 134.071 89.509 134.071 89.5033C132.709 89.3331 131.363 89.0617 130.042 88.6913C128.171 88.2249 126.301 87.8333 124.425 87.5396C123.38 87.3961 122.325 87.3441 121.271 87.3842C121.207 87.3957 121.161 87.2575 121.254 87.246Z" fill="#263238"/>
<path d="M118.324 89.1693C120.902 88.3583 123.633 88.1611 126.301 88.5934C126.336 88.5934 126.341 88.6683 126.301 88.674C124.971 88.7144 123.642 88.7547 122.318 88.8583C120.995 88.962 119.665 89.129 118.336 89.2672C118.284 89.2672 118.284 89.1808 118.324 89.1693Z" fill="#263238"/>
<path d="M143.642 61.6843C152.413 75.6485 159.463 96.4825 155.509 100.629C151.106 105.235 138.963 86.2728 139.256 85.3688C139.481 84.6835 138.963 74.6408 137.299 63.193C135.636 51.7453 141.472 58.2293 143.642 61.6843Z" fill="#EB9481"/>
<path d="M139.51 88.0118C139.406 86.3648 137.063 68.6634 136.373 62.1621C135.682 55.6609 138.779 54.2213 143.717 61.189C148.655 68.1567 156.258 83.1113 156.954 93.5629C157.616 103.64 152.637 103.421 147.061 97.5362C144.27 94.5884 141.743 91.4013 139.51 88.0118Z" fill="#7CC683"/>
<path d="M139.579 89.8199C139.458 87.8505 139.285 85.8639 139.101 83.883C138.917 81.9021 138.692 79.8982 138.491 77.9057L137.766 71.9055L137.357 68.8938C137.207 67.8861 137.069 66.8783 136.902 65.8706C136.96 66.8553 137.046 67.8458 137.115 68.8304L137.38 71.8133L138.002 77.8078C138.243 79.8118 138.462 81.8042 138.727 83.8081C138.992 85.8121 139.262 87.7987 139.579 89.8199Z" fill="#263238"/>
<path d="M137.38 70.5292C137.268 69.9902 137.114 69.4607 136.92 68.9456C136.822 68.6922 136.724 68.4331 136.615 68.1855C136.505 67.9379 136.396 67.6788 136.281 67.4312C136.355 67.9775 136.494 68.513 136.695 69.0262C136.879 69.5461 137.109 70.049 137.38 70.5292Z" fill="#263238"/>
<path d="M155.895 99.8626C153.144 103.894 146.353 104.896 127.4 108.829C124.776 109.37 115.372 91.5878 118.146 90.8622C121.633 89.9466 135.377 87.1595 136.407 87.0847C145.098 86.4455 157.765 97.1216 155.895 99.8626Z" fill="#C95F50"/>
<path d="M124.615 90.4305C124.615 90.4305 117.305 90.1022 112.528 90.108C109.858 90.108 105.277 90.5284 103.32 91.4324C100.385 92.7799 88.9718 100.295 90.7387 103.105C92.333 105.644 101.317 97.9222 101.317 97.9222C101.317 97.9222 91.5618 104.89 94.0481 107.596C96.5344 110.303 105.518 100.266 105.518 100.266C105.518 100.266 95.6595 107.654 98.6581 110.055C100.926 111.858 109.593 103.208 109.593 103.208C109.593 103.208 101.162 109.618 103.412 111.575C105.904 113.735 114.399 106.255 114.399 106.255C120.96 110.257 125.725 109.479 129.046 108.523C129.841 108.282 124.615 90.4305 124.615 90.4305Z" fill="#C95F50"/>
<path d="M104.529 95.3135C103.377 96.0909 102.157 96.874 101.075 97.7493C99.9933 98.6246 98.8998 99.546 97.8869 100.525C96.5347 101.777 95.3298 103.18 94.2955 104.706C96.3272 102.131 100.224 98.9471 101.329 98.043C102.434 97.1389 103.481 96.2349 104.58 95.3538C104.592 95.3308 104.557 95.2962 104.529 95.3135Z" fill="#263238"/>
<path d="M107.775 99.2408C106.318 100.295 104.834 101.291 103.418 102.414C102.002 103.537 100.782 104.717 99.4581 105.926C99.3545 106.018 99.4581 106.041 99.5444 105.955C100.914 104.803 102.272 103.836 103.659 102.696C105.047 101.556 106.382 100.358 107.803 99.2408C107.826 99.2523 107.798 99.2235 107.775 99.2408Z" fill="#263238"/>
<path d="M111.164 102.109C108.891 103.677 106.785 105.475 104.88 107.475C104.782 107.568 104.88 107.591 104.995 107.475C107.055 105.65 108.655 104.205 111.216 102.166C111.257 102.155 111.216 102.074 111.164 102.109Z" fill="#263238"/>
<path d="M120.258 89.9696L137.104 108.328C137.104 108.328 153.679 104.222 156.096 99.8742C157.696 96.9949 145.109 85.6969 135.561 87.1422L120.258 89.9696Z" fill="#7CC683"/>
<path d="M147.014 90.033C143.68 87.6985 139.603 86.6736 135.561 87.1538C135.51 87.1538 135.51 87.2402 135.561 87.2402C139.734 87.0732 145.391 89.198 146.98 90.1194C147.02 90.1309 147.06 90.0618 147.014 90.033Z" fill="#263238"/>
<path d="M141.616 105.172C139.889 103.053 138.019 101.032 136.154 99.0162C134.289 97.0008 132.436 94.9853 130.525 93.0044C129.443 91.8873 128.367 90.7644 127.251 89.6876C127.216 89.6588 127.164 89.6875 127.193 89.7336C128.92 91.8527 130.779 93.8855 132.626 95.9124C134.474 97.9394 136.35 99.9433 138.238 101.947C139.302 103.099 140.39 104.182 141.512 105.258C141.564 105.316 141.668 105.235 141.616 105.172Z" fill="#263238"/>
<path d="M120.223 89.7279C121.243 89.4106 122.284 89.1624 123.337 88.985C124.384 88.7777 125.432 88.5877 126.485 88.4092C128.58 88.0522 132.977 87.0502 136.845 87.0156C136.891 87.0156 136.672 87.2287 136.632 87.2229C134.784 87.1481 121.593 89.9236 120.517 90.01C120.557 90.0849 120.597 90.154 120.632 90.2346C120.667 90.3152 120.603 90.3555 120.546 90.3152C120.42 90.2217 120.299 90.1218 120.183 90.0158C120.155 90.0006 120.133 89.9774 120.119 89.9492C120.105 89.921 120.1 89.8891 120.104 89.8579C120.108 89.8267 120.122 89.7975 120.143 89.7743C120.165 89.751 120.193 89.7349 120.223 89.7279Z" fill="#263238"/>
<path d="M137.852 55.9259C137.72 56.7609 134.192 62.3753 130.428 62.4732C129.202 62.5078 128.741 55.8223 128.741 55.8223L126.543 48.5321L135.4 41.9502C135.4 41.9502 137.921 55.5689 137.852 55.9259Z" fill="#C95F50"/>
<path d="M136.701 48.8717C135.996 50.5326 134.891 51.9932 133.485 53.1235C132.08 54.2538 130.416 55.0186 128.643 55.3499L126.589 48.5377L135.446 41.9558C135.446 41.9558 136.056 45.3994 136.701 48.8717Z" fill="#263238"/>
<path d="M117.737 37.3779C115.383 49.6261 122.451 52.4189 125.087 52.9257C127.487 53.3864 135.699 54.6532 139.308 42.7045C142.917 30.7557 137.967 25.8035 132.54 24.4675C127.112 23.1315 120.091 25.1355 117.737 37.3779Z" fill="#C95F50"/>
<path d="M120.172 34.9421C120.46 34.946 120.748 34.9326 121.035 34.9018C121.339 34.9305 121.645 34.8576 121.904 34.6945C121.974 34.6263 122.02 34.5374 122.036 34.441C122.051 34.3445 122.035 34.2457 121.99 34.1589C121.871 34.0034 121.713 33.882 121.532 33.8072C121.352 33.7324 121.154 33.7067 120.96 33.7328C120.558 33.7249 120.167 33.8688 119.866 34.1359C119.802 34.2002 119.757 34.2818 119.738 34.3708C119.719 34.4599 119.726 34.5527 119.758 34.6379C119.79 34.7231 119.846 34.7972 119.92 34.8512C119.993 34.9052 120.081 34.9367 120.172 34.9421Z" fill="#263238"/>
<path d="M128.908 35.8866C128.634 35.8014 128.365 35.7014 128.102 35.5872C127.801 35.5235 127.53 35.3614 127.331 35.1265C127.285 35.0406 127.267 34.9419 127.282 34.8452C127.296 34.7486 127.342 34.6593 127.412 34.591C127.572 34.4781 127.759 34.4097 127.954 34.3925C128.149 34.3753 128.345 34.41 128.523 34.4931C128.907 34.6098 129.235 34.864 129.443 35.2071C129.487 35.2881 129.505 35.3799 129.497 35.4714C129.489 35.5628 129.455 35.6499 129.398 35.722C129.341 35.7941 129.264 35.848 129.178 35.8773C129.091 35.9065 128.997 35.9098 128.908 35.8866Z" fill="#263238"/>
<path d="M126.18 39.2263C126.18 39.2263 126.238 39.2781 126.232 39.3127C126.065 40.1419 126.013 41.1266 126.721 41.5355C126.721 41.5355 126.721 41.5873 126.721 41.5758C125.806 41.3109 125.887 40.0037 126.18 39.2263Z" fill="#263238"/>
<path d="M127.078 38.4951C128.436 38.6218 128.085 41.3397 126.825 41.2246C125.564 41.1094 125.933 38.3914 127.078 38.4951Z" fill="#263238"/>
<path d="M127.59 38.7081C127.809 38.8924 128.005 39.1976 128.287 39.284C128.569 39.3703 128.902 39.1054 129.15 38.8636C129.179 38.8348 129.196 38.8636 129.196 38.8981C129.133 39.4222 128.868 39.9289 128.298 39.9347C127.728 39.9404 127.475 39.4337 127.412 38.8924C127.4 38.7657 127.492 38.6505 127.59 38.7081Z" fill="#263238"/>
<path d="M121.3 38.2764C121.3 38.2418 121.225 38.2764 121.225 38.3397C121.133 39.1862 120.885 40.1363 120.074 40.3091C120.045 40.3091 120.045 40.3609 120.074 40.3609C121.035 40.3782 121.346 39.0883 121.3 38.2764Z" fill="#263238"/>
<path d="M120.666 37.2915C119.331 37.0036 118.848 39.6985 120.091 39.9692C121.334 40.2398 121.789 37.5334 120.666 37.2915Z" fill="#263238"/>
<path d="M120.074 37.3722C119.838 37.4759 119.579 37.6947 119.32 37.6659C119.061 37.6371 118.859 37.3031 118.744 36.9922C118.744 36.9576 118.704 36.9922 118.692 36.9922C118.589 37.5104 118.664 38.0747 119.141 38.2648C119.619 38.4548 119.987 38.0517 120.2 37.5565C120.218 37.4989 120.172 37.3262 120.074 37.3722Z" fill="#263238"/>
<path d="M125.455 45.8774C125.242 46.0674 125.029 46.3323 124.718 46.3438C124.405 46.3227 124.099 46.2364 123.82 46.0905C123.792 46.0905 123.763 46.0905 123.78 46.1308C123.894 46.3027 124.051 46.4409 124.237 46.5311C124.422 46.6212 124.628 46.66 124.833 46.6433C125.008 46.6057 125.168 46.5173 125.293 46.3893C125.418 46.2612 125.502 46.0992 125.536 45.9235C125.542 45.9128 125.543 45.9001 125.54 45.8882C125.537 45.8763 125.529 45.8662 125.518 45.8601C125.508 45.854 125.495 45.8524 125.483 45.8556C125.471 45.8589 125.461 45.8667 125.455 45.8774Z" fill="#263238"/>
<path d="M122.036 42.2841C122.036 42.2841 121.731 43.5279 121.674 44.121C121.674 44.1786 121.806 44.2189 122.007 44.2535C122.512 44.4044 123.048 44.4122 123.556 44.276C124.064 44.1397 124.524 43.8648 124.885 43.4818C124.893 43.4703 124.897 43.4564 124.896 43.4425C124.895 43.4285 124.889 43.4153 124.88 43.4048C124.871 43.3943 124.859 43.3871 124.845 43.3844C124.831 43.3816 124.817 43.3835 124.805 43.3897C123.992 43.8296 123.06 43.9971 122.146 43.8677C122.146 43.6949 122.721 41.7543 122.646 41.737C122.18 41.7286 121.716 41.7848 121.265 41.904C121.841 39.2955 122.79 36.7963 123.308 34.1935C123.31 34.1749 123.305 34.1563 123.295 34.1406C123.284 34.1249 123.27 34.1129 123.252 34.1065C123.235 34.1 123.215 34.0993 123.198 34.1046C123.18 34.11 123.164 34.1209 123.153 34.1359C121.956 36.6811 121.248 39.6698 120.603 42.3474C120.517 42.6814 121.789 42.3589 122.036 42.2841Z" fill="#263238"/>
<path d="M122.151 44.2651C122.467 44.7675 122.907 45.18 123.429 45.4628C123.717 45.6067 124.043 45.657 124.361 45.6068C125.058 45.4916 125.133 44.8697 125.058 44.3227C125.016 44.034 124.939 43.7516 124.828 43.4819C124.042 44.0228 123.104 44.2973 122.151 44.2651Z" fill="#263238"/>
<path d="M123.429 45.4628C123.717 45.6067 124.043 45.657 124.361 45.6068C125.058 45.4916 125.133 44.8697 125.058 44.3227C124.698 44.3021 124.341 44.4034 124.046 44.6103C123.75 44.8171 123.533 45.1174 123.429 45.4628Z" fill="#FF9CBD"/>
<path d="M138.238 42.3878C135.36 41.9098 136.194 37.424 136.194 37.424C136.194 37.424 133.017 36.5603 133.697 31.3086C133.697 31.3086 131.596 34.1878 127.107 34.0553C126.151 34.0553 129.679 32.1723 129.679 32.1723C129.679 32.1723 125.369 34.8846 118.687 32.3912C118.215 32.2126 120.54 25.1067 126.393 23.575C132.246 22.0432 136.879 24.3178 139.63 28.3257C139.63 28.3257 142.681 30.8537 142.462 34.6945C142.243 38.5354 139.343 42.5721 138.238 42.3878Z" fill="#263238"/>
<path d="M136.787 42.9578C136.787 42.9578 139.895 39.3645 141.547 40.5105C143.199 41.6564 140.586 47.0578 138.445 47.6164C138.175 47.7066 137.89 47.741 137.607 47.7178C137.323 47.6945 137.048 47.6139 136.797 47.481C136.545 47.348 136.324 47.1653 136.145 46.9441C135.966 46.7229 135.834 46.4678 135.757 46.194L136.787 42.9578Z" fill="#C95F50"/>
<path d="M140.758 42.0424C140.793 42.0424 140.793 42.0885 140.758 42.1C139.256 42.5319 138.353 43.793 137.679 45.1289C137.777 44.9919 137.904 44.8781 138.051 44.7955C138.198 44.7129 138.361 44.6635 138.529 44.6509C138.697 44.6383 138.866 44.6627 139.023 44.7224C139.181 44.7821 139.323 44.8757 139.44 44.9965C139.475 45.0253 139.44 45.0771 139.394 45.0656C139.148 44.9596 138.875 44.932 138.612 44.9866C138.35 45.0412 138.111 45.1753 137.927 45.3708C137.623 45.7009 137.355 46.0618 137.127 46.4476C137.046 46.5685 136.822 46.4476 136.885 46.3324V46.2979C137.063 44.4552 138.761 42.0194 140.758 42.0424Z" fill="#263238"/>
<path d="M29.9565 53.922C36.9723 68.0993 45.6744 81.6834 48.8916 83.1979C53.8757 85.5416 76.5173 83.601 83.4237 81.6604C85.674 81.0212 82.5604 65.3871 80.2525 64.4254C77.9446 63.4638 54.1405 67.1434 52.6268 66.8037C51.8326 66.6251 42.5147 57.0143 35.7291 50.801C29.4328 44.9849 27.8271 49.6205 29.9565 53.922Z" fill="#EB9481"/>
<path d="M75.6482 83.8139L71.9763 63.9876C71.9763 63.9876 54.8312 65.7497 52.7074 65.79C51.8096 65.79 40.2183 53.9967 34.8659 49.056C31.3609 45.8082 26.4861 46.0155 29.6343 54.6935C31.476 59.7782 43.6946 82.4664 48.7996 84.4416C52.8858 86.0251 75.6482 83.8139 75.6482 83.8139Z" fill="#7CC683"/>
<path d="M71.6943 83.1922C71.2051 81.8217 70.1691 75.8905 69.9274 74.4106C69.6857 72.9306 68.9145 66.9649 68.667 65.4447C68.667 65.3583 68.7706 65.318 68.7878 65.3986C69.0526 66.9016 70.29 72.8155 70.549 74.2954C70.808 75.7753 71.7691 81.7007 71.7691 83.1806C71.7675 83.1887 71.7634 83.1962 71.7575 83.2019C71.7515 83.2076 71.7439 83.2113 71.7357 83.2126C71.7276 83.2139 71.7192 83.2126 71.7118 83.2089C71.7044 83.2053 71.6983 83.1994 71.6943 83.1922Z" fill="#263238"/>
<path opacity="0.1" d="M64.5289 84.7181C58.4743 85.0866 51.1017 85.3285 48.8226 84.4474C43.7176 82.4723 31.499 59.7841 29.6573 54.7051C27.6314 49.1252 28.9206 47.0406 31.0328 47.1385L64.5289 84.7181Z" fill="#020100"/>
<path d="M1.45055 102.823C1.55991 102.944 46.7278 103.197 47.1537 102.725C47.3091 102.552 47.2285 98.9011 47.2285 98.9011C47.2285 98.9011 50.2156 95.256 48.6444 89.3939C45.3178 76.996 37.2142 50.9622 34.7567 48.3824C32.6042 46.1193 26.7913 45.0195 23.1712 47.104C15.5857 51.4804 3.48794 83.4225 0.472139 90.9833C-1.01849 94.709 1.72681 97.1103 2.15271 98.8666C2.12393 98.8666 1.2894 102.667 1.45055 102.823Z" fill="#7CC683"/>
<path d="M46.2442 99.4655C44.8341 99.3964 43.4183 99.4655 42.0082 99.4655C40.5982 99.4655 39.309 99.3734 37.9795 99.3676C35.2169 99.3676 32.4486 99.3676 29.686 99.3676C24.1552 99.3388 18.6243 99.2697 13.0934 99.2122C11.551 99.2122 10.0028 99.1776 8.46033 99.1546C6.9179 99.1315 5.2431 99.2122 3.63161 99.1949C3.55103 99.1949 3.54528 99.3158 3.63161 99.3158C5.04167 99.3907 6.45173 99.5519 7.86179 99.6037L11.8905 99.7419C14.6531 99.8283 17.4156 99.8801 20.184 99.9204C25.7091 100.007 31.2457 100.036 36.7709 99.9723C38.3191 99.9723 39.8615 99.8859 41.4097 99.811C42.9579 99.7362 44.6327 99.811 46.2384 99.6613C46.2644 99.6621 46.2895 99.6525 46.3084 99.6347C46.3273 99.6168 46.3384 99.5923 46.3391 99.5663C46.3399 99.5403 46.3303 99.5151 46.3125 99.4962C46.2947 99.4773 46.2701 99.4663 46.2442 99.4655Z" fill="#263238"/>
<path d="M32.7191 57.3021C29.8414 57.3884 25.4098 51.7221 24.2357 47.9216C24.1609 47.6567 25.0242 45.2612 25.9623 42.2956C26.5091 40.4932 27.0789 38.472 27.4587 36.5947L38.6586 41.8637C37.5064 44.0768 36.6289 46.4225 36.0457 48.8487C35.999 49.1091 35.974 49.373 35.9709 49.6376C35.9734 49.6817 35.9734 49.7259 35.9709 49.77C35.873 51.2845 35.522 57.2157 32.7191 57.3021Z" fill="#EB9481"/>
<path d="M35.9421 49.6377C35.9421 49.6723 35.9421 49.7184 35.9421 49.7644C35.5314 49.7397 35.1234 49.6819 34.722 49.5917C27.9307 48.0427 28.0285 39.3647 28.2012 36.9519L30.9983 38.2648L38.6414 41.8696C37.4894 44.0822 36.6138 46.4281 36.0342 48.8546C35.9788 49.1121 35.948 49.3744 35.9421 49.6377Z" fill="#263238"/>
<path d="M27.1192 23.9206C25.6343 28.13 27.3437 40.5394 30.2559 43.4186C34.4745 47.5935 41.6514 48.2845 45.26 43.148C48.7593 38.1727 46.2442 22.0318 42.9579 19.3944C38.1407 15.5017 29.312 17.7072 27.1192 23.9206Z" fill="#EB9481"/>
<path d="M38.8889 32.4431C38.8889 32.4143 38.8313 32.4949 38.8371 32.5295C38.9694 33.3587 38.9925 34.3376 38.2615 34.7177C38.2615 34.7177 38.2615 34.7695 38.2615 34.7638C39.1881 34.5104 39.1536 33.2147 38.8889 32.4431Z" fill="#263238"/>
<path d="M38.0255 31.6715C36.6673 31.7464 36.9205 34.4586 38.1809 34.3895C39.4414 34.3204 39.1651 31.6082 38.0255 31.6715Z" fill="#263238"/>
<path d="M43.637 31.8441C43.637 31.8096 43.7061 31.8787 43.7118 31.9132C43.7636 32.754 43.9651 33.7099 44.7478 33.9172C44.7478 33.9172 44.7478 33.969 44.7478 33.9632C43.8097 33.9229 43.5564 32.6503 43.637 31.8441Z" fill="#263238"/>
<path d="M44.3046 30.8941C45.6514 30.6637 46.0312 33.3644 44.7651 33.5775C43.4989 33.7905 43.1823 31.0841 44.3046 30.8941Z" fill="#263238"/>
<path d="M36.4428 30.3756C36.8161 30.371 37.1888 30.346 37.5593 30.3008C37.9563 30.3285 38.3512 30.2232 38.6816 30.0013C38.7726 29.9123 38.8316 29.7957 38.8493 29.6696C38.867 29.5436 38.8424 29.4152 38.7795 29.3045C38.6207 29.1066 38.4127 28.9539 38.1763 28.862C37.9399 28.77 37.6834 28.7419 37.4327 28.7805C36.9075 28.7904 36.4048 28.9957 36.0227 29.3564C35.9475 29.4427 35.8979 29.5483 35.8793 29.6613C35.8608 29.7742 35.8741 29.8901 35.9177 29.996C35.9614 30.1018 36.0336 30.1934 36.1263 30.2605C36.2191 30.3275 36.3287 30.3674 36.4428 30.3756Z" fill="#263238"/>
<path d="M45.1391 27.9975C44.7593 27.9687 44.4082 27.8823 44.0341 27.8189C43.6382 27.8074 43.2566 27.668 42.9463 27.4216C42.8638 27.3248 42.8157 27.2033 42.8094 27.0762C42.8032 26.9491 42.8392 26.8235 42.9118 26.7191C43.0865 26.533 43.3079 26.3974 43.553 26.3265C43.798 26.2556 44.0576 26.252 44.3046 26.316C44.8224 26.3668 45.3027 26.6091 45.6513 26.9955C45.726 27.0882 45.7723 27.2005 45.7845 27.3189C45.7967 27.4373 45.7744 27.5568 45.7202 27.6628C45.666 27.7687 45.5823 27.8568 45.4792 27.9162C45.376 27.9756 45.2579 28.0038 45.1391 27.9975Z" fill="#263238"/>
<path d="M38.486 40.0268C38.7104 40.2053 38.9349 40.4587 39.2399 40.4587C39.5531 40.4221 39.855 40.3201 40.1262 40.1592C40.1318 40.1551 40.1386 40.1531 40.1455 40.1536C40.1524 40.154 40.1589 40.157 40.1638 40.1619C40.1687 40.1668 40.1717 40.1733 40.1722 40.1802C40.1727 40.1871 40.1707 40.194 40.1665 40.1995C40.0632 40.3787 39.9135 40.5268 39.7333 40.6281C39.553 40.7294 39.3488 40.7803 39.1421 40.7754C38.9666 40.7453 38.8037 40.6643 38.6738 40.5425C38.5439 40.4207 38.4525 40.2634 38.4111 40.0901C38.3939 40.0268 38.4572 40.0038 38.486 40.0268Z" fill="#263238"/>
<path d="M39.1364 37.4297C39.3806 37.7418 39.6866 38 40.0352 38.1883C40.3838 38.3766 40.7675 38.4908 41.1622 38.5238C41.508 38.5574 41.8568 38.5419 42.1982 38.4778L42.3939 38.4375L42.5723 38.3914C42.6168 38.3785 42.6558 38.3511 42.6829 38.3136C42.71 38.276 42.7238 38.2304 42.7219 38.1841C42.7269 38.1555 42.7269 38.1263 42.7219 38.0977V38.0229C42.6759 37.3779 42.5263 36.399 42.5263 36.399C42.768 36.4969 44.0284 36.923 43.9766 36.589C43.545 33.8077 43.0673 30.7096 42.0543 28.032C42.0497 28.0121 42.0375 27.9949 42.0202 27.9841C42.0029 27.9733 41.9821 27.9698 41.9622 27.9744C41.9424 27.979 41.9252 27.9912 41.9144 28.0085C41.9036 28.0258 41.9001 28.0467 41.9047 28.0665C42.2097 30.7615 42.9867 33.3758 43.3378 36.0765C42.8913 35.9165 42.4242 35.8215 41.9507 35.7943C41.8586 35.8289 42.2845 37.6773 42.2788 37.971V37.9998C41.2025 38.2417 40.3508 37.9998 39.2285 37.3606C39.1421 37.3031 39.0788 37.3664 39.1364 37.4297Z" fill="#263238"/>
<path d="M27.7178 34.8327C29.6688 34.729 29.6976 30.2259 29.6976 30.2259C29.6976 30.2259 34.6472 31.2739 34.3019 24.7496C34.3019 24.7496 40.1435 26.2641 43.5507 24.1105C46.4687 22.2678 47.7348 17.0218 45.3061 14.1196C43.9363 12.4784 40.3277 11.1367 35.4069 16.5612C35.4069 16.5612 28.2645 12.3172 26.2674 20.7245C26.2674 20.7245 22.7624 21.3925 22.5725 24.8591C22.2617 30.3411 26.0315 34.9248 27.7178 34.8327Z" fill="#263238"/>
<path d="M34.2558 24.3064C34.2512 24.2926 34.2414 24.2813 34.2284 24.2748C34.2155 24.2683 34.2005 24.2673 34.1867 24.2718C34.173 24.2764 34.1616 24.2863 34.1552 24.2992C34.1487 24.3122 34.1476 24.3272 34.1522 24.3409C34.5608 25.9072 34.9925 27.6175 33.8184 28.9822C33.2922 29.6369 32.5651 30.1 31.7495 30.2998C30.9339 30.4996 30.0752 30.4252 29.3062 30.0879C29.2141 30.0418 29.1393 30.1858 29.2371 30.2261C29.9892 30.5574 30.8225 30.6582 31.6318 30.5157C32.4411 30.3733 33.19 29.9939 33.7839 29.4256C35.2572 28.0264 35.0155 25.9821 34.2558 24.3064Z" fill="#263238"/>
<path d="M27.7983 33.8136C25.0185 32.6158 22.8257 30.4794 22.3883 27.3468C22.1091 25.8608 22.3966 24.324 23.194 23.0395C23.9768 21.8878 25.2314 21.4099 26.3365 20.667C26.3449 20.6632 26.3514 20.6562 26.3546 20.6476C26.3579 20.639 26.3575 20.6294 26.3537 20.621C26.3499 20.6126 26.3429 20.606 26.3343 20.6028C26.3256 20.5996 26.3161 20.5999 26.3077 20.6037C19.3092 22.9071 21.4099 32.3509 27.6775 34.1591C27.7215 34.169 27.7677 34.1623 27.8071 34.1404C27.8466 34.1184 27.8767 34.0828 27.8916 34.0401C27.9065 33.9975 27.9052 33.9509 27.888 33.9091C27.8708 33.8673 27.8389 33.8333 27.7983 33.8136Z" fill="#263238"/>
<path d="M46.2039 14.1312C42.9406 10.1003 37.2486 13.3538 35.217 16.9183C35.217 16.9183 35.217 16.9471 35.217 16.9183C37.0932 14.2118 41.1968 11.4017 44.4773 13.2214C48.4312 15.4153 47.355 22.4003 42.9982 23.362C42.974 23.3731 42.9541 23.392 42.9417 23.4156C42.9293 23.4393 42.9251 23.4664 42.9297 23.4927C42.9343 23.519 42.9474 23.543 42.9671 23.561C42.9868 23.579 43.0119 23.59 43.0385 23.5923C47.0787 23.028 48.6442 17.1198 46.2039 14.1312Z" fill="#263238"/>
<path d="M37.3234 36.6812C36.659 36.6558 36.015 36.4444 35.4649 36.0708C34.9147 35.6973 34.4804 35.1767 34.2113 34.5683C33.9423 33.96 33.8494 33.2882 33.9432 32.6296C34.037 31.971 34.3137 31.352 34.7419 30.843C35.17 30.3341 35.7324 29.9556 36.3649 29.7506C36.9975 29.5457 37.6749 29.5226 38.3199 29.6839C38.965 29.8453 39.5518 30.1845 40.0136 30.6632C40.4754 31.1418 40.7936 31.7405 40.932 32.3912C41.1284 33.312 40.9513 34.2732 40.4398 35.0636C39.9283 35.8539 39.1241 36.4088 38.204 36.6064C37.9148 36.6684 37.6189 36.6935 37.3234 36.6812ZM37.5824 30.059C37.3272 30.0476 37.0716 30.0709 36.8227 30.1281C36.0617 30.2948 35.3929 30.7454 34.9524 31.3882C34.5119 32.031 34.3328 32.8176 34.4516 33.5879C34.5704 34.3582 34.9781 35.0542 35.5918 35.5342C36.2055 36.0142 36.979 36.2422 37.7548 36.1716C38.5306 36.101 39.2503 35.7373 39.7674 35.1544C40.2845 34.5715 40.5602 33.8134 40.5382 33.0343C40.5162 32.2552 40.1983 31.5138 39.6492 30.961C39.1 30.4083 38.3609 30.0857 37.5824 30.059Z" fill="#FFC727"/>
<path d="M45.4442 36.0018C44.086 35.95 42.9119 34.5104 42.7622 32.6677C42.6857 31.7819 42.8869 30.8943 43.3378 30.1282C43.5088 29.7885 43.7645 29.4987 44.0802 29.2868C44.3959 29.0749 44.7609 28.9481 45.1399 28.9185C45.5189 28.889 45.8992 28.9578 46.2438 29.1183C46.5885 29.2787 46.886 29.5254 47.1075 29.8345C47.6663 30.5227 47.9962 31.3682 48.0514 32.2531C48.201 34.2052 47.1478 35.8866 45.6917 36.0018C45.6093 36.0085 45.5266 36.0085 45.4442 36.0018ZM45.3406 29.3854H45.1565C44.8559 29.4241 44.569 29.5342 44.3197 29.7065C44.0704 29.8788 43.866 30.1083 43.7234 30.3758C43.3297 31.0548 43.1586 31.8403 43.2342 32.6216C43.3723 34.3146 44.4428 35.616 45.6399 35.5008C46.837 35.3857 47.6946 33.9576 47.5622 32.2646C47.513 31.4822 47.2236 30.7341 46.7334 30.1225C46.565 29.9097 46.3542 29.7343 46.1144 29.6074C45.8747 29.4806 45.6112 29.4049 45.3406 29.3854Z" fill="#FFC727"/>
<path d="M40.8457 32.8115L40.5118 32.4717C41.0183 31.9765 42.2097 31.274 43.1478 32.132L42.8255 32.4832C41.991 31.7404 40.8917 32.7654 40.8457 32.8115Z" fill="#FFC727"/>
<path d="M25.1508 34.9596L24.7134 34.7753C24.7998 34.568 25.5825 32.7714 26.6242 32.518C27.6659 32.2646 33.991 32.3798 34.2616 32.3856V32.8577C32.4256 32.829 27.499 32.7944 26.7451 32.9787C25.9911 33.1629 25.358 34.4643 25.1508 34.9596Z" fill="#FFC727"/>
<path d="M29.312 34.0726C29.312 34.0726 26.6185 30.0417 24.7883 30.9746C22.9581 31.9074 24.9149 37.7522 27.0214 38.593C27.2837 38.7191 27.5689 38.7909 27.8598 38.8039C28.1506 38.817 28.441 38.771 28.7136 38.6688C28.9862 38.5665 29.2353 38.4102 29.446 38.2092C29.6566 38.0081 29.8244 37.7665 29.9393 37.4989L29.312 34.0726Z" fill="#EB9481"/>
<path d="M25.3926 32.6331C25.3581 32.6331 25.3523 32.6734 25.3926 32.6849C26.866 33.3241 27.6142 34.7234 28.1321 36.1687C28.0486 36.0178 27.9335 35.8866 27.7946 35.7843C27.6558 35.682 27.4964 35.6109 27.3275 35.5759C27.1586 35.5409 26.9842 35.5428 26.8161 35.5815C26.648 35.6202 26.4903 35.6948 26.3537 35.8002C26.3134 35.829 26.3537 35.8866 26.394 35.8808C26.6573 35.8044 26.9378 35.8109 27.1973 35.8995C27.4568 35.9881 27.6827 36.1545 27.8444 36.376C28.1099 36.7528 28.3356 37.1561 28.5177 37.5796C28.5811 37.712 28.8228 37.6487 28.7767 37.4932C28.7767 37.4932 28.7767 37.4932 28.7767 37.4586C28.8343 35.5583 27.4242 32.8922 25.3926 32.6331Z" fill="#263238"/>
<path d="M19.7178 57.7053C19.9423 70.6963 23.4185 91.0524 26.9005 93.2636C35.6083 98.7975 50.3017 101.429 56.4887 101.515C60.1031 101.567 61.3175 82.5126 58.1117 82.3053C53.0528 81.9771 38.6414 79.1555 36.817 78.6948C35.8558 78.4472 31.0041 65.4101 27.0616 57.1871C22.7969 48.25 19.6085 51.371 19.7178 57.7053Z" fill="#EB9481"/>
<path d="M69.4095 86.4053C68.3159 85.8294 68.6152 85.2536 70.7965 84.862C72.9778 84.4705 81.9216 84.862 81.7892 81.7294C81.6568 78.5968 69.0296 78.2744 65.444 79.1554C61.8585 80.0365 56.3851 82.7659 56.3851 82.7659C58.8254 83.3245 64.6268 85.2478 69.4095 86.4053Z" fill="#EB9481"/>
<path d="M76.5518 29.2068C77.2077 26.8075 78.5192 24.6387 80.3391 22.944C82.1589 21.2493 84.415 20.0959 86.8539 19.6133L83.9762 30.1742L89.156 33.7848L95.4523 33.3126L98.33 22.7459C100.108 24.332 101.43 26.3645 102.159 28.6333C102.889 30.902 102.999 33.3245 102.479 35.6503C101.959 37.976 100.828 40.1206 99.2016 41.862C97.5755 43.6035 95.5139 44.8787 93.2301 45.5558C90.9463 46.2328 88.5231 46.287 86.2113 45.7129C83.8995 45.1387 81.7829 43.957 80.0806 42.29C78.3783 40.6231 77.152 38.5313 76.5286 36.2311C75.9051 33.931 75.9072 31.5059 76.5345 29.2068H76.5518Z" fill="#455A64"/>
<path d="M82.1114 110.406C81.4574 112.807 80.1464 114.977 78.3262 116.671C76.5061 118.366 74.2491 119.519 71.8094 120L74.6871 109.439L69.5072 105.828L63.2109 106.301L60.3332 116.867C58.5568 115.282 57.2359 113.25 56.5072 110.983C55.7785 108.715 55.6683 106.294 56.1882 103.97C56.7081 101.645 57.8392 99.5019 59.4643 97.7615C61.0895 96.021 63.1499 94.7465 65.4323 94.0697C67.7148 93.3929 70.1366 93.3384 72.4471 93.9119C74.7577 94.4854 76.8732 95.666 78.575 97.3316C80.2767 98.9972 81.5028 101.087 82.1266 103.386C82.7503 105.685 82.7491 108.108 82.123 110.406H82.1114Z" fill="#455A64"/>
<path d="M65.4213 98.1464L76.9087 101.284L94.0309 38.5334L82.5435 35.3956L65.4213 98.1464Z" fill="#455A64"/>
<path d="M73.8324 80.6144L78.5629 81.9065L85.6142 56.064L80.8838 54.7719L73.8324 80.6144Z" fill="#263238"/>
<path d="M54.2614 101.112C61.2023 102.437 69.7605 104.51 77.2827 101.826C78.1246 101.548 78.8483 100.994 79.3374 100.254C82.7215 99.1026 83.1992 97.1677 83.1992 97.1677C86.0251 95.135 86.2438 93.085 86.2438 93.085C86.2438 93.085 90.2035 91.6972 89.7603 89.1635C89.2769 86.3188 83.8093 88.8238 79.9762 88.3573C71.1533 87.2978 58.9174 83.3244 56.4081 82.7659L54.2614 101.112Z" fill="#EB9481"/>
<path d="M69.9389 93.7473C72.5167 94.086 75.1145 94.2495 77.7144 94.2368C80.5549 94.0447 83.3771 93.6405 86.1574 93.0275C86.1758 93.0229 86.1952 93.0258 86.2113 93.0355C86.2275 93.0453 86.2392 93.061 86.2438 93.0793C86.2484 93.0977 86.2455 93.1171 86.2358 93.1333C86.226 93.1495 86.2103 93.1611 86.192 93.1657C80.9399 94.8806 75.3183 95.1216 69.9389 93.8625C69.795 93.8337 69.8008 93.73 69.9389 93.7473Z" fill="#263238"/>
<path d="M68.5173 98.9759C71.0612 99.0911 75.5331 99.2581 83.1647 97.0872C83.1647 97.0872 83.2107 97.1217 83.1647 97.1332C78.5579 99.1385 73.485 99.8243 68.5116 99.1141C68.3504 99.0796 68.3447 98.9702 68.5173 98.9759Z" fill="#263238"/>
<path d="M67.8094 101.803C72.1432 101.832 74.8827 101.297 79.3201 100.243C79.3201 100.243 79.3604 100.277 79.3201 100.289C74.4166 102.017 72.4425 102.086 67.8094 101.953C67.6368 101.947 67.6368 101.803 67.8094 101.803Z" fill="#263238"/>
<path d="M53.3693 104.297L55.9362 80.8658L37.4903 78.0327C34.6126 71.1225 28.8976 57.2447 26.1983 52.7531C23.0271 47.4784 19.1653 49.3326 18.866 55.5978C18.1869 69.9133 22.5494 92.7282 24.7825 95.5268C27.9825 99.5231 53.3693 104.297 53.3693 104.297Z" fill="#7CC683"/>
<path d="M49.8643 100.968C49.755 99.4942 50.3132 93.4191 50.4686 91.9046C50.624 90.3901 51.447 84.3495 51.6197 82.7948C51.6197 82.7084 51.7521 82.6969 51.7463 82.7948C51.6082 84.338 51.2514 90.4535 51.1132 91.9679C50.9751 93.4824 50.342 99.5345 49.9622 100.98C49.9606 100.993 49.954 101.005 49.9437 101.013C49.9335 101.021 49.9205 101.025 49.9075 101.023C49.8945 101.022 49.8827 101.015 49.8746 101.005C49.8665 100.994 49.8628 100.981 49.8643 100.968Z" fill="#263238"/>
<path d="M39.2111 101.418C37.2198 100.899 35.2457 100.318 33.2889 99.6901C30.4112 98.6536 27.2458 97.8531 24.8688 95.8319C23.0214 93.2752 22.607 90.0332 21.8876 87.0503C20.3645 78.9475 19.3591 70.7559 18.8775 62.5251C19.8099 70.7021 20.748 78.8906 22.2789 86.9697C22.9638 89.8835 23.3609 93.1485 25.0645 95.6477C27.3666 97.6401 30.5033 98.4866 33.3234 99.5749C35.2687 100.243 37.2313 100.857 39.2111 101.418Z" fill="#263238"/>
<path d="M19.1653 66.0262C18.8004 65.3325 18.5885 64.5687 18.5437 63.7861C18.7394 64.529 19.0271 65.2718 19.1653 66.0262Z" fill="#263238"/>
<path d="M30.3824 61.6094C32.8515 66.6135 34.7795 72.3719 37.2256 77.3184C40.437 78.0785 43.7348 78.5392 46.9809 79.1668L55.9247 80.7907L55.8498 81.4184L55.8844 80.785C52.8878 80.3588 49.8911 79.9058 46.8945 79.426C43.7521 78.9595 40.5867 78.4528 37.404 77.8079C37.235 77.7888 37.0742 77.7252 36.9378 77.6236C35.7867 75.7003 34.5896 72.1876 33.6803 70.0973C32.7076 67.6269 31.3781 64.0394 30.3824 61.6209V61.6094Z" fill="#263238"/>
<path d="M31.1882 62.1162C31.4823 62.9035 31.6192 63.7408 31.5911 64.5808C31.4702 63.7689 31.2515 62.9397 31.1882 62.1162Z" fill="#263238"/>
<path d="M75.4526 82.2535C74.6353 79.9501 77.7892 80.3129 77.7892 80.3129C77.7892 80.3129 73.3634 78.7178 73.4324 76.0401C73.5073 73.4546 77.3058 74.0074 77.582 74.0477C77.3461 73.9613 73.3173 72.3893 73.6684 69.7001C74.031 66.9073 77.7489 68.1223 77.9907 68.1971C77.795 68.0474 75.2511 66.0089 75.9821 64.028C77.231 60.6248 84.9834 65.8362 87.8726 65.3064L90.3647 60.4463C90.3579 61.8522 90.7577 63.23 91.5157 64.4138C92.5574 66.1414 93.2423 67.2931 93.3517 68.5772C93.4091 69.1454 93.2824 69.717 92.9901 70.2075C92.6978 70.698 92.2555 71.0814 91.7287 71.3009C91.7287 71.3009 93.9618 72.5736 93.7603 74.6984C93.651 75.7868 91.8092 76.5814 91.8092 76.5814C91.8092 76.5814 93.5359 77.6755 93.2538 79.5528C93.0179 81.0557 91.2107 81.62 91.2107 81.62C91.2107 81.62 92.402 83.4455 91.6654 84.9024C90.1862 87.8334 77.2022 87.1424 75.4526 82.2535Z" fill="#EB9481"/>
<path d="M88.6151 64.2813L90.3417 60.5441C90.4337 60.4231 90.5316 60.2965 90.6294 60.1813C94.0136 56.1504 100.742 56.3347 99.2624 59.7897C98.1114 62.4213 93.3229 63.2045 92.5517 66.0722L88.6151 64.2813Z" fill="#EB9481"/>
<path d="M90.9459 81.7524C90.9551 81.7524 90.9639 81.7561 90.9703 81.7625C90.9768 81.769 90.9805 81.7778 90.9805 81.787C90.9805 81.7961 90.9768 81.8049 90.9703 81.8114C90.9639 81.8179 90.9551 81.8215 90.9459 81.8215C86.4507 82.6811 81.8006 82.155 77.6108 80.3128C77.4842 80.2495 77.5245 80.0134 77.6856 80.0537C82.0001 81.2597 86.4669 81.8319 90.9459 81.7524Z" fill="#263238"/>
<path d="M91.8783 76.6161C91.9301 76.6161 91.9301 76.6967 91.8783 76.7082C87.4179 77.5201 81.795 76.881 77.4324 74.1572C77.2828 74.0651 77.2425 73.829 77.4324 73.9269C80.4597 75.5047 87.6769 76.7485 91.8783 76.6161Z" fill="#263238"/>
<path d="M77.749 67.9034C82.0309 70.3508 86.6697 71.18 91.5618 71.3585C91.5755 71.3585 91.5887 71.3639 91.5984 71.3737C91.6081 71.3834 91.6136 71.3966 91.6136 71.4103C91.6136 71.4241 91.6081 71.4372 91.5984 71.447C91.5887 71.4567 91.5755 71.4621 91.5618 71.4621C89.1503 72.038 86.0482 71.6061 83.6655 71.0648C81.4415 70.6033 79.3764 69.5692 77.6741 68.0647C77.5993 68.0186 77.6569 67.8516 77.749 67.9034Z" fill="#263238"/>
</g>
<defs>
<clipPath id="clip0_166_1354">
<rect width="157" height="120" fill="white"/>
</clipPath>
</defs>
</svg>
