<svg width="142" height="127" viewBox="0 0 142 127" fill="none" xmlns="http://www.w3.org/2000/svg">
<g clip-path="url(#clip0_166_498)">
<path d="M133 60C133 93.1371 106.137 120 73 120C39.8629 120 85 78.5 13 60C13 26.8629 -23 22.5 73 0C87 64.5 133 26.8629 133 60Z" fill="#EEFFEF"/>
<path d="M70.0701 0.546875V35.252H65.2079V43.6708L56.8038 35.252H10.6892V0.546875H70.0701Z" fill="white"/>
<path d="M70.0764 0.54686C70.1399 11.0004 70.4383 25.3072 70.4573 35.6272H70.0764H65.2142L65.6269 35.2139L65.684 43.6326V44.7708L64.8715 43.9633L56.423 35.6335L56.8102 35.7925C42.9663 35.7925 23.7206 35.9197 10.0671 35.8752V35.2393L10.1497 0.534142V-0.0126953C25.2377 0.089042 55.0011 0.337026 70.0764 0.534142V0.54686ZM70.0764 0.54686C55.274 0.737617 25.4852 0.991961 10.6892 1.08734L11.2351 0.54686L11.3112 35.252L10.6765 34.6162C24.0824 34.6162 43.4169 34.6734 57.0133 34.6988L57.172 34.8578L65.5253 43.3211L64.7191 43.6581L64.7826 35.2393V34.8323H65.2142H70.0764L69.6956 35.2139C69.7845 25.2245 69.9431 10.6634 70.0764 0.508708V0.54686Z" fill="#263238"/>
<path d="M29.1541 17.8994C29.1541 18.4565 28.9892 19.0011 28.6802 19.4643C28.3712 19.9276 27.932 20.2886 27.4182 20.5018C26.9044 20.715 26.339 20.7708 25.7936 20.6621C25.2481 20.5534 24.7471 20.2851 24.3538 19.8912C23.9606 19.4972 23.6927 18.9953 23.5842 18.4489C23.4757 17.9025 23.5315 17.3361 23.7443 16.8214C23.9571 16.3067 24.3175 15.8668 24.7799 15.5572C25.2424 15.2477 25.786 15.0825 26.3422 15.0825C27.0879 15.0825 27.8032 15.3793 28.3305 15.9076C28.8578 16.4358 29.1541 17.1523 29.1541 17.8994Z" fill="#263238"/>
<path d="M43.1948 17.8994C43.1948 18.4565 43.0299 19.0011 42.7209 19.4643C42.4119 19.9276 41.9728 20.2886 41.4589 20.5018C40.9451 20.715 40.3797 20.7708 39.8342 20.6621C39.2888 20.5534 38.7877 20.2851 38.3945 19.8912C38.0012 19.4972 37.7334 18.9953 37.6249 18.4489C37.5164 17.9025 37.5721 17.3361 37.7849 16.8214C37.9978 16.3067 38.3582 15.8668 38.8206 15.5572C39.283 15.2477 39.8267 15.0825 40.3828 15.0825C41.1286 15.0825 41.8439 15.3793 42.3712 15.9076C42.8985 16.4358 43.1948 17.1523 43.1948 17.8994Z" fill="#263238"/>
<path d="M57.2354 17.8994C57.2354 18.4565 57.0705 19.0011 56.7615 19.4643C56.4526 19.9276 56.0134 20.2886 55.4996 20.5018C54.9858 20.715 54.4204 20.7708 53.8749 20.6621C53.3294 20.5534 52.8284 20.2851 52.4351 19.8912C52.0419 19.4972 51.7741 18.9953 51.6656 18.4489C51.5571 17.9025 51.6128 17.3361 51.8256 16.8214C52.0384 16.3067 52.3988 15.8668 52.8613 15.5572C53.3237 15.2477 53.8673 15.0825 54.4235 15.0825C55.1693 15.0825 55.8845 15.3793 56.4118 15.9076C56.9392 16.4358 57.2354 17.1523 57.2354 17.8994Z" fill="#263238"/>
<path d="M83.1713 24.0481V53.0305H87.2337V60.0631L94.2477 53.0305H132.758V24.0481H83.1713Z" fill="white"/>
<path d="M83.1713 24.0227C83.3173 32.5495 83.4697 44.6308 83.5522 53.0051L83.1713 52.6236C83.33 52.6236 87.6653 52.5854 87.6146 52.5854V53.0051L87.6717 60.0377L86.8656 59.7007L93.8478 52.6236L94.0065 52.4646C105.432 52.4646 121.472 52.3629 132.726 52.3819L132.092 53.0178L132.218 24.0227L132.764 24.5695C118.959 24.455 97.1422 24.2325 83.1713 24.0227ZM83.1713 24.0227C97.2501 23.8637 118.838 23.5394 132.764 23.4822H133.304V24.0227L133.386 53.0051V53.6409H132.752C121.631 53.6855 105.527 53.5646 94.235 53.5583L94.6222 53.3993L87.5511 60.3938L86.7386 61.2013V60.0631L86.7958 53.0305L87.2084 53.4438H83.1459H82.7651C82.7651 44.8343 83.0571 32.7975 83.1459 24.0862L83.1713 24.0227Z" fill="#263238"/>
<path d="M119.689 40.8921C120.986 40.8921 122.037 39.8388 122.037 38.5394C122.037 37.2401 120.986 36.1868 119.689 36.1868C118.391 36.1868 117.34 37.2401 117.34 38.5394C117.34 39.8388 118.391 40.8921 119.689 40.8921Z" fill="#263238"/>
<path d="M105.616 38.5394C105.616 39.0048 105.754 39.4596 106.012 39.8465C106.27 40.2334 106.637 40.535 107.066 40.713C107.495 40.8911 107.967 40.9377 108.423 40.8469C108.878 40.7561 109.297 40.5321 109.625 40.203C109.954 39.874 110.177 39.4548 110.268 38.9984C110.359 38.5421 110.312 38.069 110.134 37.6391C109.957 37.2092 109.656 36.8418 109.269 36.5833C108.883 36.3248 108.429 36.1868 107.965 36.1868C107.342 36.1868 106.744 36.4346 106.304 36.8759C105.864 37.3171 105.616 37.9155 105.616 38.5394Z" fill="#263238"/>
<path d="M93.8923 38.5394C93.8923 39.0048 94.03 39.4596 94.2881 39.8465C94.5462 40.2334 94.9129 40.535 95.3421 40.713C95.7712 40.8911 96.2434 40.9377 96.699 40.8469C97.1546 40.7561 97.5731 40.5321 97.9015 40.203C98.23 39.874 98.4537 39.4548 98.5443 38.9984C98.6349 38.5421 98.5884 38.069 98.4106 37.6391C98.2329 37.2092 97.9319 36.8418 97.5457 36.5833C97.1594 36.3248 96.7054 36.1868 96.2409 36.1868C95.618 36.1868 95.0206 36.4346 94.5802 36.8759C94.1397 37.3171 93.8923 37.9155 93.8923 38.5394Z" fill="#263238"/>
<path d="M82.5874 112.134L133.323 112.712C130.784 99.4291 128.08 71.7692 115.099 56.8329C111.475 52.6617 102.982 52.5218 99.1988 57.7867C91.239 68.9079 85.3041 97.8521 82.5874 112.134Z" fill="#455A64"/>
<path d="M119.987 61.6147C128.239 73.1174 145.974 99.3847 140.743 105.457C132.136 115.434 111.126 124.17 104.562 126.148C101.719 127 91.5501 106.322 94.2287 104.624C97.4469 102.583 118.025 94.4822 118.127 93.4839C118.241 92.3839 114.382 78.2233 113.119 67.0767C111.551 53.215 116.546 56.814 119.987 61.6147Z" fill="#F7A9A0"/>
<path d="M104.569 103.174C104.569 103.174 95.9171 100.631 90.179 99.232C87.0052 98.4563 81.3687 97.6106 78.7535 98.1129C74.8434 98.8696 58.9747 104.535 60.2632 108.42C61.4312 111.936 74.4435 105.336 74.4435 105.336C74.4435 105.336 60.7266 110.83 62.9038 114.804C65.0809 118.778 78.7725 109.361 78.7725 109.361C78.7725 109.361 64.808 115.326 67.6961 119.071C69.8797 121.9 82.7841 114.073 82.7841 114.073C82.7841 114.073 70.8127 119.281 72.9392 122.288C75.2877 125.607 87.6463 119.109 87.6463 119.109C94.3366 125.843 100.138 126.739 104.524 126.103C105.565 126.008 104.569 103.174 104.569 103.174Z" fill="#F7A9A0"/>
<path d="M78.417 103.409C68.0008 106.684 63.894 111.485 64.0273 111.383C67.201 108.891 72.8249 106.188 74.3991 105.457C75.9732 104.726 76.8746 104.185 78.4488 103.467C78.4869 103.448 78.4551 103.397 78.417 103.409Z" fill="#263238"/>
<path d="M81.7939 108.789C77.5196 109.919 73.4822 111.808 69.8733 114.365C69.74 114.467 69.8162 114.499 69.9685 114.423C71.9553 113.437 79.8008 109.717 81.8193 108.833C81.851 108.821 81.8257 108.776 81.7939 108.789Z" fill="#263238"/>
<path d="M85.0185 113.221C81.7254 114.17 78.6383 115.727 75.9161 117.812C75.7765 117.907 75.9162 117.952 76.0495 117.869C79.0455 116.286 81.3877 115.027 85.0566 113.329C85.1137 113.304 85.082 113.195 85.0185 113.221Z" fill="#263238"/>
<path d="M100.544 101.426L112.129 126.173C112.129 126.173 139.753 111.262 141.841 104.255C143.93 97.2481 125.141 66.4281 119.435 60.1458C113.728 53.8635 111.875 56.4324 112.04 63.6049C112.205 70.7773 117.829 93.1341 117.689 93.5538C117.549 93.9735 100.544 101.426 100.544 101.426Z" fill="#455A64"/>
<path d="M115.632 82.9921C115.258 81.3198 114.89 79.6412 114.541 77.9561C114.357 77.085 114.173 76.2075 113.976 75.3428L113.709 74.1346C113.665 73.9375 113.601 73.734 113.57 73.5369C113.449 72.7993 113.57 73.4543 113.366 72.7421C113.363 72.7338 113.357 72.7268 113.35 72.7218C113.343 72.7168 113.334 72.7141 113.325 72.7141C113.316 72.7141 113.308 72.7168 113.3 72.7218C113.293 72.7268 113.287 72.7338 113.284 72.7421C113.335 73.1999 113.233 73.0155 113.328 73.378C113.392 73.6387 113.424 73.8994 113.462 74.1664C113.519 74.5734 113.589 74.9803 113.652 75.3873C113.785 76.2203 113.938 77.0469 114.09 77.8735C114.09 77.9816 114.134 78.0897 114.153 78.1978C114.156 78.1682 114.156 78.1384 114.153 78.1087C113.849 77.2122 113.519 76.322 113.214 75.4254C113.214 75.417 113.211 75.4089 113.205 75.4029C113.199 75.397 113.191 75.3936 113.182 75.3936C113.174 75.3936 113.166 75.397 113.16 75.4029C113.154 75.4089 113.151 75.417 113.151 75.4254C113.36 76.3538 113.608 77.2631 113.906 78.166C114.077 78.6874 114.28 79.1961 114.484 79.7048C114.706 80.8112 114.915 81.9112 115.118 83.0176C115.836 86.4258 116.578 89.8531 117.568 93.1913C116.121 93.8272 114.642 94.463 113.201 95.0989C111.76 95.7347 110.313 96.4596 108.872 97.1464C107.432 97.8331 105.991 98.5134 104.562 99.2192L102.531 100.326C101.795 100.707 101.097 101.165 100.354 101.521C100.278 101.559 100.354 101.667 100.424 101.636C101.198 101.279 102.023 101 102.804 100.682C103.49 100.383 104.182 100.09 104.867 99.7788C106.327 99.1429 107.774 98.4499 109.221 97.7695C110.669 97.0891 112.11 96.4215 113.55 95.7284C114.991 95.0353 116.381 94.2723 117.81 93.5728C117.832 93.5638 117.852 93.5501 117.868 93.5325C117.885 93.5149 117.897 93.494 117.905 93.4711C117.935 93.4489 117.958 93.4185 117.972 93.3836C117.985 93.3487 117.988 93.3107 117.981 93.274C117.264 89.8213 116.401 86.4131 115.632 82.9921Z" fill="#263238"/>
<path d="M112.065 111.186C111.202 109.393 107.698 102.246 106.695 100.535C106.695 100.535 106.625 100.535 106.638 100.535C107.273 102.354 110.529 109.507 111.392 111.307C113.017 114.951 114.842 118.502 116.858 121.945C116.896 122.002 117.004 121.945 116.978 121.894C115.582 118.219 113.76 114.721 112.065 111.186Z" fill="#263238"/>
<path d="M102.163 66.3198C105.337 66.7904 110.332 61.5255 112.116 57.4178C112.237 57.138 111.589 54.3657 110.954 50.9511C110.58 48.8846 110.205 46.5701 110.021 44.4336L96.9518 48.8846C97.9489 51.4881 98.6225 54.2045 98.9576 56.9727C98.9864 57.2666 98.9864 57.5627 98.9576 57.8566C98.9511 57.9051 98.9511 57.9543 98.9576 58.0028C98.7862 59.6942 99.0719 65.8684 102.163 66.3198Z" fill="#F7A9A0"/>
<path d="M110.243 46.5067C108.257 54.1879 101.268 56.1654 98.9005 56.6295C98.5478 53.982 97.894 51.3835 96.9518 48.8848L110.047 44.4656C110.078 45.1332 110.161 45.8136 110.243 46.5067Z" fill="#263238"/>
<path d="M93.7082 23.4631C92.9846 23.4059 89.265 28.3402 88.973 30.8455C88.681 33.3507 89.0809 38.4376 89.8045 38.6029C90.5281 38.7683 94.2605 23.5077 93.7082 23.4631Z" fill="#263238"/>
<path d="M111.646 29.1602C113.208 33.891 111.011 47.721 107.711 50.8748C102.912 55.4466 94.8888 56.0634 90.9661 50.239C87.1576 44.5989 90.3313 26.6168 94.051 23.7364C99.5225 19.5016 109.329 22.1658 111.646 29.1602Z" fill="#F7A9A0"/>
<path d="M99.129 37.3057C99.129 37.3057 99.1925 37.3629 99.1861 37.401C99.0147 38.3294 98.9766 39.4167 99.7701 39.8555C99.7701 39.8555 99.7701 39.919 99.7701 39.9063C98.7481 39.6075 98.8179 38.1577 99.129 37.3057Z" fill="#263238"/>
<path d="M100.126 36.46C101.643 36.5744 101.3 39.6011 99.897 39.493C98.4942 39.3849 98.856 36.3646 100.126 36.46Z" fill="#263238"/>
<path d="M93.467 36.4918C93.467 36.4537 93.3845 36.53 93.3845 36.5681C93.3083 37.5092 93.0607 38.5711 92.1784 38.7873C92.1784 38.7873 92.1467 38.8445 92.1784 38.8382C93.2321 38.8127 93.5432 37.3757 93.467 36.4918Z" fill="#263238"/>
<path d="M92.737 35.4173C91.2454 35.1312 90.7883 38.1452 92.1721 38.4059C93.5558 38.6666 93.9875 35.659 92.737 35.4173Z" fill="#263238"/>
<path d="M101.458 35.2138C101.075 35.0508 100.7 34.8683 100.335 34.6669C99.9129 34.5289 99.5474 34.2565 99.294 33.8912C99.2357 33.761 99.2228 33.615 99.2573 33.4766C99.2919 33.3382 99.3718 33.2155 99.4844 33.1282C99.7301 32.9846 100.009 32.9089 100.294 32.9089C100.578 32.9089 100.857 32.9846 101.103 33.1282C101.642 33.3463 102.079 33.7594 102.328 34.2854C102.385 34.4096 102.404 34.548 102.382 34.683C102.361 34.818 102.299 34.9434 102.206 35.0431C102.112 35.1429 101.991 35.2124 101.858 35.2428C101.725 35.2732 101.586 35.2631 101.458 35.2138Z" fill="#263238"/>
<path d="M91.7468 33.7639C92.1721 33.7639 92.5593 33.6494 92.9782 33.5858C93.4237 33.5859 93.8567 33.4383 94.2097 33.1662C94.3041 33.0602 94.3605 32.9256 94.3697 32.7839C94.3789 32.6421 94.3404 32.5014 94.2605 32.3841C94.0695 32.1736 93.8256 32.0184 93.5543 31.9345C93.283 31.8506 92.9942 31.8412 92.718 31.9072C92.1381 31.9515 91.5953 32.2098 91.1946 32.6321C91.1079 32.7339 91.0527 32.8588 91.0359 32.9916C91.0192 33.1244 91.0415 33.2592 91.1001 33.3794C91.1588 33.4996 91.2513 33.6001 91.3662 33.6684C91.4811 33.7367 91.6134 33.7699 91.7468 33.7639Z" fill="#263238"/>
<path d="M98.7481 45.9533C98.5006 46.1441 98.2403 46.4238 97.8976 46.4111C97.5515 46.362 97.2189 46.243 96.9201 46.0614C96.8883 46.0614 96.8566 46.0614 96.8693 46.1059C96.9832 46.3038 97.1483 46.4673 97.3471 46.5791C97.5459 46.691 97.7712 46.7472 97.9991 46.7418C98.1997 46.7202 98.389 46.6381 98.542 46.5064C98.695 46.3747 98.8045 46.1996 98.856 46.0042C98.856 45.9469 98.7862 45.9215 98.7481 45.9533Z" fill="#263238"/>
<path d="M98.0816 43.0347C97.8015 43.3772 97.4541 43.6583 97.061 43.8607C96.668 44.063 96.2375 44.1823 95.7965 44.211C95.4098 44.2395 95.0209 44.2138 94.6413 44.1347L94.4255 44.0839L94.2223 44.0266C94.1743 44.0106 94.1326 43.9799 94.103 43.9388C94.0734 43.8978 94.0574 43.8484 94.0573 43.7977C94.0508 43.7663 94.0508 43.7338 94.0573 43.7023V43.6197C94.1144 42.8948 94.3112 41.8075 94.3112 41.8075C94.0319 41.9092 92.6228 42.3607 92.6863 41.9855C93.2258 38.8825 93.8288 35.4362 95.0158 32.4477C95.0232 32.4267 95.0382 32.4093 95.0578 32.3988C95.0775 32.3884 95.1003 32.3857 95.1218 32.3913C95.1433 32.3969 95.162 32.4103 95.1741 32.429C95.1862 32.4477 95.1908 32.4702 95.1871 32.4922C94.7809 35.4934 93.8605 38.3993 93.4098 41.3942C93.912 41.2253 94.4357 41.129 94.965 41.108C95.0602 41.1462 94.5524 43.2064 94.5461 43.537C95.7394 43.8295 96.6915 43.537 97.961 42.9012C98.0816 42.8948 98.1451 42.9648 98.0816 43.0347Z" fill="#263238"/>
<path d="M95.1173 43.9313C95.4808 44.4696 95.9743 44.9071 96.5519 45.203C96.8742 45.3551 97.2355 45.404 97.5865 45.3429C98.3546 45.1967 98.418 44.5036 98.3228 43.9059C98.266 43.5866 98.1722 43.2751 98.0435 42.9775C97.1957 43.602 96.1697 43.9364 95.1173 43.9313Z" fill="#263238"/>
<path d="M96.5519 45.2159C96.8742 45.368 97.2355 45.4168 97.5865 45.3558C98.3546 45.2095 98.418 44.5164 98.3228 43.9187C97.9253 43.9053 97.5348 44.0258 97.2137 44.2609C96.8926 44.4961 96.6596 44.8324 96.5519 45.2159Z" fill="#FF9CBD"/>
<path d="M110.65 40.7521C108.161 40.7521 107.178 37.9226 106.651 34.012C106.34 31.7229 107.286 27.2974 107.286 27.2974C107.286 27.2974 100.76 29.7454 97.212 29.1096C93.6638 28.4737 90.8646 25.1609 91.2581 22.3695C91.6009 19.9723 95.9108 17.1745 101.268 17.3907C105 17.5369 111.037 21.0532 113.481 25.2881C113.481 25.2881 117.981 27.9205 116.991 31.405C116.001 34.8895 113.455 40.7394 110.65 40.7521Z" fill="#263238"/>
<path d="M110.497 40.4596C107.19 40.8793 105.876 35.8369 106.01 33.2808C106.143 30.6229 107.381 28.0222 108.054 25.4724C106.695 28.5182 105.178 32.3906 105.978 35.767C106.479 37.8907 107.711 41.4325 110.542 40.644C110.618 40.6122 110.599 40.4469 110.497 40.4596Z" fill="#263238"/>
<path d="M117.791 30.3811C117.511 28.1556 115.207 25.8029 113.17 25.1162C113.17 25.1162 113.17 25.1162 113.17 25.148C115.588 26.2671 118.248 29.3892 117.232 32.1424C116.426 34.3234 115.112 37.1784 113.424 38.8317C113.379 38.8698 113.424 38.9334 113.487 38.8953C114.788 37.7952 115.442 36.2755 116.197 34.7813C116.851 33.4905 117.981 31.9453 117.791 30.3811Z" fill="#263238"/>
<path d="M113.931 25.6695C111.342 21.2185 105.394 15.8836 99.8716 16.7293C105.692 16.3287 110.478 21.6572 113.716 25.803C113.817 25.9302 114.001 25.7967 113.931 25.6695Z" fill="#263238"/>
<path d="M108.479 40.4532C108.479 40.4532 111.57 36.0022 113.595 37.0895C115.62 38.1769 113.303 44.6626 110.935 45.5528C110.641 45.6887 110.322 45.7635 109.998 45.7728C109.674 45.7821 109.351 45.7256 109.049 45.6068C108.748 45.488 108.473 45.3094 108.242 45.0815C108.011 44.8537 107.828 44.5815 107.704 44.2811L108.479 40.4532Z" fill="#F7A9A0"/>
<path d="M112.884 38.9272C112.922 38.9272 112.928 38.9781 112.884 38.9908C111.227 39.6712 110.345 41.2163 109.748 42.806C109.845 42.6389 109.976 42.4948 110.134 42.3836C110.291 42.2723 110.471 42.1965 110.66 42.1615C110.85 42.1264 111.044 42.1329 111.231 42.1805C111.418 42.2281 111.592 42.3157 111.741 42.4372C111.78 42.4372 111.741 42.5326 111.697 42.5262C111.405 42.4329 111.091 42.4329 110.798 42.5264C110.506 42.6198 110.25 42.8019 110.066 43.0476C109.765 43.4596 109.509 43.9031 109.304 44.3702C109.222 44.5228 108.955 44.4401 109.012 44.2685C109.012 44.2685 109.012 44.2685 109.012 44.2303C108.974 42.1256 110.612 39.1498 112.884 38.9272Z" fill="#263238"/>
<path d="M98.8941 57.7232L103.337 65.0673L111.43 53.5837L114.693 56.3116C114.693 56.3116 107.768 73.5878 107.59 72.882L103.274 66.6697L99.3892 72.119L97.8658 60.2666L98.8941 57.7232Z" fill="#EBEBEB"/>
<path d="M98.3101 66.2946C98.1261 64.3361 97.8785 62.365 97.7833 60.3938C97.7833 60.3238 97.8785 60.273 97.9103 60.3556C98.6021 62.1678 99.2877 69.6773 99.586 71.4577C99.7447 71.2225 103.217 66.6252 103.268 66.6824C104.137 67.6362 107.298 72.1635 107.533 72.5832C108.631 69.8363 112.903 59.8215 114.293 57.1636C114.302 57.1502 114.315 57.1403 114.331 57.1355C114.346 57.1307 114.362 57.1314 114.377 57.1373C114.392 57.1433 114.405 57.1542 114.412 57.1683C114.42 57.1823 114.423 57.1987 114.42 57.2145C113.525 60.0695 107.908 73.5433 107.781 73.5243C106.175 71.4024 104.679 69.1994 103.299 66.9241C102.747 67.8906 99.313 72.9965 99.2559 72.7104C98.8293 70.5897 98.5136 68.4482 98.3101 66.2946Z" fill="#263238"/>
<path d="M77.6173 120.52C77.6173 120.387 77.5728 120.26 77.5475 120.126C77.5792 120.292 77.6109 120.451 77.63 120.616C77.6236 120.584 77.6236 120.552 77.6173 120.52Z" fill="#FFC727"/>
<path d="M55.5788 124.425C55.6505 124.475 55.7271 124.517 55.8073 124.552L55.839 124.495C55.7628 124.495 55.6803 124.463 55.6041 124.438L55.5788 124.425Z" fill="#FFC727"/>
<path d="M29.3001 70.8981C29.8245 71.2557 30.4401 71.4557 31.0742 71.4743C31.7083 71.493 32.3345 71.3296 32.8789 71.0034C33.4234 70.6772 33.8634 70.2019 34.147 69.6334C34.4306 69.065 34.546 68.4271 34.4796 67.7951C35.0481 68.161 35.7216 68.3276 36.3947 68.2689C37.0678 68.2102 37.7025 67.9296 38.1993 67.4708C38.702 66.9591 39.0002 66.2807 39.0377 65.5637C39.0751 64.8467 38.8491 64.1408 38.4024 63.5794C38.7672 64.1448 38.9312 64.8169 38.8678 65.4872C38.8045 66.1575 38.5175 66.7869 38.0533 67.2737C37.6656 67.6398 37.1781 67.8823 36.6526 67.9706C36.1272 68.0589 35.5874 67.989 35.1017 67.7697C35.6056 67.7898 36.1082 67.7053 36.5779 67.5215C37.0476 67.3376 37.4743 67.0584 37.8311 66.7014C38.2164 66.2924 38.4726 65.7785 38.5675 65.2243C38.6623 64.67 38.5917 64.0999 38.3643 63.5857C38.9755 63.3492 39.5232 62.9731 39.9639 62.4875C40.4047 62.0018 40.7263 61.4199 40.9033 60.788C41.0249 60.2465 40.9871 59.6814 40.7944 59.1611C40.6018 58.6408 40.2625 58.1876 39.8179 57.8566C40.3414 57.5116 40.7513 57.0189 40.9957 56.4409C41.2402 55.8628 41.3083 55.2252 41.1915 54.6084C41.0748 53.9916 40.7783 53.4232 40.3396 52.9749C39.9008 52.5267 39.3394 52.2185 38.7261 52.0894C39.0669 51.802 39.3302 51.4336 39.4923 51.0179C39.6543 50.6022 39.7097 50.1525 39.6535 49.7098C39.5973 49.2671 39.4313 48.8456 39.1706 48.4838C38.9099 48.1219 38.5629 47.8313 38.1612 47.6384C38.3726 47.3729 38.5049 47.0531 38.5431 46.7157C38.5813 46.3783 38.5237 46.037 38.377 45.7308C38.1858 45.3834 37.9283 45.0772 37.619 44.8295C37.3096 44.5819 36.9547 44.3977 36.5743 44.2874C36.6189 43.9333 36.5749 43.5735 36.4464 43.2406C36.3179 42.9076 36.1088 42.6119 35.838 42.3799C35.4743 42.0884 35.0187 41.9366 34.5533 41.9518C34.0878 41.9669 33.643 42.1481 33.299 42.4625C32.5817 41.3943 31.6487 40.3324 30.3601 40.0145C29.8331 39.8604 29.2724 39.8658 28.7485 40.0298C28.2245 40.1938 27.7605 40.5092 27.4149 40.9365C27.0516 40.5269 26.6058 40.1991 26.1069 39.9746C25.608 39.7501 25.0673 39.634 24.5204 39.634C23.9735 39.634 23.4328 39.7501 22.9339 39.9746C22.435 40.1991 21.9892 40.5269 21.626 40.9365C21.2186 40.6909 20.7544 40.5558 20.2792 40.5447C19.8039 40.5335 19.3339 40.6466 18.9156 40.8729C18.324 41.1685 17.8139 41.6052 17.4302 42.1446C17.0531 41.9427 16.6222 41.8647 16.1984 41.9218C15.7746 41.9789 15.3795 42.168 15.069 42.4625C14.7941 42.7506 14.5866 43.0963 14.4615 43.4746C14.3363 43.8529 14.2967 44.2543 14.3453 44.6499C14.2329 44.8533 14.0769 45.0292 13.8883 45.1649C13.4125 45.5022 13.0273 45.9522 12.7671 46.4747C12.5068 46.9972 12.3796 47.5761 12.3967 48.1598C12.0727 48.2709 11.776 48.4499 11.5264 48.6848C11.2768 48.9197 11.0801 49.2052 10.9492 49.5222C10.8183 49.8392 10.7562 50.1805 10.7672 50.5233C10.7782 50.8662 10.862 51.2028 11.0129 51.5108C10.4418 51.9371 10.0602 52.5706 9.94982 53.2755C9.83947 53.9803 10.0092 54.7004 10.4226 55.2814C9.99439 55.6537 9.65097 56.1137 9.41553 56.6304C9.18009 57.1471 9.05813 57.7084 9.05788 58.2763C9.03347 58.7261 9.14058 59.1732 9.36608 59.5628C9.59157 59.9525 9.92565 60.2678 10.3274 60.47C10.1271 60.7445 10.034 61.0829 10.0655 61.4214C10.0971 61.7599 10.2512 62.0751 10.4988 62.3077C10.6777 62.4894 10.8757 62.6514 11.0891 62.7909C11.3852 62.9365 11.6554 63.1298 11.8889 63.3632C12.0203 63.6551 12.0895 63.9713 12.092 64.2915C12.1302 64.5095 12.1919 64.7228 12.2761 64.9274C12.6068 65.6764 13.1827 66.2901 13.9086 66.667C14.6345 67.0439 15.467 67.1614 16.2687 67.0003C16.4908 68.1512 17.5953 68.8061 18.6807 69.0541C19.0368 69.1208 19.3976 69.1591 19.7598 69.1686C20.0834 69.1563 20.4029 69.2452 20.6738 69.4229C20.8452 69.5501 20.9912 69.709 21.1626 69.8362C21.4514 70.0158 21.7742 70.1334 22.1108 70.1816C22.4473 70.2297 22.7901 70.2074 23.1176 70.116C23.7968 73.13 27.6307 73.2381 29.3001 70.8981ZM14.9864 42.9203C15.2533 42.5629 15.6248 42.2979 16.0493 42.1622C16.4738 42.0266 16.9299 42.0271 17.3541 42.1637C17.3332 42.1944 17.3142 42.2262 17.297 42.259C17.297 42.259 16.9986 42.259 16.859 42.259C16.5946 42.2863 16.3358 42.3527 16.0909 42.4562C15.5738 42.6698 15.1319 43.0329 14.8214 43.499C14.6923 43.7087 14.5879 43.9327 14.5104 44.1666C14.5104 44.1666 14.5104 44.2175 14.5104 44.2493C14.5404 43.7662 14.7053 43.3013 14.9864 42.9076V42.9203ZM35.7047 43.0539C35.414 42.746 35.0357 42.5351 34.6213 42.4498C34.2069 42.3645 33.7762 42.4089 33.3879 42.577L33.3434 42.5197C34.0924 42.0428 34.9049 41.8203 35.6984 42.4752C35.9373 42.6826 36.1181 42.949 36.2228 43.2478C36.3274 43.5467 36.3523 43.8678 36.295 44.1793C36.2112 43.7511 36.0063 43.356 35.7047 43.0411V43.0539ZM23.2192 70.0588C23.6816 70.9126 24.4572 71.5531 25.3822 71.845C26.3071 72.1368 27.3091 72.0572 28.1766 71.623C26.3612 72.7039 24.1269 72.5831 23.2192 70.0461V70.0588Z" fill="#263238"/>
<path d="M72.0188 97.9094C70.6731 105.629 60.5933 107.365 59.0572 105.724C52.7541 99.0794 46.0257 86.1333 38.7452 71.6803C33.0324 60.3874 36.6505 59.9995 41.5571 62.9881C52.9636 69.938 72.7424 93.7636 72.0188 97.9094Z" fill="#7CC683"/>
<path opacity="0.1" d="M72.0188 97.9093C70.6731 105.629 60.5933 107.365 59.0572 105.724C52.7604 99.0793 46.0257 86.1332 38.7452 71.6802C35.984 66.2118 35.2858 62.7781 36.3522 61.748L71.8982 96.3833C72.0486 96.8771 72.0897 97.3979 72.0188 97.9093Z" fill="black"/>
<path d="M61.2407 103.861C57.9781 99.9695 58.7017 91.5698 60.0537 71.4322C60.2378 68.6471 81.0005 66.5297 80.9624 69.5246C80.8989 73.2825 78.5377 88.327 77.7886 90.5779C74.0119 101.597 63.4623 106.5 61.2407 103.861Z" fill="#AD6359"/>
<path d="M81.3877 61.7227C82.0224 65.7286 80.1626 74.4399 78.8995 76.3474C77.6363 78.255 62.7451 75.5781 61.6533 73.4797C60.5615 71.3814 59.4253 57.7168 61.4629 54.1115C63.5004 50.5062 80.7148 57.5705 81.3877 61.7227Z" fill="#AD6359"/>
<path d="M59.4444 60.311C61.4565 61.0613 61.9834 59.3699 61.9834 59.3699C61.9834 59.3699 61.2471 63.4775 63.3354 64.6157C65.4237 65.7539 66.6044 62.5365 66.6996 62.3076C66.6615 62.5301 66.0648 66.3198 68.2991 67.2418C70.5335 68.1638 71.3206 64.8065 71.365 64.5903C71.365 64.8065 71.8284 67.6615 73.6691 67.9794C76.8429 68.5263 75.9162 61.1948 77.5982 59.2046C77.5982 59.2046 81.2861 61.6717 81.4067 61.748C81.4067 61.748 80.6768 54.7536 77.8775 52.6298C77.4732 52.3167 76.9747 52.1506 76.4638 52.1587C75.9528 52.1668 75.4598 52.3486 75.0656 52.6743C75.0656 52.6743 75.0656 50.3916 73.3581 49.6095C72.4758 49.2089 71.054 50.2453 71.054 50.2453C71.0298 49.7289 70.8642 49.2291 70.5753 48.8007C70.2865 48.3722 69.8855 48.0317 69.4163 47.8163C68.1468 47.3331 66.9281 48.4522 66.9281 48.4522C66.9281 48.4522 68.4515 39.2831 66.0902 38.59C62.0215 37.4137 59.8252 57.2716 58.1876 58.1745C57.3814 58.6196 58.5684 59.9867 59.4444 60.311Z" fill="#AD6359"/>
<path d="M66.6869 48.6241C66.6869 48.6241 66.6869 48.5541 66.6361 48.5859C63.9847 51.6586 62.3289 55.4662 61.8882 59.5036C61.8882 59.6308 62.1674 60.1395 62.1928 60.0123C62.7133 56.4515 64.5224 52.1531 66.6869 48.6241Z" fill="#263238"/>
<path d="M71.0412 50.1819C71.0412 50.1437 70.9968 50.1056 70.9714 50.1437C68.369 53.2086 66.3695 57.8185 66.5282 62.3713C66.5282 62.5303 66.6932 62.6638 66.7059 62.4857C66.8265 59.4463 69.0735 53.3548 71.0412 50.1819Z" fill="#263238"/>
<path d="M71.4665 64.9021C71.4665 60.5274 72.9011 56.5978 74.9323 52.7699C74.9323 52.719 74.8878 52.6872 74.8498 52.719C73.3454 54.3214 72.3108 56.8966 71.676 58.9695C71.0446 60.8826 70.9243 62.9279 71.3269 64.9021C71.3269 64.9784 71.4665 64.9975 71.4665 64.9021Z" fill="#263238"/>
<path d="M61.9009 59.4083C61.9009 59.5609 62.288 59.3002 62.2817 59.4528C62.2119 61.1315 62.2309 64.1454 63.5512 64.5397C64.6303 64.8321 65.7792 63.5731 66.0267 62.9182L66.6615 61.2713V63.039C66.6459 63.8233 66.7573 64.605 66.9915 65.3536C67.0817 65.7064 67.2454 66.0361 67.4719 66.321C67.6983 66.6059 67.9824 66.8397 68.3055 67.0068C68.6056 67.1602 68.9493 67.2054 69.2787 67.1347C69.6082 67.0641 69.9033 66.8819 70.1145 66.6189C70.576 66.02 70.8775 65.3131 70.9904 64.5651L71.3777 62.5113L71.6823 64.5651C71.7657 65.1386 71.9236 65.6986 72.1521 66.231C72.3466 66.7434 72.6891 67.1862 73.1359 67.5028C73.3418 67.6393 73.5818 67.7153 73.8287 67.722C74.0755 67.7287 74.3193 67.666 74.5324 67.5409C74.9633 67.188 75.2867 66.7209 75.4655 66.1929C75.8692 65.0513 76.1833 63.8799 76.4049 62.6893C76.5318 62.0916 76.6651 61.4939 76.8302 60.8962C76.9569 60.2924 77.21 59.7224 77.5728 59.2239C77.2706 59.7536 77.0724 60.3363 76.9888 60.9407C76.8746 61.5384 76.7921 62.1425 76.7032 62.7465C76.5645 63.9767 76.3073 65.1904 75.9352 66.3709C75.7466 67.0152 75.3737 67.59 74.8625 68.0242C74.558 68.2274 74.2015 68.3385 73.8356 68.3442C73.4698 68.3498 73.1101 68.2497 72.7995 68.056C72.2317 67.6741 71.7898 67.1319 71.53 66.4981C71.2661 65.9103 71.0804 65.2903 70.9778 64.6541H71.6696C71.5527 65.5417 71.2022 66.3822 70.6541 67.0894C70.3327 67.4808 69.8826 67.7446 69.3846 67.8334C68.9064 67.9159 68.4145 67.8494 67.9754 67.6426C67.5663 67.4324 67.2069 67.137 66.9211 66.7762C66.6354 66.4154 66.43 65.9975 66.3187 65.5507C66.0707 64.7266 65.9592 63.8674 65.9886 63.0072L66.6234 63.128C66.2806 63.9483 65.1507 65.4934 63.4496 65.2518C61.2216 64.5778 61.7485 60.2031 61.9009 59.4083Z" fill="#263238"/>
<path d="M61.6533 73.5052C61.6533 73.5052 54.4235 64.9274 54.525 61.1314C54.6266 57.3353 61.8755 53.0496 64.7699 51.9051C68.7562 50.3345 69.4798 53.3548 68.2166 55.3069C66.7567 57.5578 63.5385 60.0758 63.3164 60.2539C63.3164 60.2539 69.3528 62.8545 70.0511 67.598C70.7493 72.3416 61.6533 73.5052 61.6533 73.5052Z" fill="#AD6359"/>
<path d="M59.4571 54.8872C61.5263 53.3866 63.6591 51.8351 66.1981 51.2565C67.6644 50.9576 69.2259 51.8923 69.0862 53.5328C69.01 54.9063 68.1087 56.0763 67.3089 57.0491C66.1992 58.3757 64.9035 59.5344 63.4623 60.4891L63.4052 59.9868C64.1775 60.2737 64.911 60.6561 65.5888 61.125C67.6506 62.4646 69.1728 64.4918 69.886 66.8477C69.2375 65.305 68.2592 63.9235 67.0199 62.8007C65.7806 61.6779 64.3105 60.8411 62.7133 60.3492C64.2683 59.3427 65.6562 58.0982 66.8265 56.6612C67.3726 56.0519 67.8377 55.3744 68.2103 54.6456C69.0164 52.9733 68.1659 51.5362 66.2616 51.7651C63.8242 52.223 61.6025 53.6727 59.4571 54.9063V54.8872Z" fill="#263238"/>
<path d="M82.0923 79.1069L59.1016 74.9866C59.1016 74.9866 55.0582 101.546 58.4669 105.241C59.9966 106.894 64.8651 110.919 68.8133 109.965C77.9092 107.784 82.0923 79.1069 82.0923 79.1069Z" fill="#7CC683"/>
<path d="M59.3237 80.3852C61.9008 80.9448 64.497 81.3708 67.0931 81.7841C69.6892 82.1974 72.2917 82.6235 74.8942 82.9732C76.3668 83.1703 77.8458 83.3801 79.3374 83.5264C79.3755 83.5264 79.3882 83.4692 79.3374 83.4564C76.7984 82.8969 74.1706 82.4645 71.5808 82.0321C68.991 81.5997 66.3822 81.1864 63.7797 80.8049C62.3071 80.5887 60.826 80.4043 59.3364 80.2517C59.2793 80.2453 59.2539 80.3662 59.3237 80.3852Z" fill="#263238"/>
<path d="M59.3428 74.8913C59.1079 74.8023 58.7779 74.7133 58.7652 74.7641C58.4859 76.2075 58.3272 77.7717 58.1685 79.2151C58.0098 80.6585 57.8829 82.1019 57.775 83.5453C57.7242 84.3274 57.8321 89.5097 57.8131 90.2854C57.4355 91.2606 57.2438 92.298 57.2481 93.3439C57.2481 93.4011 57.3433 93.4011 57.3433 93.3439C57.3736 92.4095 57.5295 91.4834 57.8067 90.5906C57.7389 92.4918 57.9528 94.3924 58.4415 96.2307C57.7115 93.4838 57.9971 86.1078 58.2066 83.3228C58.3082 81.9239 58.4415 80.5314 58.5874 79.1388C58.7334 77.7463 58.9239 76.3665 59.0508 74.974L59.3428 75.0312C59.4444 75.0439 59.3872 74.8913 59.3428 74.8913Z" fill="#263238"/>
<path d="M11.3303 111.243L54.7472 112.134L52.9572 99.0539C54.6226 97.654 55.7979 95.7577 56.3117 93.6416C56.8255 91.5255 56.651 89.3003 55.8136 87.2905C54.7155 84.3846 44.5087 67.6171 40.6811 63.0643C36.9615 58.6133 30.3093 60.4573 27.8655 63.0262C19.2583 72.0871 14.6056 87.7483 11.3303 111.243Z" fill="#7CC683"/>
<path d="M47.4793 97.369C45.2017 97.3465 42.9342 97.6768 40.7573 98.3482C38.5484 98.9841 33.6291 100.974 32.3977 101.47C32.3977 101.47 32.3977 101.534 32.3977 101.528C33.9975 101.164 35.5711 100.692 37.1075 100.116C39.2847 99.3656 41.4746 98.6979 43.6835 98.1384C44.936 97.8345 46.2089 97.622 47.492 97.5025C47.5619 97.5152 47.5682 97.369 47.4793 97.369Z" fill="#263238"/>
<path d="M51.3831 98.9203C49.0369 98.5733 46.645 98.703 44.35 99.3018V99.3654C45.5179 99.2573 46.6795 99.1556 47.8475 99.0983C49.0154 99.0411 50.2024 99.0284 51.3767 98.9966C51.4211 98.9966 51.4211 98.9267 51.3831 98.9203Z" fill="#263238"/>
<path d="M30.9377 61.6083C31.0837 62.5303 34.9684 68.7299 39.1197 68.8444C40.4717 68.8444 40.9795 61.4939 40.9795 61.4939L43.4042 53.4439L33.6164 46.176C33.6164 46.176 30.8616 61.2204 30.9377 61.6083Z" fill="#AD6359"/>
<path d="M32.2072 53.819C32.9848 55.653 34.203 57.2659 35.7535 58.514C37.3039 59.7621 39.1385 60.6066 41.0937 60.9724L43.3535 53.4439L33.6164 46.1824C33.6164 46.1824 32.9182 49.9848 32.2072 53.819Z" fill="#263238"/>
<path d="M53.1159 41.1336C55.712 54.6519 47.9236 57.7358 45.0101 58.3017C42.3696 58.8104 33.3053 60.2093 29.3318 47.0152C25.3582 33.8212 30.8108 28.3592 36.7901 26.8776C42.7695 25.3961 50.5198 27.6088 53.1159 41.1336Z" fill="#AD6359"/>
<path d="M50.4309 38.4376C50.1151 38.442 49.7992 38.4271 49.4851 38.3931C49.1491 38.4263 48.8116 38.3457 48.5267 38.1642C48.4467 38.0907 48.3938 37.9924 48.3765 37.8851C48.3593 37.7778 48.3786 37.6678 48.4314 37.5728C48.5608 37.4006 48.7337 37.2661 48.9324 37.1834C49.131 37.1006 49.3482 37.0727 49.5613 37.1023C50.0046 37.0954 50.4345 37.2541 50.7673 37.5474C50.8385 37.6184 50.8878 37.7085 50.909 37.8068C50.9302 37.9052 50.9226 38.0076 50.8871 38.1017C50.8515 38.1958 50.7895 38.2776 50.7086 38.3372C50.6276 38.3968 50.5312 38.4317 50.4309 38.4376Z" fill="#263238"/>
<path d="M40.8018 39.4804C41.1034 39.3853 41.4 39.275 41.6904 39.1498C42.0207 39.0795 42.3179 38.9004 42.5347 38.6411C42.5882 38.5469 42.6086 38.4373 42.5925 38.33C42.5764 38.2228 42.5247 38.124 42.4458 38.0498C42.2705 37.9251 42.0652 37.8494 41.851 37.8304C41.6369 37.8114 41.4215 37.8498 41.2271 37.9417C40.8022 38.0684 40.44 38.3496 40.2114 38.7301C40.1638 38.8195 40.1431 38.9209 40.1521 39.0219C40.161 39.1229 40.1991 39.219 40.2617 39.2986C40.3243 39.3783 40.4088 39.4378 40.5047 39.4701C40.6006 39.5024 40.7038 39.506 40.8018 39.4804Z" fill="#263238"/>
<path d="M43.8041 43.1875C43.8041 43.1875 43.7406 43.2447 43.747 43.2829C43.9374 44.2049 43.9946 45.2858 43.2075 45.7373C43.2075 45.7373 43.2075 45.7945 43.2075 45.7882C44.2231 45.4702 44.1279 44.0332 43.8041 43.1875Z" fill="#263238"/>
<path d="M42.8202 42.3671C41.3159 42.5006 41.7031 45.5019 43.0995 45.3747C44.496 45.2475 44.0771 42.2463 42.8202 42.3671Z" fill="#263238"/>
<path d="M42.2554 42.596C42.0141 42.7995 41.792 43.1365 41.4809 43.2319C41.1699 43.3273 40.8081 43.0411 40.5288 42.7677C40.5288 42.7677 40.478 42.7677 40.4844 42.8059C40.5478 43.3845 40.8462 43.9441 41.4746 43.9504C42.103 43.9568 42.3823 43.3972 42.4521 42.7995C42.4648 42.6596 42.3633 42.5197 42.2554 42.596Z" fill="#263238"/>
<path d="M49.1931 42.1192C49.1931 42.081 49.2693 42.151 49.2757 42.1891C49.3772 43.1239 49.6438 44.173 50.5452 44.3638V44.421C49.4851 44.4146 49.136 43.0158 49.1931 42.1192Z" fill="#263238"/>
<path d="M49.885 41.0318C51.364 40.7139 51.8908 43.6897 50.5198 43.9885C49.1487 44.2874 48.6472 41.3052 49.885 41.0318Z" fill="#263238"/>
<path d="M50.5388 41.1209C50.8054 41.2354 51.0847 41.477 51.3704 41.4452C51.656 41.4134 51.8845 41.0446 52.0051 40.7013C52.0051 40.6631 52.0495 40.7013 52.0559 40.7013C52.1765 41.2672 52.094 41.8903 51.5671 42.1002C51.0403 42.31 50.6341 41.8649 50.3928 41.3244C50.3802 41.2481 50.4373 41.0701 50.5388 41.1209Z" fill="#263238"/>
<path d="M44.6103 50.5125C44.8388 50.7224 45.08 51.0148 45.4164 51.0276C45.7645 51.0051 46.104 50.9098 46.413 50.7478C46.4191 50.7432 46.4266 50.741 46.4343 50.7415C46.4419 50.742 46.4491 50.7453 46.4545 50.7507C46.4599 50.7561 46.4631 50.7633 46.4637 50.771C46.4642 50.7786 46.462 50.7862 46.4574 50.7923C46.3315 50.9831 46.1566 51.1364 45.951 51.236C45.7455 51.3356 45.5169 51.3778 45.2894 51.3582C45.0975 51.3163 44.9221 51.2185 44.7855 51.0771C44.6488 50.9357 44.557 50.757 44.5214 50.5634C44.5024 50.5062 44.5722 50.4871 44.6103 50.5125Z" fill="#263238"/>
<path d="M48.3743 46.5448C48.3743 46.5448 48.7107 47.9182 48.7806 48.5795C48.7806 48.6368 48.6282 48.6813 48.4061 48.7194C47.8496 48.8846 47.2582 48.8918 46.6979 48.7402C46.1376 48.5887 45.6302 48.2843 45.2323 47.861C45.1815 47.8038 45.2323 47.7275 45.3212 47.7593C46.2165 48.2467 47.245 48.4318 48.2537 48.287C48.2537 48.0963 47.619 45.9534 47.7078 45.9344C48.2217 45.9251 48.7344 45.9871 49.2312 46.1188C48.5965 43.2383 47.5428 40.4787 46.9779 37.6046C46.9779 37.5029 47.1048 37.452 47.1429 37.541C48.4696 40.3515 49.2503 43.6516 49.9612 46.6147C50.05 46.9835 48.6536 46.6338 48.3743 46.5448Z" fill="#263238"/>
<path d="M48.2474 48.7322C47.8989 49.287 47.4136 49.7425 46.8382 50.0548C46.5203 50.2136 46.1608 50.2692 45.8099 50.2138C45.0482 50.0866 44.9593 49.3999 45.0482 48.8021C45.0932 48.4818 45.1763 48.168 45.2958 47.8674C46.1619 48.4647 47.1965 48.7678 48.2474 48.7322Z" fill="#263238"/>
<path d="M46.8382 50.0547C46.5203 50.2135 46.1608 50.2691 45.8099 50.2136C45.0482 50.0865 44.9593 49.3997 45.0482 48.802C45.4438 48.7781 45.8359 48.8889 46.1608 49.1163C46.4858 49.3436 46.7245 49.6743 46.8382 50.0547Z" fill="#FF9CBD"/>
<path d="M30.4109 46.9135C33.2355 46.4557 32.3596 39.8746 32.3596 39.8746C32.3596 39.8746 37.006 38.2532 38.4786 34.6606C38.4786 34.6606 37.5963 37.7127 35.9015 39.1688C35.6159 39.4104 45.1815 36.9496 44.9403 29.2812C44.9403 29.2812 47.5111 36.4982 52.1765 37.3566C52.3987 37.3947 50.488 30.6801 48.8186 29.3066C47.8511 28.505 46.7844 27.8318 45.6449 27.3037C42.396 25.542 38.5847 25.1353 35.0382 26.1718C29.2049 27.9522 26.2787 34.8895 26.2216 37.5601C26.139 42.8313 29.0716 47.1552 30.4109 46.9135Z" fill="#263238"/>
<path d="M36.2316 39.2834C41.4936 38.2469 45.1879 34.1965 44.788 28.6391C44.7895 28.611 44.8007 28.5843 44.8197 28.5636C44.8388 28.5429 44.8644 28.5295 44.8923 28.5257C44.9201 28.522 44.9484 28.5281 44.9722 28.5429C44.996 28.5578 45.014 28.5806 45.0228 28.6073C46.597 34.0566 41.2841 39.029 36.1998 39.4169C36.0792 39.4105 36.111 39.3279 36.2316 39.2834Z" fill="#263238"/>
<path d="M30.3792 46.6273C33.0197 44.7197 33.0261 41.7121 32.7912 38.7172C32.7912 38.6282 32.9308 38.6028 32.9435 38.7172C33.4323 41.6231 33.4577 45.2602 30.5188 46.8816C30.4852 46.9002 30.4455 46.9046 30.4086 46.8939C30.3717 46.8831 30.3406 46.8581 30.3221 46.8244C30.3035 46.7907 30.2991 46.751 30.3098 46.714C30.3206 46.677 30.3455 46.6459 30.3792 46.6273Z" fill="#263238"/>
<path d="M44.8134 28.1558H44.8705C45.9877 31.1316 46.9144 36.2947 50.9197 36.4855C50.9416 36.4855 50.9625 36.4942 50.978 36.5097C50.9935 36.5252 51.0022 36.5462 51.0022 36.5682C51.0022 36.5901 50.9935 36.6111 50.978 36.6266C50.9625 36.6421 50.9416 36.6508 50.9197 36.6508C47.0604 36.8034 44.9022 31.3986 44.8134 28.1558Z" fill="#263238"/>
<path d="M32.112 47.2887C32.112 47.2887 28.6844 43.3209 26.8563 44.5927C25.0282 45.8644 27.9164 51.8224 30.2776 52.4328C30.5754 52.5315 30.89 52.5689 31.2026 52.5429C31.5152 52.5168 31.8193 52.4278 32.0968 52.2811C32.3742 52.1345 32.6191 51.9332 32.817 51.6894C33.0149 51.4455 33.1616 51.1642 33.2483 50.8622L32.112 47.2887Z" fill="#AD6359"/>
<path d="M27.7259 46.2776C27.6878 46.2776 27.6878 46.3285 27.7259 46.3412C29.389 46.8244 30.3792 48.2487 31.1282 49.6858C31.0201 49.5334 30.8798 49.4068 30.7173 49.3149C30.5549 49.223 30.3742 49.1681 30.1881 49.1542C30.0021 49.1402 29.8152 49.1675 29.6409 49.2341C29.4666 49.3007 29.309 49.405 29.1795 49.5395C29.1414 49.5713 29.1795 49.6349 29.2366 49.6158C29.5074 49.4993 29.8074 49.4692 30.0958 49.5295C30.3843 49.5898 30.6472 49.7376 30.8489 49.9528C31.1859 50.3154 31.4818 50.7141 31.7312 51.1419C31.82 51.2754 32.0676 51.1419 31.9978 51.0147C31.8073 48.9418 29.9285 46.2776 27.7259 46.2776Z" fill="#263238"/>
<path d="M24.0761 65.7731C16.0655 73.4606 -4.00526 103.206 1.51072 109.139C7.0267 115.071 39.7989 109.323 49.117 105.489C51.8972 104.351 42.56 86.8963 39.399 86.324C36.7774 85.8471 22.8954 91.2964 22.559 90.4953C22.1655 89.586 24.6727 83.2083 28.5828 71.6166C33.0895 58.2572 27.6116 62.3712 24.0761 65.7731Z" fill="#AD6359"/>
<path d="M49.136 83.0876C55.2741 82.0893 57.0006 82.776 61.7358 79.1834C64.8398 76.8244 67.6771 77.7972 65.9569 81.4789C63.145 87.4941 55.4962 90.4381 52.551 90.6988L49.136 83.0876Z" fill="#AD6359"/>
<path d="M32.9118 89.3826C32.9118 89.3826 39.7481 85.383 46.1845 83.6599C50.6277 82.4772 60.5996 80.9893 70.3811 90.6543C72.7043 92.9497 74.3864 97.8649 69.2386 95.4932C65.5824 93.8145 63.767 91.6399 61.4629 91.0422C61.4629 91.0422 62.8657 97.547 60.479 99.7852C58.3939 101.742 56.1731 103.548 53.8332 105.19C53.4333 104.83 53.058 104.443 52.7097 104.033C52.7097 104.033 50.2913 105.94 45.6385 105.578L32.9118 89.3826Z" fill="#AD6359"/>
<path d="M50.615 83.2275C52.7795 84.2958 57.3243 86.6421 60.3838 89.8532C63.7734 93.4267 69.3465 101.222 66.6932 103.702C64.7446 105.521 62.3515 102.736 62.3515 102.736C62.3515 102.736 63.9828 106.443 61.8628 107.702C59.9585 108.846 58.213 106.576 58.213 106.576C58.213 106.576 58.8097 108.999 56.7404 109.756C54.2458 110.652 53.3952 105.432 50.0882 104.16C49.3455 103.861 50.615 83.2275 50.615 83.2275Z" fill="#AD6359"/>
<path d="M56.0104 92.8162C59.0727 95.3668 61.2868 98.7914 62.3579 102.634C62.3579 102.736 62.3198 102.806 62.2817 102.717C60.5735 99.1812 58.442 95.8673 55.9342 92.848C55.9342 92.848 55.9913 92.8035 56.0104 92.8162Z" fill="#263238"/>
<path d="M52.5192 96.3515C54.0109 97.6741 57.4005 102.074 58.2891 106.525C58.2891 106.627 58.2447 106.691 58.2066 106.608C56.6946 102.992 54.7781 99.5599 52.4939 96.3769C52.4939 96.3769 52.5192 96.3388 52.5192 96.3515Z" fill="#263238"/>
<path d="M61.4629 91.0295C63.4878 91.5763 64.8144 92.5365 66.5409 93.6747C67.3803 94.245 68.2513 94.7673 69.1497 95.2389C69.9813 95.6649 71.2 96.3071 72.0505 95.5949C72.2496 95.375 72.3859 95.1055 72.4451 94.8146C72.5043 94.5237 72.4842 94.2222 72.3869 93.9417C72.1243 93.1305 71.7343 92.3664 71.2317 91.6781C71.2317 91.6781 71.2317 91.6208 71.2761 91.6463C71.7695 92.2689 72.1951 92.9424 72.5456 93.6556C72.7737 94.1432 72.849 94.6885 72.7615 95.2198C72.4949 96.3325 71.1936 96.4915 70.2605 96.2245C69.7065 96.0344 69.1728 95.7894 68.6673 95.4932C68.1722 95.2261 67.6961 94.9337 67.2201 94.6284C66.2552 93.9926 65.3158 93.3567 64.3637 92.7209C63.4307 92.1216 62.4596 91.5843 61.4566 91.1121C61.4058 91.0804 61.4058 91.0168 61.4629 91.0295Z" fill="#263238"/>
<path d="M65.849 98.0112C64.5375 95.6059 63.068 93.2905 61.4502 91.0803C61.4502 91.0485 61.4502 91.0167 61.4946 91.0358C63.0879 92.4919 65.6903 96.377 66.2997 97.6296C67.0267 98.9272 67.4824 100.359 67.639 101.839C67.6898 103.937 66.306 104.382 65.7919 104.478C65.1845 104.604 64.5524 104.516 64.0019 104.23C63.3579 103.85 62.7967 103.344 62.3515 102.742C62.3515 102.71 62.3515 102.672 62.396 102.697C63.1386 103.511 64.3637 104.3 65.4999 104.128C66.0019 104.059 66.4572 103.797 66.7694 103.397C67.0678 102.885 67.1714 102.282 67.0614 101.699C66.8715 100.409 66.4614 99.1617 65.849 98.0112Z" fill="#263238"/>
<path d="M35.3365 86.9726L44.4833 109.374C44.4833 109.374 3.47844 116.235 0.37451 108.98C-2.72942 101.725 14.5295 74.9485 22.0639 67.2928C30.7981 58.4226 31.6677 61.6527 29.4016 69.8362C27.0277 78.3885 22.6733 90.7051 22.6733 90.7051L35.3365 86.9726Z" fill="#7CC683"/>
<path d="M10.0417 95.8301C11.9961 94.6247 14.0347 93.5622 16.1417 92.6508C18.2245 91.7688 20.3694 91.0419 22.559 90.4761C23.8285 90.1391 25.098 89.8403 26.3294 89.5796C26.3675 89.5796 26.3802 89.6305 26.3294 89.6368C24.1275 90.217 21.9614 90.9262 19.8423 91.7606C17.7265 92.5618 15.6318 93.4096 13.5583 94.304C12.384 94.8063 11.2287 95.3595 10.0671 95.9C10.0291 95.9382 9.99097 95.8746 10.0417 95.8301Z" fill="#263238"/>
<path d="M35.235 86.9218C35.0255 86.9599 23.746 90.0057 23.3715 90.1583C23.4286 89.993 25.7455 84.2003 26.0882 83.3546C26.1263 83.2719 26.1517 83.1893 26.1898 83.1003C26.412 82.7251 26.6341 82.3563 26.8246 81.9748C27.0911 81.4788 27.3577 80.9892 27.618 80.4932L26.7611 81.9303C26.6278 82.1528 26.5072 82.3817 26.3802 82.6043C26.6087 82.0066 26.8309 81.4089 27.0531 80.8048C27.4085 79.8383 27.7259 78.8654 28.0433 77.8926C28.0433 77.8926 28.0115 77.8481 27.9988 77.8926C27.3133 79.5776 26.577 81.2436 25.8914 82.9286C25.2059 84.6136 22.5717 90.7878 22.5907 90.7878C22.6098 90.7878 35.0318 87.1507 35.2857 87.068C35.381 87.0362 35.3366 86.8963 35.235 86.9218Z" fill="#263238"/>
<path d="M35.1906 101.197C34.1877 98.6979 33.2038 96.1862 32.1057 93.7254C31.4709 92.3266 30.8362 90.9277 30.2014 89.5351C30.2014 89.4779 30.0872 89.5351 30.1062 89.5669C31.0139 92.1104 31.9343 94.6538 32.9562 97.1972C33.9782 99.7407 34.9748 102.189 36.0285 104.675C36.6632 106.08 37.298 107.466 37.9327 108.84C37.9327 108.84 37.9962 108.84 37.9835 108.84C37.2027 106.22 36.2062 103.708 35.1906 101.197Z" fill="#263238"/>
<path d="M44.9848 109.755C44.6166 109.062 44.1596 108.064 43.766 107.384C43.6581 107.206 43.5248 107.237 43.6074 107.422C43.8803 108.058 44.0961 108.751 44.369 109.393L42.6425 109.628C41.976 109.73 41.3159 109.838 40.6494 109.934C39.3799 110.131 38.0469 110.309 36.7394 110.48C34.0988 110.815 31.4498 111.097 28.7923 111.326C23.4685 111.814 18.1232 112.027 12.7775 111.962C11.2795 111.962 9.78784 111.879 8.29618 111.777C6.82529 111.699 5.3593 111.546 3.90372 111.32C3.86563 111.32 3.85294 111.377 3.90372 111.39C5.15298 111.725 6.42628 111.963 7.71222 112.102C9.06424 112.242 10.4099 112.343 11.7683 112.407C14.4596 112.528 17.1573 112.502 19.855 112.407C25.1996 112.216 30.5294 111.792 35.8443 111.135C37.3297 110.951 38.815 110.76 40.2876 110.544C41.0366 110.436 41.7856 110.328 42.5346 110.207C43.2836 110.086 45.0482 109.864 44.9848 109.755Z" fill="#263238"/>
<path d="M55.6105 124.431L55.839 124.495C55.7692 124.488 55.693 124.488 55.6105 124.431Z" fill="#AD6359"/>
<path d="M77.5475 120.126C77.5792 120.292 77.6109 120.451 77.63 120.616C77.63 120.616 77.63 120.552 77.63 120.52C77.5982 120.387 77.5728 120.26 77.5475 120.126Z" fill="#FFC727"/>
<path d="M77.5475 120.126C77.5792 120.292 77.6109 120.451 77.63 120.616C77.63 120.616 77.63 120.552 77.63 120.52C77.5982 120.387 77.5728 120.26 77.5475 120.126Z" fill="#FFC727"/>
<path d="M54.5695 126.828L55.2867 126.993L54.5695 126.828Z" fill="#FFC727"/>
<path d="M77.5475 120.126C77.5792 120.292 77.6109 120.451 77.63 120.616C77.63 120.616 77.63 120.552 77.63 120.52C77.5982 120.387 77.5728 120.26 77.5475 120.126Z" fill="#DBDBDB"/>
</g>
<defs>
<clipPath id="clip0_166_498">
<rect width="142" height="127" fill="white"/>
</clipPath>
</defs>
</svg>
