<svg width="126" height="138" viewBox="0 0 126 138" fill="none" xmlns="http://www.w3.org/2000/svg">
<g clip-path="url(#clip0_166_1461)">
<path d="M133 68C133 101.137 106.137 128 73 128C39.8629 128 85 86.5 13 68C13 34.8629 -23 30.5 73 8C87 72.5 133 34.8629 133 68Z" fill="#EEFFEF"/>
<path d="M14.3582 67.551C13.7961 77.6837 13.3897 88.1473 14.3582 98.2732C15.1371 106.156 18.4625 112.655 26.6846 114.594C34.3039 116.384 45.1674 116.249 51.615 111.216C54.6221 108.858 55.6787 105.542 55.4687 101.826C55.2181 96.652 51.1545 68.3481 49.888 59.5665C49.1565 54.1624 48.4318 48.7583 46.7387 43.5434C43.1965 32.6474 37.7377 32.4447 36.9927 32.2286C36.3154 31.8097 32.2518 30.2628 26.3392 32.134C24.7996 32.6182 23.3793 33.4199 22.1705 34.4871C20.9617 35.5542 19.9914 36.863 19.3226 38.3284C15.0761 47.0763 14.8932 58.0466 14.3582 67.551Z" fill="#263238"/>
<path d="M38.7265 33.9916C45.2283 37.0246 46.7725 44.1242 48.3506 50.4538C50.5449 59.2895 52.5835 68.1656 54.1887 77.1229C54.9675 81.4327 55.6448 85.756 56.2205 90.0995C56.742 94.2606 57.575 98.692 57.277 102.894C56.8165 109.838 50.4433 112.993 44.2734 113.986C44.2114 113.997 44.1473 113.984 44.0953 113.948C44.0432 113.913 44.0074 113.858 43.9957 113.796C43.984 113.735 43.9974 113.671 44.033 113.619C44.0686 113.567 44.1234 113.531 44.1853 113.519C47.7004 112.844 51.2832 111.851 53.9042 109.25C57.2906 105.913 56.8639 101.563 56.4711 97.2261C55.7938 89.8495 54.6966 82.5135 53.3421 75.2383C51.9875 67.963 50.3621 60.7013 48.6012 53.4936C46.9486 46.6304 45.7498 37.5921 38.6926 34.1064C38.6181 34.0726 38.652 33.9646 38.7265 33.9916Z" fill="#263238"/>
<path d="M16.3291 45.7456C17.5617 40.4361 20.325 35.2684 25.9328 33.7283C18.6928 36.0453 16.9318 43.9352 15.9362 50.5282C14.9384 57.4544 14.1934 64.4212 13.7012 71.4285C13.2136 78.1498 12.8682 84.9387 13.024 91.6938C13.1662 98.9758 14.4869 105.792 18.7943 111.79C18.808 111.802 18.819 111.816 18.8266 111.832C18.8342 111.848 18.8382 111.865 18.8384 111.883C18.8385 111.901 18.8347 111.918 18.8273 111.934C18.8199 111.951 18.809 111.965 18.7955 111.976C18.782 111.988 18.7661 111.996 18.7489 112.001C18.7318 112.006 18.7139 112.007 18.6963 112.004C18.6788 112.001 18.6621 111.994 18.6475 111.984C18.6328 111.974 18.6205 111.961 18.6115 111.946C14.3717 107.095 12.963 100.408 12.6244 94.1527C12.1706 85.9115 12.7124 77.5284 13.3558 69.3074C13.9518 61.4782 14.5817 53.3856 16.3291 45.7456Z" fill="#263238"/>
<path d="M30.4502 78.9267C35.3334 93.3083 46.0817 115.404 53.8229 114.594C60.8937 113.878 82.3294 104.697 88.5874 100.03C94.8454 95.3618 78.3741 77.3595 74.3308 79.6022C68.2353 82.9797 54.6289 91.2615 53.105 90.917C51.2019 90.4846 48.4522 86.1411 36.7353 73.6509C31.947 68.5441 28.3642 72.8065 30.4502 78.9267Z" fill="#FFC4C0"/>
<path d="M88.0727 100.226C90.6734 99.2866 102.234 93.95 105.12 91.7411C108.005 89.5322 115.848 82.6015 114.378 80.2237C112.908 77.8459 110.45 79.6968 110.45 79.6968C110.45 79.6968 113.294 76.2449 111.601 73.9887C109.908 71.7325 106.183 74.7318 106.183 74.7318C106.183 74.7318 108.845 70.9759 106.989 68.8481C105.133 66.7202 101.896 70.3612 101.896 70.3612C101.896 70.3612 104.49 67.0377 102.221 65.9231C99.5118 64.5721 95.4076 71.2529 92.0618 73.4483C91.2965 73.9482 75.8073 82.4461 75.8073 82.4461L88.0727 100.226Z" fill="#FFC4C0"/>
<path d="M102.174 70.0572C99.1529 74.9479 96.9856 76.5692 91.8925 79.0685C91.8799 79.071 91.868 79.0761 91.8576 79.0836C91.8472 79.0911 91.8386 79.1007 91.8323 79.1118C91.8261 79.123 91.8223 79.1354 91.8214 79.1481C91.8204 79.1608 91.8222 79.1737 91.8267 79.1856C91.8312 79.1976 91.8383 79.2084 91.8474 79.2174C91.8565 79.2263 91.8675 79.2332 91.8796 79.2375C91.8917 79.2418 91.9045 79.2434 91.9173 79.2422C91.93 79.241 91.9424 79.2371 91.9535 79.2307C97.1617 77.2447 100.176 75.6032 102.417 70.1856C102.526 69.9221 102.316 69.8208 102.174 70.0572Z" fill="#263238"/>
<path d="M106.406 74.34C102.824 79.1564 100.487 80.9329 95.3466 83.939C95.2721 83.9795 95.3466 84.1078 95.4143 84.0673C100.704 81.5477 103.677 79.8386 106.623 74.5629C106.759 74.3197 106.569 74.1238 106.406 74.34Z" fill="#263238"/>
<path d="M110.186 79.8318C106.379 84.2362 103.901 86.3032 98.5366 88.6135C98.5105 88.6224 98.4891 88.6413 98.477 88.666C98.465 88.6908 98.4632 88.7192 98.4722 88.7452C98.4812 88.7712 98.5002 88.7925 98.5249 88.8046C98.5497 88.8166 98.5782 88.8183 98.6043 88.8094C104.307 87.0193 107.409 84.4726 110.308 79.994C110.504 79.6697 110.423 79.5684 110.186 79.8318Z" fill="#263238"/>
<path d="M72.5631 83.7836C72.5631 83.7836 75.7869 77.3392 77.8323 74.8195C79.8777 72.2999 90.9511 65.7001 92.5156 68.0104C94.5474 70.9826 88.8922 76.049 85.8038 78.143C85.8038 78.143 90.4838 85.0197 87.2261 89.5321C83.9684 94.0445 72.5631 83.7836 72.5631 83.7836Z" fill="#FFC4C0"/>
<path d="M92.8 69.0236C92.6781 73.0767 88.4452 75.5828 85.6006 77.866C85.5573 77.8973 85.522 77.9385 85.4976 77.986C85.4733 78.0336 85.4606 78.0862 85.4606 78.1396C85.4606 78.193 85.4733 78.2457 85.4976 78.2932C85.522 78.3408 85.5573 78.3819 85.6006 78.4132C87.3751 81.426 88.987 86.1883 87.436 89.5389C87.4317 89.5576 87.4335 89.5772 87.4414 89.5947C87.4493 89.6123 87.4627 89.6267 87.4796 89.6359C87.4965 89.6451 87.516 89.6486 87.535 89.6457C87.5541 89.6428 87.5716 89.6337 87.585 89.6199C89.732 86.2424 88.5332 81.4462 86.3795 78.2646C89.3324 75.9746 93.4705 73.2591 92.8271 69.0168L92.8 69.0236Z" fill="#263238"/>
<path d="M71.5607 80.5072L86.3727 103.339C86.3727 103.339 59.4375 116.85 52.8138 115.323C46.1901 113.796 34.8999 96.2263 29.4817 80.3924C24.0635 64.5584 34.568 69.9085 38.862 74.5762C43.1559 79.244 52.5361 90.0792 52.9831 89.8833C53.4301 89.6874 71.5607 80.5072 71.5607 80.5072Z" fill="#455A64"/>
<path opacity="0.1" d="M73.5926 109.25C65.6752 112.661 56.3492 116.12 52.8206 115.33C46.1969 113.837 34.8661 96.2398 29.4614 80.4059C26.8065 72.6375 27.985 69.9625 30.3825 69.8274L73.5926 109.25Z" fill="black"/>
<path d="M78.4486 100.833C77.9881 100.043 77.514 99.2594 77.0467 98.4758C76.0985 96.9154 70.4297 87.6204 68.1947 84.8035C68.1337 84.7292 68.0186 84.8035 68.0592 84.8981C69.6305 88.1473 75.5092 97.2667 76.4845 98.7731C76.9857 99.5364 77.4869 100.306 77.9948 101.07C78.5028 101.833 79.1056 102.542 79.6203 103.312C79.6677 103.387 79.7896 103.312 79.7422 103.245C79.2817 102.461 78.9227 101.624 78.4486 100.833Z" fill="#263238"/>
<path d="M48.1813 107.865L50.9919 125.483C50.9919 125.483 50.4433 125.55 43.9822 125.733L42.0316 120.673L39.4715 125.935L0 126.138L3.75887 113.979C7.76155 102.786 11.2698 82.9729 18.8011 74.5155C24.7814 67.801 31.9605 68.1657 36.6066 72.6984C37.7851 73.8468 49.6916 90.4778 51.2832 97.3883C52.421 102.34 48.1813 107.865 48.1813 107.865Z" fill="#455A64"/>
<path d="M34.0465 105.373C36.3784 105.389 38.7041 105.616 40.9954 106.048C42.14 106.271 43.271 106.562 44.3817 106.886C44.9439 107.041 45.5128 107.183 46.0817 107.311C46.6659 107.472 47.2705 107.547 47.8765 107.534C47.9307 107.534 47.9374 107.622 47.8765 107.629C47.3171 107.724 46.7507 107.771 46.1833 107.771C45.6302 107.747 45.0798 107.679 44.5375 107.568C43.3726 107.352 42.2145 107.068 41.0563 106.832C38.7062 106.366 36.3628 105.893 34.0059 105.629C33.9314 105.589 33.9314 105.366 34.0465 105.373Z" fill="#263238"/>
<path d="M28.6419 108.413C30.5025 107.99 32.3896 107.695 34.2904 107.528C35.2453 107.447 36.1935 107.426 37.1552 107.44C37.609 107.44 38.0696 107.44 38.5098 107.48C38.95 107.521 39.5189 107.616 40.0269 107.629C40.0743 107.629 40.0878 107.73 40.0269 107.73C39.5528 107.73 39.0787 107.832 38.6046 107.865L37.1823 107.967C36.2341 108.034 35.286 108.122 34.331 108.176C32.4279 108.298 30.5383 108.44 28.6419 108.636C28.5539 108.615 28.5471 108.44 28.6419 108.413Z" fill="#263238"/>
<path d="M23.7791 70.5976C25.1336 74.752 29.0009 82.8041 31.7574 86.614C34.5168 90.2371 37.672 93.5427 41.1647 96.4697C41.9442 94.025 42.3706 91.4821 42.4312 88.9175C42.4312 84.8644 39.7221 80.325 37.6903 74.09C37.1349 73.3605 36.7421 72.8741 36.5728 72.7052C34.9532 71.025 32.8325 69.912 30.5269 69.5322C28.2213 69.1524 25.8543 69.5261 23.7791 70.5976Z" fill="#EBEBEB"/>
<path d="M41.1647 96.4695C42.3703 99.8876 43.2304 104.292 41.9639 107.561C42.0316 111.932 42.0722 116.302 42.0316 120.673C41.8352 116.302 41.7268 111.939 41.6388 107.568C42.885 104.008 42.0993 100.036 41.1647 96.4695Z" fill="#263238"/>
<path d="M38.652 100.306C38.6718 100.538 38.7828 100.751 38.9606 100.901C39.1384 101.05 39.3685 101.123 39.6002 101.104C39.8319 101.084 40.0463 100.973 40.1962 100.796C40.346 100.618 40.4191 100.389 40.3994 100.158C40.3896 100.043 40.3573 99.932 40.3044 99.83C40.2514 99.728 40.1788 99.6374 40.0908 99.5634C40.0027 99.4894 39.9009 99.4334 39.7912 99.3986C39.6815 99.3638 39.5659 99.351 39.4512 99.3607C39.3365 99.3705 39.2248 99.4027 39.1225 99.4555C39.0203 99.5083 38.9294 99.5807 38.8552 99.6685C38.7053 99.8458 38.6322 100.075 38.652 100.306ZM38.652 100.306C38.6499 100.043 38.7478 99.7877 38.9261 99.5927C39.1044 99.3978 39.3498 99.2771 39.6134 99.2549C39.8771 99.2327 40.1393 99.3106 40.3479 99.473C40.5564 99.6354 40.6957 99.8703 40.738 100.131C40.7401 100.395 40.6422 100.65 40.4639 100.845C40.2857 101.039 40.0402 101.16 39.7766 101.182C39.513 101.205 39.2507 101.127 39.0422 100.964C38.8337 100.802 38.6943 100.567 38.652 100.306Z" fill="#263238"/>
<path d="M38.652 107.724C38.6709 107.955 38.781 108.169 38.9582 108.319C39.1354 108.469 39.3651 108.543 39.5968 108.524C39.8285 108.505 40.0432 108.395 40.1938 108.219C40.3443 108.042 40.4182 107.813 40.3994 107.582C40.3805 107.351 40.2704 107.136 40.0932 106.986C39.916 106.836 39.6863 106.762 39.4546 106.781C39.2229 106.8 39.0081 106.91 38.8576 107.087C38.7071 107.263 38.6331 107.492 38.652 107.724ZM38.652 107.724C38.6517 107.46 38.7508 107.207 38.9296 107.013C39.1084 106.819 39.3538 106.7 39.6168 106.679C39.8799 106.657 40.1414 106.736 40.3491 106.898C40.5569 107.06 40.6957 107.295 40.738 107.555C40.7383 107.818 40.6392 108.072 40.4604 108.265C40.2816 108.459 40.0362 108.578 39.7732 108.6C39.5101 108.621 39.2486 108.543 39.0409 108.38C38.8331 108.218 38.6943 107.983 38.652 107.724Z" fill="#263238"/>
<path d="M38.652 115.148C38.6718 115.379 38.7828 115.592 38.9606 115.742C39.1384 115.891 39.3685 115.964 39.6002 115.945C39.8319 115.925 40.0463 115.814 40.1962 115.637C40.346 115.459 40.4191 115.23 40.3994 114.999C40.3896 114.884 40.3573 114.773 40.3044 114.671C40.2514 114.569 40.1788 114.478 40.0908 114.404C40.0027 114.33 39.9009 114.274 39.7912 114.24C39.6815 114.205 39.5659 114.192 39.4512 114.202C39.3365 114.212 39.2248 114.244 39.1225 114.297C39.0203 114.349 38.9294 114.422 38.8552 114.51C38.7053 114.687 38.6322 114.916 38.652 115.148ZM38.652 115.148C38.6499 114.884 38.7478 114.629 38.9261 114.434C39.1044 114.239 39.3498 114.118 39.6134 114.096C39.8771 114.074 40.1393 114.152 40.3479 114.314C40.5564 114.476 40.6957 114.711 40.738 114.972C40.7401 115.236 40.6422 115.491 40.4639 115.686C40.2857 115.881 40.0402 116.001 39.7766 116.023C39.513 116.046 39.2507 115.968 39.0422 115.805C38.8337 115.643 38.6943 115.408 38.652 115.148Z" fill="#263238"/>
<path d="M38.652 122.571C38.6718 122.802 38.7828 123.016 38.9606 123.166C39.1384 123.315 39.3685 123.388 39.6002 123.368C39.8319 123.349 40.0463 123.238 40.1962 123.061C40.346 122.883 40.4191 122.654 40.3994 122.423C40.3896 122.308 40.3573 122.197 40.3044 122.095C40.2514 121.993 40.1788 121.902 40.0908 121.828C40.0027 121.754 39.9009 121.698 39.7912 121.663C39.6815 121.629 39.5659 121.616 39.4512 121.626C39.3365 121.635 39.2248 121.668 39.1225 121.72C39.0203 121.773 38.9294 121.846 38.8552 121.933C38.781 122.021 38.7249 122.123 38.69 122.232C38.6551 122.342 38.6422 122.457 38.652 122.571ZM38.652 122.571C38.6499 122.307 38.7478 122.053 38.9261 121.858C39.1043 121.663 39.3498 121.542 39.6134 121.52C39.8771 121.498 40.1393 121.576 40.3479 121.738C40.5564 121.9 40.6957 122.135 40.738 122.396C40.7401 122.66 40.6422 122.914 40.4639 123.109C40.2857 123.304 40.0402 123.425 39.7766 123.447C39.513 123.469 39.2507 123.391 39.0422 123.229C38.8337 123.067 38.6943 122.832 38.652 122.571Z" fill="#263238"/>
<path d="M25.6145 71.5906C25.6754 72.5769 29.1499 79.5414 33.5454 80.0953C34.9812 80.271 36.2951 72.5228 36.2951 72.5228L36.5254 71.9689L39.7153 64.2681L31.3307 56.5943L30.1048 55.5608C30.1048 55.5608 29.3734 57.7224 28.4861 60.4312C28.4455 60.5528 28.3981 60.6812 28.3574 60.8095C28.3168 60.9378 28.2491 61.1067 28.2084 61.2486C28.0662 61.6539 27.9308 62.0659 27.8021 62.478C27.7005 62.7887 27.5989 63.0927 27.5109 63.4305L27.2129 64.4167C26.5155 66.7686 25.9815 69.1656 25.6145 71.5906Z" fill="#FFC4C0"/>
<path d="M28.4861 60.4312C28.9061 62.8211 29.8427 65.0912 31.231 67.0837C32.6193 69.0761 34.426 70.7431 36.5254 71.9689L39.7153 64.2681L31.3307 56.5943L30.1048 55.5608C30.1048 55.5608 29.3734 57.7224 28.4861 60.4312Z" fill="#263238"/>
<path d="M50.274 47.8193C54.4799 61.8294 46.5422 65.9298 43.5013 66.8282C40.7516 67.6523 31.3104 70.0909 25.6416 56.5875C19.9728 43.084 25.2014 36.7072 31.3916 34.4983C37.5819 32.2894 46.0614 33.8092 50.274 47.8193Z" fill="#FFC4C0"/>
<path d="M47.2127 45.597C46.8673 45.6307 46.5355 45.597 46.2036 45.597C45.8467 45.652 45.4816 45.5853 45.1674 45.4078C45.0775 45.3365 45.0145 45.2369 44.9886 45.1252C44.9628 45.0136 44.9757 44.8965 45.0251 44.7931C45.1519 44.6008 45.3282 44.446 45.5355 44.345C45.7429 44.244 45.9736 44.2005 46.2036 44.2189C46.6752 44.1821 47.1436 44.3218 47.5175 44.6107C47.6018 44.6817 47.6633 44.7758 47.6944 44.8813C47.7255 44.9869 47.7247 45.0993 47.6922 45.2044C47.6597 45.3095 47.597 45.4028 47.5117 45.4726C47.4264 45.5424 47.3225 45.5857 47.2127 45.597Z" fill="#263238"/>
<path d="M38.205 50.0214C38.5348 49.9411 38.8603 49.8441 39.1803 49.7309C39.5336 49.6759 39.8593 49.5075 40.1082 49.2513C40.171 49.1545 40.1998 49.0395 40.19 48.9246C40.1802 48.8096 40.1323 48.7012 40.054 48.6164C39.8756 48.4713 39.6615 48.3766 39.434 48.3422C39.2065 48.3077 38.9739 48.3348 38.7604 48.4205C38.3019 48.5272 37.8991 48.799 37.6293 49.1838C37.572 49.2752 37.5427 49.3813 37.545 49.4891C37.5473 49.5969 37.581 49.7017 37.6422 49.7906C37.7033 49.8796 37.7891 49.9488 37.8891 49.9898C37.9891 50.0308 38.0989 50.0418 38.205 50.0214Z" fill="#263238"/>
<path d="M40.4807 51.1563C40.4807 51.1225 40.4129 51.2171 40.4265 51.2577C40.6974 52.2169 40.8464 53.3585 40.054 53.8989C40.054 53.8989 40.054 53.9665 40.054 53.9529C41.1037 53.5341 40.887 52.021 40.4807 51.1563Z" fill="#263238"/>
<path d="M39.3631 50.3592C37.7716 50.6295 38.4285 53.7773 39.905 53.5274C41.3814 53.2775 40.6906 50.1093 39.3631 50.3592Z" fill="#263238"/>
<path d="M38.7739 50.6565C38.5369 50.893 38.3337 51.2645 38.0086 51.3658C37.6835 51.4671 37.2704 51.2104 36.952 50.947C36.952 50.947 36.8979 50.947 36.9046 50.9943C37.0265 51.6022 37.3855 52.1697 38.056 52.1291C38.7265 52.0886 38.9771 51.4536 38.9974 50.8254C39.0042 50.7106 38.8687 50.562 38.7739 50.6565Z" fill="#263238"/>
<path d="M46.1291 49.5757C46.1291 49.5352 46.2172 49.5757 46.2239 49.6433C46.3865 50.6295 46.7387 51.7239 47.6936 51.8725C47.6936 51.8725 47.7275 51.9265 47.6936 51.9265C46.5829 51.9941 46.1291 50.5282 46.1291 49.5757Z" fill="#263238"/>
<path d="M46.7996 48.3799C48.3506 47.9476 49.1024 51.082 47.6665 51.4738C46.2307 51.8656 45.4993 48.7582 46.7996 48.3799Z" fill="#263238"/>
<path d="M47.504 48.4273C47.7884 48.5354 48.1068 48.7718 48.4048 48.7246C48.7028 48.6773 48.9263 48.2652 49.082 47.8869C49.082 47.8464 49.1294 47.8869 49.1362 47.8869C49.2988 48.4814 49.2514 49.1501 48.7028 49.4068C48.1542 49.6635 47.6936 49.2177 47.4092 48.657C47.3414 48.5759 47.3889 48.3868 47.504 48.4273Z" fill="#263238"/>
<path d="M41.93 58.668C42.1942 58.8706 42.4718 59.1611 42.8376 59.1476C43.2038 59.0959 43.5547 58.967 43.867 58.7693C43.8739 58.7666 43.8815 58.7659 43.8888 58.7672C43.8961 58.7684 43.9029 58.7717 43.9085 58.7766C43.914 58.7815 43.9182 58.7877 43.9204 58.7948C43.9227 58.8018 43.9229 58.8094 43.9212 58.8166C43.8007 59.0248 43.6267 59.1971 43.4172 59.3158C43.2077 59.4346 42.9702 59.4954 42.7292 59.4921C42.5209 59.4645 42.3255 59.376 42.1676 59.2378C42.0097 59.0995 41.8964 58.9177 41.842 58.7152C41.8149 58.6679 41.8894 58.6409 41.93 58.668Z" fill="#263238"/>
<path d="M45.3909 54.3852C45.6249 55.0796 45.8238 55.7852 45.9869 56.4995C45.9869 56.5671 45.8379 56.6279 45.6076 56.6819C45.0306 56.8954 44.4056 56.9452 43.8018 56.826C43.1981 56.7067 42.6393 56.4231 42.1874 56.0064C42.1264 55.9456 42.1874 55.8646 42.2754 55.8916C43.2654 56.335 44.3727 56.4464 45.4315 56.2091C45.4315 56.0064 44.5511 53.7908 44.6594 53.7637C45.2043 53.7129 45.7537 53.7379 46.2917 53.838C45.4044 50.832 44.0363 48.0016 43.1965 45.0024C43.1937 44.9809 43.1979 44.9592 43.2083 44.9403C43.2188 44.9214 43.235 44.9063 43.2547 44.8973C43.2743 44.8882 43.2964 44.8857 43.3176 44.89C43.3388 44.8943 43.3581 44.9053 43.3726 44.9213C45.0116 47.7922 46.0817 51.2238 47.1112 54.2974C47.2127 54.7162 45.6889 54.4527 45.3909 54.3852Z" fill="#263238"/>
<path d="M45.4586 56.4456C45.1526 57.081 44.6857 57.6258 44.1041 58.0263C43.786 58.2378 43.4092 58.3442 43.0272 58.3303C42.1942 58.2897 42.0181 57.5737 42.0316 56.9252C42.0398 56.5782 42.0899 56.2335 42.1806 55.8984C43.1855 56.4288 44.3354 56.6207 45.4586 56.4456Z" fill="#263238"/>
<path d="M44.1244 58.0262C43.8063 58.2377 43.4296 58.344 43.0475 58.3302C42.2145 58.2896 42.0384 57.5736 42.0519 56.9251C42.4713 56.8485 42.9042 56.9157 43.2804 57.1156C43.6567 57.3155 43.9541 57.6364 44.1244 58.0262Z" fill="#FF9CBD"/>
<path d="M25.181 56.1215C27.6395 55.885 27.3077 50.7174 27.3077 50.7174C27.3077 50.7174 32.2518 49.873 32.6378 42.5032C32.8844 44.653 32.4935 46.8278 31.5135 48.7584C31.5135 48.7584 40.0607 46.3198 42.4583 38.4096C42.4583 38.4096 41.6388 42.3681 40.501 43.9217C40.501 43.9217 43.9754 42.2735 45.2419 39.004C45.2419 39.004 47.4972 42.9355 48.8788 43.888C48.8788 43.888 45.8514 28.7498 32.0215 32.8231C32.0215 32.8231 23.2779 34.951 21.3274 42.4829C19.3768 50.0148 25.181 56.1215 25.181 56.1215Z" fill="#263238"/>
<path d="M27.5244 56.2566C27.5244 56.2566 23.4608 52.4332 21.6592 53.9733C19.8577 55.5135 23.5623 61.4985 26.136 61.8903C26.4621 61.964 26.7997 61.9709 27.1286 61.9107C27.4574 61.8505 27.7706 61.7244 28.0491 61.54C28.3277 61.3556 28.5659 61.1168 28.7493 60.838C28.9326 60.5592 29.0574 60.2461 29.116 59.9178L27.5244 56.2566Z" fill="#FFC4C0"/>
<path d="M22.7632 55.6621C22.7542 55.6621 22.7456 55.6656 22.7392 55.6719C22.7329 55.6783 22.7293 55.6869 22.7293 55.6958C22.7293 55.7048 22.7329 55.7134 22.7392 55.7197C22.7456 55.726 22.7542 55.7296 22.7632 55.7296C24.5783 56.0606 25.7838 57.4251 26.732 58.8978C26.6009 58.7492 26.4388 58.6311 26.2569 58.5519C26.0751 58.4728 25.878 58.4344 25.6797 58.4396C25.4814 58.4447 25.2866 58.4933 25.1091 58.5818C24.9317 58.6703 24.7759 58.7966 24.6528 58.9518C24.6121 58.9923 24.6528 59.0531 24.7137 59.0328C24.9883 58.8772 25.3046 58.8105 25.6188 58.842C25.9331 58.8734 26.2298 59.0015 26.4679 59.2085C26.862 59.5577 27.2184 59.9471 27.5312 60.3704C27.6395 60.5055 27.8969 60.3704 27.8021 60.2082V60.1745C27.3822 58.0398 25.0998 55.3986 22.7632 55.6621Z" fill="#263238"/>
<path d="M17.7446 86.6678C20.5078 102.88 34.1481 133.163 43.0272 136.014C53.3082 139.31 89.0073 127.908 96.0103 122.814C98.8007 120.788 83.9413 102.84 80.4737 104.116C65.9326 109.446 53.0508 112.182 51.1545 110.905C48.2828 108.953 36.5592 92.2003 28.9331 81.8042C19.3768 68.7533 16.5052 79.3993 17.7446 86.6678Z" fill="#FFC4C0"/>
<path d="M95.0892 123.301C96.6808 122.733 107.619 114.823 110.843 111.108C114.333 107.257 117.172 102.865 119.248 98.1043C122.485 90.5723 123.013 88.4715 123.311 85.8978C123.514 84.0402 119.769 81.2638 114.507 91.7545C110.816 99.1851 106.149 99.6242 102.614 99.5634C93.9138 99.3973 85.3011 101.318 77.5004 105.163C77.5004 105.163 88.987 125.476 95.0892 123.301Z" fill="#FFC4C0"/>
<path d="M104.381 99.5026C100.724 99.5567 112.604 92.1666 112.78 88.019C112.956 83.8713 108.912 85.1751 105.716 87.5191C94.6287 95.6252 86.2644 95.2469 80.6565 103.009C75.0487 110.77 104.381 99.5026 104.381 99.5026Z" fill="#FFC4C0"/>
<path d="M80.0944 103.941C83.1353 98.2191 89.522 95.8346 95.0554 93.2203C96.4709 92.5448 97.8999 91.9504 99.2612 91.2276C102.607 89.3429 105.675 86.6882 109.42 85.4993C110.163 85.2089 110.988 85.2089 111.73 85.4993C110.984 85.2797 110.183 85.3348 109.475 85.6546C105.831 87.1002 102.952 89.8158 99.566 91.7342C98.2115 92.4908 96.7621 93.1325 95.3534 93.7945C89.7862 96.3682 83.5824 98.5231 80.1079 103.927L80.0944 103.941Z" fill="#263238"/>
<path d="M51.9604 109.919C54.7982 110.682 74.5882 105.272 74.5882 105.272L85.6954 132.089C85.6954 132.089 51.2358 140.094 43.1965 137.311C35.1573 134.528 22.6277 107.278 18.5776 91.4371C14.7713 76.5759 19.8441 66.8282 30.5044 82.2569C30.518 82.2569 50.4772 109.514 51.9604 109.919Z" fill="#455A64"/>
<path d="M42.7834 136.487C36.0106 133.048 27.7276 115.026 26.1292 111.493C25.1065 109.23 24.1719 106.926 23.2508 104.623C21.4154 100.002 19.7222 95.3279 18.1171 90.6263C18.1126 90.6128 18.104 90.601 18.0924 90.5927C18.0809 90.5843 18.067 90.5798 18.0527 90.5798C18.0385 90.5798 18.0246 90.5843 18.013 90.5927C18.0015 90.601 17.9928 90.6128 17.9884 90.6263C18.8914 94.2605 19.9525 97.8498 21.1716 101.394C20.3632 100.072 19.6306 98.7051 18.9772 97.3003C18.9683 97.2871 18.9551 97.2775 18.9397 97.2731C18.9244 97.2687 18.9081 97.2699 18.8935 97.2763C18.879 97.2828 18.8671 97.2941 18.8602 97.3084C18.8532 97.3227 18.8514 97.339 18.8553 97.3544C19.519 99.0256 20.3783 100.613 21.4154 102.083C22.6796 105.641 24.1087 109.126 25.7025 112.54C26.1631 113.526 35.7736 135.595 43.3117 137.649C45.9327 138.358 54.893 137.716 56.7962 137.284C56.8775 137.284 56.8978 137.162 56.7962 137.162C54.2158 137.135 45.1877 137.716 42.7834 136.487Z" fill="#263238"/>
<path d="M78.2454 128.847C77.9136 127.921 77.5682 126.996 77.2295 126.071C76.5523 124.226 72.3938 113.236 70.5922 109.858C70.5448 109.77 70.4094 109.858 70.4297 109.933C71.4456 113.688 75.8479 124.51 76.5726 126.3C76.9518 127.212 77.3311 128.124 77.7172 129.002C78.1032 129.88 78.5976 130.786 78.9837 131.704C79.0243 131.792 79.1665 131.752 79.1327 131.657C78.8211 130.732 78.5976 129.772 78.2454 128.847Z" fill="#263238"/>
<path d="M74.5949 105.319C72.9559 105.386 58.1439 108.825 54.8727 109.554C54.0946 109.814 53.2745 109.927 52.4548 109.885C51.6015 109.757 51.0461 109.047 50.5178 108.44C49.4545 107.23 37.8731 91.9571 37.0333 91.2072C36.715 90.9235 36.4644 90.8695 36.7624 91.3491C37.2771 92.18 48.5402 107.257 49.5629 108.44C50.5856 109.622 51.4051 110.702 53.0034 110.635C53.6807 110.635 73.6806 106.143 74.6762 105.731C74.8591 105.643 74.8591 105.305 74.5949 105.319Z" fill="#263238"/>
<g opacity="0.3">
<path d="M116.701 39.9768C115.306 57.3914 100.758 62.6402 100.758 62.6402C99.6879 65.2882 98.2927 72.023 98.2927 72.023H78.8753C78.8753 72.023 77.4869 65.2679 76.4168 62.6402C76.4168 62.6402 61.869 57.3914 60.4738 39.9768C59.5053 27.8716 68.1405 9.98414 88.479 9.98414H88.689C109.028 9.97063 117.67 27.8581 116.701 39.9768Z" fill="#FFC727"/>
</g>
<g opacity="0.8">
<path d="M114.303 40.0509C113.023 55.9794 99.7218 60.7755 99.7218 60.7755C98.7397 63.2006 97.4665 72.0093 97.4665 72.0093H79.7083C79.7083 72.0093 78.4351 63.2276 77.453 60.7755C77.453 60.7755 64.1514 55.9794 62.8713 40.0509C61.9841 28.9793 69.8879 12.6184 88.4926 12.6184H88.6822C107.287 12.6184 115.184 28.9793 114.303 40.0509Z" fill="#FFC727"/>
</g>
<path d="M79.1671 42.9595L77.1699 43.3315L82.8801 73.8236L84.8774 73.4515L79.1671 42.9595Z" fill="#A6A6A6"/>
<path d="M98.0104 42.9644L92.3214 73.4604L94.319 73.8311L100.008 43.3351L98.0104 42.9644Z" fill="#A6A6A6"/>
<path d="M88.5874 53.3923C86.7859 53.3923 85.201 51.7981 84.1242 49.7918C83.9237 50.035 83.6755 50.2347 83.3948 50.3788C83.1141 50.5228 82.8069 50.6081 82.4919 50.6294C79.5323 50.6294 78.3606 44.6444 78.3132 44.3877L78.9904 44.2594C79.2952 45.8468 80.5075 49.9539 82.5055 49.9539C82.7665 49.9206 83.0175 49.8323 83.2416 49.6949C83.4658 49.5575 83.6582 49.3741 83.8059 49.1568C82.9594 47.474 82.475 45.6333 82.3836 43.7527C82.3836 42.037 83.0609 41.0507 84.1919 41.0507C85.5126 41.0507 86.2779 42.091 86.2779 43.9149C86.2261 45.8022 85.6441 47.6372 84.5983 49.2109C85.6413 51.1699 87.0974 52.71 88.5942 52.71C89.7523 52.71 90.924 51.7846 91.8925 50.1161L92.1025 49.731C90.942 48.2707 90.3266 46.4534 90.3619 44.5904C90.3619 42.4085 91.1949 41.0439 92.5495 41.0439C92.8168 41.0459 93.0785 41.1205 93.3064 41.2598C93.5343 41.399 93.7199 41.5977 93.8431 41.8343C94.7032 43.3204 94.2494 46.8398 92.9152 49.6229C93.4078 50.0817 94.0563 50.3375 94.7303 50.339C96.437 50.339 97.9609 46.1981 98.4079 44.6039L99.0852 44.7795C98.9091 45.4213 97.2768 51.0145 94.7574 51.0145C93.9788 51.0122 93.2267 50.7318 92.6375 50.2241L92.5021 50.4538C91.3642 52.379 90.0165 53.3923 88.5874 53.3923ZM92.5427 41.7262C91.4252 41.7262 91.0324 43.2731 91.0324 44.5971C91.0185 46.1966 91.4908 47.7628 92.3869 49.0893C93.5112 46.5764 93.9379 43.415 93.2267 42.1788C93.1663 42.0473 93.0702 41.9353 92.9493 41.8553C92.8285 41.7754 92.6876 41.7307 92.5427 41.7262ZM84.1851 41.7262C83.2505 41.7262 83.0541 42.8273 83.0541 43.7527C83.1305 45.3934 83.5382 47.0017 84.2529 48.4813C85.087 47.0868 85.553 45.5041 85.6074 43.8811C85.5939 42.9219 85.35 41.733 84.1851 41.733V41.7262Z" fill="#A6A6A6"/>
<path d="M100.751 72.0298H76.4236V85.3846H100.751V72.0298Z" fill="#455A64"/>
<path d="M97.9947 85.3845C96.5589 87.9109 93.816 90.1739 88.5874 90.1739C83.3589 90.1739 80.6091 87.9109 79.1801 85.3845H97.9947Z" fill="#455A64"/>
<path d="M97.9947 85.3844C97.5652 86.1295 97.0341 86.8115 96.4167 87.411L79.6677 86.1275C79.4916 85.8708 79.3291 85.6209 79.1801 85.3574L97.9947 85.3844Z" fill="#37474F"/>
<path d="M101.456 74.5763L75.7057 76.9474V75.7855L101.456 73.4077V74.5763Z" fill="#37474F"/>
<path d="M101.456 78.1025L75.7057 80.4735V79.3116L101.456 76.9338V78.1025Z" fill="#37474F"/>
<path d="M101.456 81.6218L75.7057 83.9996V82.8378L101.456 80.46V81.6218Z" fill="#37474F"/>
<g opacity="0.5">
<path d="M66.6031 35.9237C67.4903 36.0723 68.6349 31.4856 73.5993 26.1693C75.7937 23.8118 84.1377 20.8598 83.5349 18.1308C82.9322 15.4017 75.4957 18.2118 71.7504 22.5351C65.7294 29.4591 65.7836 35.7548 66.6031 35.9237Z" fill="white"/>
<path d="M110.484 36.8492C110.806 36.8257 111.108 36.6814 111.328 36.4452C111.548 36.209 111.671 35.8984 111.671 35.5758C111.671 35.2533 111.548 34.9427 111.328 34.7065C111.108 34.4703 110.806 34.3259 110.484 34.3025C110.161 34.3259 109.859 34.4703 109.639 34.7065C109.419 34.9427 109.297 35.2533 109.297 35.5758C109.297 35.8984 109.419 36.209 109.639 36.4452C109.859 36.6814 110.161 36.8257 110.484 36.8492Z" fill="white"/>
<path d="M102.458 55.9728C103.359 56.6483 107.707 52.6493 109.671 47.8667C111.303 43.9014 111.581 38.8824 110.484 38.5919C109.386 38.3015 108.682 45.1849 107.361 47.7181C105.702 50.92 101.503 55.2432 102.458 55.9728Z" fill="white"/>
</g>
<path d="M88.2691 6.68755C87.765 4.49078 87.7235 2.21359 88.1472 0C88.6546 2.19635 88.6961 4.47425 88.2691 6.68755Z" fill="#A6A6A6"/>
<path d="M72.9559 10.9297C71.4177 9.27941 70.2393 7.32892 69.4951 5.20142C71.0364 6.84935 72.2153 8.80055 72.9559 10.9297Z" fill="#A6A6A6"/>
<path d="M61.8351 22.2783C59.6721 21.6186 57.6718 20.514 55.9631 19.0359C58.1244 19.6964 60.1241 20.7983 61.8351 22.2716V22.2783Z" fill="#A6A6A6"/>
<path d="M57.8798 37.6327C55.6759 38.1409 53.3899 38.1846 51.168 37.7611C53.3724 37.2561 55.6577 37.2124 57.8798 37.6327Z" fill="#A6A6A6"/>
<path d="M62.1534 52.906C60.4983 54.443 58.5399 55.6187 56.4034 56.3579C58.0604 54.8235 60.0183 53.6482 62.1534 52.906Z" fill="#A6A6A6"/>
<path d="M115.34 52.3589C117.501 53.0234 119.5 54.1275 121.212 55.6013C119.049 54.941 117.049 53.8365 115.34 52.3589Z" fill="#A6A6A6"/>
<path d="M119.295 37.0045C121.497 36.4984 123.781 36.457 126 36.883C123.797 37.3857 121.514 37.4271 119.295 37.0045Z" fill="#A6A6A6"/>
<path d="M115.021 21.738C116.678 20.2036 118.636 19.0283 120.771 18.2861C119.116 19.8232 117.158 20.9988 115.021 21.738Z" fill="#A6A6A6"/>
<path d="M103.67 10.6394C104.33 8.48264 105.435 6.48757 106.914 4.78271C106.251 6.93761 105.146 8.93182 103.67 10.6394Z" fill="#A6A6A6"/>
<path d="M47.237 18.0235L44.4128 15.4253C43.9457 14.9956 43.5887 14.5369 43.3422 14.0493C43.0955 13.5616 42.9582 13.0694 42.9306 12.5726C42.9031 12.0758 42.9842 11.5823 43.1745 11.0922C43.3646 10.602 43.6597 10.1396 44.0595 9.70496C44.4258 9.30674 44.8348 9.0094 45.2863 8.81296C45.7379 8.61662 46.203 8.51796 46.6816 8.51718C47.1604 8.51639 47.6389 8.61395 48.1171 8.80986C48.5953 9.00586 49.0446 9.29697 49.4646 9.68329L52.4139 12.3965L47.2373 18.0236L47.237 18.0235ZM47.898 16.2148C47.9475 15.8995 47.9731 15.5721 47.9745 15.2322C47.9762 14.8929 47.9432 14.5565 47.8753 14.2233C47.8073 13.8901 47.6964 13.5708 47.543 13.2656C47.389 12.9604 47.1802 12.6861 46.9158 12.4429C46.7528 12.2929 46.5801 12.1593 46.3974 12.0415C46.215 11.9238 46.0287 11.841 45.8387 11.7932C45.6486 11.7454 45.459 11.7464 45.2695 11.796C45.0801 11.8457 44.9004 11.9627 44.7304 12.1475C44.4705 12.4299 44.3577 12.8125 44.3917 13.2948C44.4257 13.7775 44.6303 14.2946 45.1107 14.8816C45.5782 15.453 47.2845 16.8814 47.2845 16.8814L47.898 16.2148ZM44.2927 11.3007C44.7534 10.9735 44.7996 10.9748 45.0769 10.8805C45.3926 10.7732 45.7283 10.7435 46.0069 10.7767C46.3043 10.8121 46.5777 10.9176 46.8684 11.0445C47.1594 11.1716 47.4352 11.355 47.696 11.5949C47.9855 11.8613 48.2169 12.1493 48.3903 12.4591C48.5631 12.7687 48.6944 13.0784 48.784 13.3882C48.8736 13.6979 48.9289 13.9975 48.9494 14.2874C48.9703 14.5773 48.9715 14.8375 48.9532 15.068L51.0518 12.7867L48.6458 10.5735C48.3163 10.2704 47.9712 10.0263 47.6098 9.84094C47.2486 9.65589 46.8846 9.54661 46.5175 9.51296C46.1503 9.47983 45.7871 9.53485 45.4273 9.67875C45.0679 9.82255 44.7248 10.0719 44.3984 10.4268C44.2319 10.6077 44.0955 10.8033 43.9893 11.0131C43.8831 11.223 43.8052 11.4404 43.7554 11.6654C43.7054 11.8904 43.6645 12.4556 43.69 12.1426C43.7125 11.866 44.0161 11.4973 44.2928 11.3007L44.2927 11.3007Z" fill="#455A64" fill-opacity="0.5"/>
<path d="M43.7458 13.5612C43.2675 13.3654 42.789 13.2676 42.3103 13.2685C41.8318 13.2694 41.3665 13.3679 40.915 13.5644C40.4636 13.7608 40.0546 14.058 39.6882 14.4563C39.2884 14.8909 38.9933 15.3533 38.8033 15.8433C38.6129 16.3336 38.5319 16.827 38.5594 17.3238C38.5872 17.8205 38.7244 18.3128 38.971 18.8005C39.2177 19.2883 39.5745 19.7468 40.0416 20.1765L42.8658 22.7747L43.4636 22.1249L41.9823 20.7747C41.9823 20.7747 41.0348 19.9344 40.7396 19.6332C40.4479 19.3354 39.9064 18.6878 39.7165 18.3167C39.497 17.8874 39.2864 16.9086 39.3841 16.4168C39.4289 16.1908 39.5117 15.9745 39.618 15.7645C39.7241 15.5546 39.8605 15.3593 40.0271 15.1782C40.3534 14.8235 40.6965 14.5741 41.0561 14.4301C41.4156 14.2864 41.779 14.2312 42.146 14.2646C42.5131 14.298 42.8773 14.4072 43.2384 14.5925C43.5995 14.7776 43.9449 15.0217 44.2745 15.3249L46.6804 17.5383L46.6764 17.5426L47.2197 18.0424L47.8356 17.3729L44.9027 14.6748C44.4828 14.2884 44.2242 13.7573 43.7459 13.5612L43.7458 13.5612Z" fill="#455A64" fill-opacity="0.5"/>
<path d="M108 28.3526L111.541 21.9238C112.127 20.8604 112.817 19.9887 113.61 19.3084C114.404 18.6283 115.256 18.1496 116.166 17.872C117.076 17.5945 118.03 17.5208 119.027 17.6511C120.024 17.7813 121.018 18.1191 122.007 18.664C122.913 19.1633 123.652 19.7877 124.222 20.5369C124.792 21.2863 125.187 22.1056 125.407 22.9945C125.626 23.8836 125.662 24.8167 125.516 25.7943C125.369 26.7719 125.033 27.7387 124.506 28.6948L120.808 35.4079L108 28.3522L108 28.3526ZM111.66 28.7575C112.269 28.7058 112.889 28.6045 113.521 28.4525C114.152 28.3005 114.762 28.0862 115.35 27.8084C115.938 27.5309 116.48 27.1797 116.977 26.755C117.474 26.3306 117.889 25.8178 118.22 25.216C118.425 24.8447 118.594 24.4631 118.73 24.0705C118.866 23.6778 118.935 23.2941 118.937 22.9195C118.939 22.5447 118.851 22.1929 118.673 21.8637C118.494 21.5343 118.195 21.254 117.774 21.0225C117.131 20.6683 116.37 20.6327 115.489 20.9156C114.608 21.1985 113.74 21.8138 112.869 22.9729C112.02 24.1018 110.143 27.9216 110.143 27.9216L111.66 28.7576L111.66 28.7575ZM119.148 19.8235C119.966 20.5307 119.985 20.6172 120.286 21.0892C120.629 21.6266 120.837 22.2369 120.902 22.7692C120.972 23.3378 120.901 23.8935 120.797 24.4917C120.693 25.09 120.478 25.6858 120.15 26.2795C119.787 26.9386 119.357 27.4997 118.861 27.9621C118.364 28.4244 117.849 28.8093 117.314 29.1165C116.78 29.4238 116.248 29.6626 115.719 29.8331C115.19 30.0037 114.707 30.1244 114.271 30.1954L119.463 33.0558L122.48 27.5786C122.893 26.8285 123.19 26.0758 123.369 25.3209C123.549 24.5658 123.586 23.8395 123.482 23.1426C123.376 22.4457 123.109 21.7959 122.678 21.1932C122.247 20.5908 121.628 20.067 120.82 19.622C120.408 19.395 119.982 19.2307 119.545 19.129C119.106 19.0274 118.667 18.9815 118.227 18.9911C117.786 19.0008 116.718 19.1818 117.311 19.0867C117.834 19.0028 118.657 19.3988 119.148 19.8235L119.148 19.8235Z" fill="#455A64" fill-opacity="0.44"/>
<path d="M87.5883 18.0265L85.3792 15.3182C85.0138 14.8702 84.7515 14.4105 84.5923 13.9389C84.4332 13.4673 84.3734 13.0059 84.4128 12.5544C84.4522 12.103 84.5894 11.6686 84.8245 11.2514C85.0594 10.8342 85.3853 10.4557 85.8021 10.1158C86.1839 9.80429 86.5912 9.58921 87.0236 9.47069C87.4561 9.3522 87.8882 9.32361 88.3198 9.38492C88.7515 9.44629 89.1702 9.59633 89.5759 9.83488C89.9816 10.0736 90.3487 10.3943 90.6773 10.797L92.9841 13.6251L87.5882 18.0263L87.5883 18.0265ZM88.4186 16.4818C88.5041 16.2039 88.5697 15.9121 88.615 15.606C88.6603 15.3 88.6741 14.9927 88.6561 14.6835C88.6382 14.3744 88.5796 14.0723 88.4805 13.7771C88.3815 13.4821 88.2287 13.2078 88.0219 12.9543C87.8944 12.7979 87.7561 12.655 87.6068 12.5252C87.4575 12.3954 87.3003 12.2967 87.1352 12.229C86.9701 12.1613 86.799 12.1377 86.6219 12.1578C86.4446 12.1781 86.2676 12.2603 86.0905 12.4048C85.8196 12.6258 85.6683 12.956 85.6364 13.3954C85.6046 13.8348 85.722 14.3274 86.0788 14.9187C86.4263 15.4946 87.7793 17.0035 87.7793 17.0035L88.4187 16.4819L88.4186 16.4818ZM85.8055 11.5846C86.2634 11.3492 86.3048 11.3565 86.567 11.3074C86.8654 11.2516 87.1719 11.2684 87.4186 11.3343C87.6821 11.4048 87.9149 11.5351 88.1606 11.6875C88.4064 11.8398 88.6312 12.0409 88.8352 12.291C89.0617 12.5687 89.233 12.8586 89.3488 13.1601C89.4647 13.4617 89.5429 13.758 89.5835 14.0486C89.624 14.3395 89.6349 14.6167 89.616 14.8808C89.5972 15.1448 89.5646 15.3796 89.5183 15.585L91.7058 13.8007L89.8236 11.4933C89.5659 11.1773 89.2861 10.9125 88.9848 10.6987C88.6832 10.485 88.3691 10.3393 88.0426 10.2615C87.7161 10.1839 87.3814 10.1866 87.0386 10.2695C86.6958 10.3526 86.3543 10.5329 86.014 10.8105C85.8403 10.9521 85.6921 11.1107 85.5693 11.286C85.4464 11.4615 85.3479 11.6473 85.2738 11.8435C85.1996 12.0399 85.0895 12.5439 85.153 12.2652C85.2091 12.019 85.5305 11.726 85.8054 11.5846L85.8055 11.5846Z" fill="#455A64" fill-opacity="0.44"/>
</g>
<defs>
<clipPath id="clip0_166_1461">
<rect width="126" height="138" fill="white"/>
</clipPath>
</defs>
</svg>
