<svg width="154" height="113" viewBox="0 0 154 113" fill="none" xmlns="http://www.w3.org/2000/svg">
<g clip-path="url(#clip0_166_1556)">
<path d="M150.612 65C150.612 98.1371 123.749 125 90.6123 125C57.4752 125 102.612 83.5 30.6122 65C30.6122 31.8629 -5.38776 27.5 90.6123 5C104.612 69.5 150.612 31.8629 150.612 65Z" fill="#EEFFEF"/>
<path d="M94.3583 91.5389C94.36 92.8273 94.7621 94.0836 95.5094 95.1356C96.2567 96.1876 97.3125 96.9838 98.5323 97.4149C99.752 97.846 101.076 97.891 102.322 97.5438C103.569 97.1965 104.677 96.4739 105.494 95.4751C105.78 95.1197 106.142 94.8316 106.553 94.6315C106.964 94.4313 107.414 94.3241 107.871 94.3174C108.669 94.3193 109.433 94.6355 109.997 95.1969C110.561 95.7583 110.879 96.5191 110.881 97.313V112.978H126.625C127.02 112.978 127.411 112.901 127.776 112.75C128.14 112.599 128.472 112.379 128.751 112.1C129.029 111.822 129.25 111.492 129.401 111.129C129.551 110.765 129.628 110.376 129.627 109.983C129.627 109.528 129.52 109.08 129.315 108.673C129.112 108.266 128.821 107.907 128.464 107.624C127.464 106.808 126.741 105.704 126.395 104.463C126.05 103.222 126.098 101.905 126.533 100.692C126.969 99.4799 127.77 98.431 128.827 97.6893C129.885 96.9477 131.147 96.5496 132.44 96.5496C133.734 96.5496 134.996 96.9477 136.053 97.6893C137.111 98.431 137.912 99.4799 138.347 100.692C138.783 101.905 138.831 103.222 138.485 104.463C138.14 105.704 137.417 106.808 136.416 107.624C136.058 107.906 135.767 108.264 135.564 108.672C135.362 109.08 135.253 109.528 135.246 109.983C135.248 110.777 135.566 111.537 136.13 112.099C136.694 112.66 137.458 112.976 138.255 112.978H154V70.085H138.255C137.745 70.0813 137.242 70.2079 136.795 70.4527C136.347 70.6976 135.97 71.0524 135.7 71.4834C135.429 71.9145 135.274 72.4073 135.25 72.9149C135.225 73.4226 135.331 73.928 135.559 74.3831C135.767 74.7913 136.059 75.1513 136.416 75.4395C137.419 76.2559 138.144 77.3612 138.491 78.6037C138.838 79.8463 138.791 81.1652 138.355 82.3799C137.92 83.5945 137.118 84.6454 136.059 85.3884C135 86.1315 133.736 86.5303 132.44 86.5303C131.145 86.5303 129.881 86.1315 128.822 85.3884C127.763 84.6454 126.961 83.5945 126.525 82.3799C126.09 81.1652 126.042 79.8463 126.39 78.6037C126.737 77.3612 127.461 76.2559 128.464 75.4395C128.822 75.1558 129.113 74.7963 129.314 74.387C129.515 73.9777 129.622 73.529 129.627 73.0734C129.627 72.2808 129.311 71.5207 128.748 70.9603C128.185 70.3999 127.421 70.085 126.625 70.085H110.881V85.7503C110.883 86.2588 110.755 86.7594 110.508 87.2045C110.261 87.6496 109.904 88.0245 109.47 88.2936C109.037 88.5626 108.542 88.7168 108.031 88.7415C107.521 88.7662 107.013 88.6606 106.556 88.4348C106.145 88.2276 105.784 87.9367 105.494 87.581C104.673 86.5849 103.564 85.8656 102.316 85.5215C101.069 85.1773 99.7457 85.2251 98.5268 85.6583C97.308 86.0915 96.2533 86.889 95.5071 87.9416C94.761 88.9942 94.3597 90.2506 94.3583 91.5389Z" fill="#37474F"/>
<path d="M132.44 86.5246C133.735 86.5231 134.997 86.1237 136.054 85.3809C137.112 84.6382 137.913 83.5884 138.348 82.3751C138.783 81.1618 138.831 79.8443 138.485 78.6029C138.14 77.3614 137.417 76.2565 136.416 75.4395C136.06 75.1562 135.77 74.7978 135.569 74.3899C135.368 73.9821 135.26 73.5349 135.253 73.0806C135.253 72.2855 135.57 71.5228 136.134 70.9599C136.699 70.3969 137.464 70.0797 138.263 70.0778H154V54.4125C154 53.618 153.683 52.8561 153.119 52.2943C152.554 51.7325 151.789 51.4169 150.991 51.4169C150.534 51.4163 150.083 51.5229 149.675 51.7281C149.266 51.934 148.905 52.2223 148.614 52.5746C147.794 53.5715 146.685 54.2918 145.439 54.6367C144.192 54.9816 142.868 54.9343 141.65 54.5013C140.431 54.0682 139.377 53.2706 138.631 52.2178C137.886 51.165 137.486 49.9084 137.486 48.6203C137.486 47.3323 137.886 46.0757 138.631 45.0229C139.377 43.97 140.431 43.1724 141.65 42.7394C142.868 42.3063 144.192 42.259 145.439 42.6039C146.685 42.9489 147.794 43.6691 148.614 44.666C148.899 45.0226 149.26 45.3115 149.671 45.5117C150.082 45.712 150.533 45.8186 150.991 45.8237C151.386 45.8247 151.778 45.7479 152.143 45.5976C152.509 45.4474 152.841 45.2268 153.121 44.9485C153.4 44.6701 153.622 44.3395 153.773 43.9756C153.924 43.6118 154.001 43.2218 154 42.8281V27.1628H110.888V42.8281C110.887 43.2212 110.964 43.6106 111.114 43.974C111.265 44.3374 111.486 44.6676 111.765 44.9459C112.043 45.2242 112.375 45.4449 112.739 45.5956C113.104 45.7462 113.495 45.8237 113.89 45.8237C114.347 45.8244 114.798 45.7178 115.206 45.5126C115.614 45.3061 115.975 45.0179 116.267 44.666C117.087 43.6668 118.197 42.9445 119.445 42.5982C120.694 42.2518 122.019 42.2984 123.24 42.7316C124.461 43.1647 125.517 43.9632 126.264 45.0175C127.011 46.0718 127.412 47.3303 127.412 48.6203C127.412 49.9104 127.011 51.1689 126.264 52.2232C125.517 53.2775 124.461 54.0759 123.24 54.5091C122.019 54.9422 120.694 54.9888 119.445 54.6425C118.197 54.2962 117.087 53.5739 116.267 52.5746C115.982 52.2181 115.621 51.9292 115.21 51.7289C114.798 51.5287 114.348 51.4221 113.89 51.4169C113.495 51.415 113.103 51.4912 112.737 51.6412C112.372 51.7911 112.04 52.0118 111.76 52.2905C111.481 52.5691 111.26 52.9002 111.11 53.2644C110.961 53.6287 110.885 54.0189 110.888 54.4125V70.0778H126.625C127.424 70.0797 128.189 70.3969 128.754 70.9599C129.318 71.5228 129.635 72.2855 129.635 73.0806C129.633 73.5362 129.523 73.9849 129.315 74.3903C129.109 74.7963 128.82 75.154 128.464 75.4395C127.464 76.2565 126.741 77.3614 126.395 78.6029C126.05 79.8443 126.098 81.1618 126.533 82.3751C126.968 83.5884 127.769 84.6382 128.826 85.3809C129.884 86.1237 131.146 86.5231 132.44 86.5246Z" fill="#3CB659"/>
<path d="M84.2762 91.5388C84.2745 92.8272 83.8724 94.0836 83.1251 95.1356C82.3779 96.1875 81.322 96.9837 80.1023 97.4148C78.8825 97.8459 77.5587 97.891 76.3123 97.5437C75.0659 97.1964 73.9579 96.4738 73.1402 95.475C72.8542 95.1196 72.4928 94.8315 72.0819 94.6314C71.671 94.4313 71.2207 94.324 70.7633 94.3173C69.9657 94.3192 69.2014 94.6355 68.6375 95.1968C68.0735 95.7582 67.7558 96.519 67.7539 97.3129V112.978H110.873V97.3346C110.877 96.8264 110.75 96.3258 110.504 95.8804C110.258 95.4351 109.902 95.0599 109.469 94.7906C109.035 94.5214 108.54 94.3672 108.03 94.3426C107.52 94.318 107.013 94.4239 106.556 94.6502C106.149 94.8591 105.788 95.1469 105.494 95.4968C104.674 96.4927 103.565 97.212 102.319 97.5561C101.072 97.9002 99.7492 97.8523 98.5311 97.419C97.3129 96.9856 96.2592 96.188 95.5141 95.1353C94.7691 94.0827 94.3692 92.8265 94.3692 91.5388C94.3692 90.2511 94.7691 88.995 95.5141 87.9423C96.2592 86.8897 97.3129 86.092 98.5311 85.6587C99.7492 85.2253 101.072 85.1774 102.319 85.5215C103.565 85.8656 104.674 86.5849 105.494 87.5809C105.779 87.9384 106.14 88.2284 106.551 88.4299C106.962 88.6314 107.413 88.7393 107.871 88.7458C108.267 88.7458 108.658 88.6681 109.023 88.517C109.389 88.3659 109.72 88.1445 109.999 87.8655C110.278 87.5864 110.499 87.2553 110.649 86.8911C110.799 86.5268 110.875 86.1367 110.873 85.743V70.085H67.7539V85.743C67.753 86.137 67.8301 86.5273 67.9809 86.8916C68.1317 87.2559 68.3532 87.587 68.6328 87.8659C68.9123 88.1448 69.2444 88.3661 69.61 88.5171C69.9755 88.6681 70.3675 88.7458 70.7633 88.7458C71.2221 88.7424 71.6743 88.6361 72.0862 88.4347C72.4929 88.2254 72.8517 87.9347 73.1402 87.5809C73.961 86.5848 75.071 85.8655 76.3181 85.5214C77.5653 85.1772 78.8889 85.225 80.1077 85.6582C81.3266 86.0914 82.3812 86.8889 83.1274 87.9415C83.8735 88.9941 84.2748 90.2505 84.2762 91.5388Z" fill="#3CB659"/>
<path d="M84.2762 91.5388C84.2745 92.8272 83.8724 94.0836 83.1251 95.1356C82.3779 96.1875 81.322 96.9837 80.1023 97.4148C78.8825 97.8459 77.5587 97.891 76.3123 97.5437C75.0659 97.1964 73.9579 96.4738 73.1402 95.475C72.8542 95.1196 72.4928 94.8315 72.0819 94.6314C71.671 94.4313 71.2207 94.324 70.7633 94.3173C69.9657 94.3192 69.2014 94.6355 68.6375 95.1968C68.0735 95.7582 67.7558 96.519 67.7539 97.3129V112.978H110.873V97.3346C110.877 96.8264 110.75 96.3258 110.504 95.8804C110.258 95.4351 109.902 95.0599 109.469 94.7906C109.035 94.5214 108.54 94.3672 108.03 94.3426C107.52 94.318 107.013 94.4239 106.556 94.6502C106.149 94.8591 105.788 95.1469 105.494 95.4968C104.674 96.4927 103.565 97.212 102.319 97.5561C101.072 97.9002 99.7492 97.8523 98.5311 97.419C97.3129 96.9856 96.2592 96.188 95.5141 95.1353C94.7691 94.0827 94.3692 92.8265 94.3692 91.5388C94.3692 90.2511 94.7691 88.995 95.5141 87.9423C96.2592 86.8897 97.3129 86.092 98.5311 85.6587C99.7492 85.2253 101.072 85.1774 102.319 85.5215C103.565 85.8656 104.674 86.5849 105.494 87.5809C105.779 87.9384 106.14 88.2284 106.551 88.4299C106.962 88.6314 107.413 88.7393 107.871 88.7458C108.267 88.7458 108.658 88.6681 109.023 88.517C109.389 88.3659 109.72 88.1445 109.999 87.8655C110.278 87.5864 110.499 87.2553 110.649 86.8911C110.799 86.5268 110.875 86.1367 110.873 85.743V70.085H67.7539V85.743C67.753 86.137 67.8301 86.5273 67.9809 86.8916C68.1317 87.2559 68.3532 87.587 68.6328 87.8659C68.9123 88.1448 69.2444 88.3661 69.61 88.5171C69.9755 88.6681 70.3675 88.7458 70.7633 88.7458C71.2221 88.7424 71.6743 88.6361 72.0862 88.4347C72.4929 88.2254 72.8517 87.9347 73.1402 87.5809C73.961 86.5848 75.071 85.8655 76.3181 85.5214C77.5653 85.1772 78.8889 85.225 80.1077 85.6582C81.3266 86.0914 82.3812 86.8889 83.1274 87.9415C83.8735 88.9941 84.2748 90.2505 84.2762 91.5388Z" fill="#3CB659"/>
<g opacity="0.6">
<path d="M84.2762 91.5388C84.2745 92.8272 83.8724 94.0836 83.1251 95.1356C82.3779 96.1875 81.322 96.9837 80.1023 97.4148C78.8825 97.8459 77.5587 97.891 76.3123 97.5437C75.0659 97.1964 73.9579 96.4738 73.1402 95.475C72.8542 95.1196 72.4928 94.8315 72.0819 94.6314C71.671 94.4313 71.2207 94.324 70.7633 94.3173C69.9657 94.3192 69.2014 94.6355 68.6375 95.1968C68.0735 95.7582 67.7558 96.519 67.7539 97.3129V112.978H110.873V97.3346C110.877 96.8264 110.75 96.3258 110.504 95.8804C110.258 95.4351 109.902 95.0599 109.469 94.7906C109.035 94.5214 108.54 94.3672 108.03 94.3426C107.52 94.318 107.013 94.4239 106.556 94.6502C106.149 94.8591 105.788 95.1469 105.494 95.4968C104.674 96.4927 103.565 97.212 102.319 97.5561C101.072 97.9002 99.7492 97.8523 98.5311 97.419C97.3129 96.9856 96.2592 96.188 95.5141 95.1353C94.7691 94.0827 94.3692 92.8265 94.3692 91.5388C94.3692 90.2511 94.7691 88.995 95.5141 87.9423C96.2592 86.8897 97.3129 86.092 98.5311 85.6587C99.7492 85.2253 101.072 85.1774 102.319 85.5215C103.565 85.8656 104.674 86.5849 105.494 87.5809C105.779 87.9384 106.14 88.2284 106.551 88.4299C106.962 88.6314 107.413 88.7393 107.871 88.7458C108.267 88.7458 108.658 88.6681 109.023 88.517C109.389 88.3659 109.72 88.1445 109.999 87.8655C110.278 87.5864 110.499 87.2553 110.649 86.8911C110.799 86.5268 110.875 86.1367 110.873 85.743V70.085H67.7539V85.743C67.753 86.137 67.8301 86.5273 67.9809 86.8916C68.1317 87.2559 68.3532 87.587 68.6328 87.8659C68.9123 88.1448 69.2444 88.3661 69.61 88.5171C69.9755 88.6681 70.3675 88.7458 70.7633 88.7458C71.2221 88.7424 71.6743 88.6361 72.0862 88.4347C72.4929 88.2254 72.8517 87.9347 73.1402 87.5809C73.961 86.5848 75.071 85.8655 76.3181 85.5214C77.5653 85.1772 78.8889 85.225 80.1077 85.6582C81.3266 86.0914 82.3812 86.8889 83.1274 87.9415C83.8735 88.9941 84.2748 90.2505 84.2762 91.5388Z" fill="white"/>
</g>
<path d="M3.88162 105.844C12.8588 112.667 55.7383 115.793 64.3448 109.874C60.4704 89.9108 50.9263 47.061 45.7871 40.4114C44.3333 38.5807 39.6957 38.067 35.7269 38.559C34.6883 38.6782 33.662 38.8864 32.6594 39.1813H32.5576C31.7524 39.4204 30.9932 39.7921 30.3115 40.2811C22.0467 46.8439 10.2056 85.3451 3.88162 105.844Z" fill="#3CB659"/>
<path d="M25.1942 46.475C16.2243 56.6049 -5.20457 94.5056 2.10072 101.126C9.40602 107.747 48.6729 97.5084 59.6272 91.9658C62.8837 90.3089 49.785 70.1574 45.8962 69.7812C42.6542 69.47 26.3354 77.4293 25.8339 76.4959C25.2669 75.4395 27.6729 67.4802 31.2638 53.0884C35.3998 36.4969 29.1558 42.0178 25.1942 46.475Z" fill="#DD6A57"/>
<path d="M54.1682 63.6379C61.8442 61.0475 64.2139 61.554 69.5275 55.9463C73.0093 52.2634 76.8692 52.9001 75.4517 57.9651C73.1256 66.2572 63.9304 71.6695 60.1869 72.6319L54.1682 63.6379Z" fill="#DD6A57"/>
<path d="M130.841 60.3819C130.673 59.104 130.113 57.9089 129.237 56.9602C128.36 56.0115 127.211 55.3557 125.945 55.0824C124.68 54.8091 123.361 54.9317 122.168 55.4335C120.976 55.9353 119.968 56.7918 119.283 57.8856C119.048 58.2708 118.731 58.6001 118.355 58.8501C117.978 59.1002 117.55 59.2649 117.103 59.3327C116.711 59.385 116.312 59.3588 115.93 59.2557C115.548 59.1526 115.19 58.9746 114.879 58.7322C114.562 58.4968 114.297 58.1995 114.099 57.8587C113.902 57.5178 113.776 57.1404 113.73 56.7496L111.673 41.2073L96.0665 43.226C95.2765 43.3288 94.5598 43.7392 94.0733 44.3672C93.5869 44.9952 93.3704 45.7896 93.4714 46.5762C93.5286 47.0301 93.693 47.464 93.9512 47.8424C94.2073 48.22 94.5419 48.5383 94.9325 48.7758C96.0368 49.4507 96.9041 50.4494 97.4152 51.6347C97.9262 52.82 98.056 54.1338 97.7866 55.3955C97.5172 56.6573 96.8619 57.805 95.9108 58.681C94.9596 59.557 93.7593 60.1183 92.4747 60.2877C91.1901 60.4572 89.8843 60.2265 88.7368 59.6274C87.5892 59.0283 86.6562 58.0901 86.066 56.9418C85.4758 55.7935 85.2572 54.4914 85.4405 53.2145C85.6237 51.9375 86.1997 50.7484 87.0893 49.8105C87.4068 49.4823 87.6477 49.0884 87.7947 48.6569C87.9417 48.2254 87.9912 47.767 87.9398 47.3142C87.8312 46.5289 87.4165 45.8178 86.7853 45.3344C86.1542 44.851 85.3573 44.6343 84.567 44.7311L68.9169 46.7571L74.4777 89.3102L90.0841 87.2915C90.4763 87.2424 90.8549 87.1166 91.1981 86.9215C91.5414 86.7264 91.8425 86.4657 92.0843 86.1545C92.3261 85.8432 92.5037 85.4874 92.6071 85.1077C92.7104 84.7279 92.7373 84.3315 92.6864 83.9413C92.6244 83.4897 92.4576 83.0587 92.1994 82.6823C91.9438 82.3024 91.6091 81.9816 91.2181 81.7417C90.118 81.0606 89.2564 80.0575 88.7514 78.8699C88.2464 77.6822 88.1228 76.3682 88.3974 75.1079C88.672 73.8476 89.3315 72.7027 90.2854 71.83C91.2393 70.9574 92.4409 70.3998 93.7257 70.2336C95.0104 70.0674 96.3154 70.3007 97.4616 70.9017C98.6079 71.5027 99.5395 72.4418 100.129 73.5904C100.718 74.7389 100.936 76.0408 100.752 77.3174C100.569 78.5941 99.9936 79.7831 99.1049 80.7215C98.7861 81.0488 98.5444 81.4426 98.3973 81.8743C98.2502 82.306 98.2014 82.7649 98.2544 83.2178C98.3046 83.6082 98.4318 83.9849 98.6286 84.3263C98.8255 84.6677 99.0882 84.967 99.4016 85.207C99.715 85.447 100.073 85.6231 100.455 85.725C100.837 85.8269 101.235 85.8527 101.627 85.8009L117.234 83.7822L115.206 68.2471C115.154 67.8569 115.18 67.4603 115.282 67.0801C115.384 66.6999 115.561 66.3436 115.802 66.0317C116.043 65.7197 116.344 65.4582 116.687 65.2622C117.03 65.0663 117.408 64.9397 117.801 64.8897C118.256 64.8286 118.719 64.8757 119.153 65.0272C119.584 65.1856 119.978 65.432 120.308 65.7508C121.251 66.6341 122.445 67.2057 123.727 67.3874C125.009 67.5691 126.316 67.352 127.469 66.7658C128.622 66.1796 129.565 65.253 130.169 64.1128C130.772 62.9726 131.007 61.6746 130.841 60.3964V60.3819Z" fill="#455A64"/>
<path d="M34.6729 75.1426C34.6729 75.1426 42.5961 68.5654 50.4974 65.0127C55.9637 62.5453 68.459 58.5005 83.1205 68.7463C86.595 71.1775 89.8224 77.0963 82.6916 75.1788C77.6033 73.8185 74.8339 71.4307 71.7446 71.1775C71.7446 71.1775 74.9429 79.1874 72.3624 82.5592C70.1068 85.51 67.6411 88.2957 64.9844 90.8948C64.3946 90.5178 63.829 90.1045 63.2908 89.6575C63.2908 89.6575 60.5795 92.5879 54.5317 93.1523L34.6729 75.1426Z" fill="#DD6A57"/>
<path d="M56.0945 63.4714C59.1038 64.3759 65.4569 66.3657 70.0799 69.8461C75.2118 73.6738 84.0581 82.429 81.1796 86.1771C79.0644 88.9194 75.3645 85.8732 75.3645 85.8732C75.3645 85.8732 78.2721 90.258 75.8006 92.3202C73.569 94.2015 70.865 91.669 70.865 91.669C70.865 91.669 72.1589 94.6356 69.6583 96.0104C66.649 97.6891 64.432 91.2059 59.9034 90.287C58.9148 90.1061 56.0945 63.4714 56.0945 63.4714Z" fill="#DD6A57"/>
<path d="M65.108 74.5639C67.7975 75.8735 73.1474 80.4103 75.4081 85.7358C75.459 85.8588 75.4081 85.9601 75.3281 85.8588C72.3799 81.7107 68.9357 77.9349 65.0717 74.6145C65.0717 74.6145 65.0789 74.5494 65.108 74.5639Z" fill="#263238"/>
<path d="M61.3717 79.8315C63.5524 81.1991 68.8806 86.1266 70.9886 91.5968C71.0322 91.7198 70.9886 91.8211 70.8941 91.7198C68.1702 87.4251 64.9633 83.4535 61.3354 79.8822L61.3717 79.8315Z" fill="#263238"/>
<path d="M71.7373 71.1052C74.4486 71.373 76.3603 72.3136 78.8172 73.399C80.0252 73.9491 81.2628 74.4322 82.5244 74.8461C83.6802 75.2151 85.3884 75.7723 86.3333 74.6797C86.5359 74.3561 86.6493 73.9851 86.662 73.604C86.6748 73.223 86.5865 72.8453 86.406 72.509C85.8944 71.528 85.2295 70.6341 84.4361 69.8607C84.4361 69.8607 84.4361 69.7811 84.487 69.81C85.2452 70.5054 85.9297 71.2764 86.5296 72.111C86.9271 72.683 87.1401 73.3619 87.1402 74.0574C87.0384 75.5045 85.4029 76.0472 84.1454 75.8808C83.4002 75.7604 82.6695 75.564 81.9647 75.2947C81.2741 75.0559 80.5909 74.781 79.9221 74.4988C78.541 73.9055 77.1963 73.2398 75.8224 72.632C74.4926 72.0646 73.1282 71.5813 71.7373 71.1848C71.6573 71.1848 71.6791 71.1052 71.7373 71.1052Z" fill="#263238"/>
<path d="M78.839 79.0861C76.6326 76.2979 74.2457 73.6561 71.6937 71.1774C71.6899 71.1746 71.6866 71.171 71.6842 71.1669C71.6818 71.1628 71.6802 71.1583 71.6795 71.1536C71.6788 71.1489 71.6791 71.1441 71.6803 71.1395C71.6815 71.1349 71.6835 71.1306 71.6864 71.1268C71.6893 71.123 71.6929 71.1198 71.697 71.1174C71.7011 71.1149 71.7056 71.1133 71.7103 71.1127C71.7151 71.112 71.7199 71.1123 71.7245 71.1134C71.7291 71.1146 71.7335 71.1167 71.7373 71.1195C74.0997 72.6318 78.2793 77.0383 79.3406 78.5C80.4019 79.9616 81.6303 81.8211 81.972 83.5649C82.4808 86.2349 80.8017 87.0815 80.1693 87.3348C79.4122 87.6235 78.5788 87.6464 77.8069 87.3999C76.8967 87.052 76.0661 86.5254 75.3645 85.8514C75.3645 85.8514 75.3645 85.7646 75.4081 85.7935C76.5421 86.6691 78.3157 87.4144 79.7113 86.944C80.0271 86.8516 80.3213 86.6979 80.577 86.4918C80.8328 86.2856 81.045 86.0311 81.2015 85.7429C81.4704 85.0217 81.4704 84.2283 81.2015 83.5071C80.6718 81.9106 79.8729 80.4156 78.839 79.0861Z" fill="#263238"/>
<path d="M39.2742 71.1632L54.379 97.1321C54.379 97.1321 5.20457 109.52 0.705091 101.061C-3.79439 92.6026 14.5161 58.5369 22.9117 48.5371C32.6376 36.96 34.0187 40.7587 32.0852 50.8598C30.0499 61.4239 25.9938 76.7419 25.9938 76.7419L39.2742 71.1632Z" fill="#3CB659"/>
<path d="M11.7466 84.7229C13.9305 82.987 16.2358 81.4081 18.6448 79.998C21.0308 78.6117 23.5163 77.4025 26.081 76.3801C27.5348 75.7868 28.9886 75.2586 30.5005 74.7231C30.5441 74.7231 30.5659 74.7738 30.5005 74.7955C27.9276 75.83 25.4179 77.0139 22.9844 78.341C20.5614 79.6338 18.1554 80.97 15.7663 82.3496C14.4216 83.131 13.1132 83.9704 11.7902 84.8025C11.7816 84.801 11.7734 84.7976 11.7663 84.7925C11.7592 84.7874 11.7533 84.7808 11.7491 84.7732C11.7449 84.7655 11.7425 84.757 11.7421 84.7483C11.7416 84.7396 11.7432 84.7309 11.7466 84.7229Z" fill="#263238"/>
<path d="M39.1142 71.0908C38.8671 71.1632 27.1931 75.794 26.757 76.0111C26.8079 75.8085 29.0467 68.58 29.3811 67.5236C29.3811 67.4151 29.4392 67.3138 29.4756 67.2052C29.7082 66.7277 29.9481 66.2574 30.1589 65.7581C30.4351 65.1431 30.704 64.5208 30.9802 63.8985L30.0789 65.7219C29.9408 66.0041 29.8172 66.2863 29.6936 66.5757C29.9117 65.8522 30.1152 65.0779 30.326 64.3254C30.6604 63.1243 30.9512 61.9232 31.2419 60.7076C31.2419 60.7076 31.191 60.6569 31.1765 60.7076C30.515 62.8132 29.7881 64.897 29.1194 67.0026C28.4506 69.1082 25.8774 76.8721 25.8992 76.8649C25.9211 76.8577 38.9252 71.4092 39.2087 71.2789C39.3105 71.221 39.2596 71.0546 39.1142 71.0908Z" fill="#263238"/>
<path d="M42.2544 88.1669C40.8006 85.2726 39.3468 82.3132 37.7549 79.4479C36.8536 77.8199 35.9668 76.1918 35.0509 74.571C35.0509 74.5132 34.9055 74.571 34.9346 74.6217C36.2939 77.61 37.6677 80.6056 39.1651 83.5288C40.6625 86.4521 42.1236 89.3681 43.65 92.2551C44.5223 93.9048 45.4382 95.5112 46.405 97.103H46.4631C45.2056 94.0278 43.7373 91.1336 42.2544 88.1669Z" fill="#263238"/>
<path d="M55.0187 97.53C54.5026 96.7269 53.8484 95.5692 53.2959 94.7877C53.1506 94.5851 52.9906 94.6357 53.1069 94.8528C53.5067 95.5764 53.8338 96.4013 54.2336 97.1538C53.5067 97.313 52.8452 97.4504 52.162 97.6169L49.7632 98.1812C48.198 98.5479 46.6327 98.8976 45.0675 99.2304C41.8885 99.9057 38.695 100.511 35.487 101.047C29.0624 102.158 22.5844 102.938 16.0789 103.384C14.2617 103.499 12.4444 103.579 10.6127 103.601C8.81655 103.658 7.01864 103.622 5.22636 103.492C5.17548 103.492 5.16821 103.565 5.22636 103.579C6.77652 103.861 8.34665 104.021 9.9221 104.057C11.5722 104.057 13.2295 104.057 14.8795 104.02C18.1651 103.897 21.4216 103.594 24.7071 103.21C31.1814 102.443 37.6192 101.404 44.0207 100.091C45.8162 99.7297 47.5971 99.3679 49.378 98.941C50.2793 98.7311 51.1807 98.5286 52.0747 98.3042C52.9688 98.0799 55.1059 97.6458 55.0187 97.53Z" fill="#263238"/>
<path d="M44.3697 50.4544C40.8733 51.6555 34.1931 46.8365 31.2855 42.647C31.0893 42.3576 31.2274 39.116 31.2129 35.1726C31.2129 32.7775 31.1184 30.1076 30.8785 27.6836L46.5503 29.8543C45.9853 32.978 45.8071 36.1589 46.0197 39.3258C46.0546 39.6598 46.1228 39.9894 46.2232 40.3099C46.2232 40.3606 46.2232 40.4112 46.2232 40.4763C46.7611 42.3214 47.757 49.2822 44.3697 50.4544Z" fill="#DD6A57"/>
<path d="M31.9761 27.8357C32.7466 31.0122 35.945 41.3809 44.6968 40.7008C45.2259 40.6643 45.751 40.5845 46.2669 40.462C46.2483 40.4101 46.2337 40.3569 46.2233 40.3028C46.1244 39.9791 46.0538 39.6474 46.0125 39.3115C45.8039 36.1446 45.9821 32.9642 46.5431 29.84L31.9761 27.8357Z" fill="#263238"/>
<path d="M26.946 11.4759C26.1246 17.1921 31.4746 32.5245 35.9159 35.4188C42.3635 39.6372 51.6895 38.6966 54.9824 31.2655C58.1734 24.0298 50.8463 4.23292 45.9979 1.71489C38.8526 -2.00426 28.1599 3.03903 26.946 11.4759Z" fill="#DD6A57"/>
<path d="M42.0218 19.0732C42.0218 19.0732 41.9564 19.1528 41.9709 19.1962C42.3635 20.2092 42.6397 21.4466 41.8256 22.0905C41.8256 22.0905 41.8256 22.1629 41.8256 22.1484C42.9668 21.613 42.5743 19.9777 42.0218 19.0732Z" fill="#263238"/>
<path d="M40.7352 18.3207C39.027 18.7693 40.0592 22.1411 41.6438 21.7215C43.2284 21.3018 42.1744 17.9372 40.7352 18.3207Z" fill="#263238"/>
<path d="M48.1059 17.3295C48.1059 17.2861 48.2004 17.3295 48.2149 17.3946C48.4984 18.451 49.0072 19.6087 50.0612 19.6666C50.0612 19.6666 50.1121 19.7245 50.0612 19.7317C48.8619 19.9126 48.2077 18.3642 48.1059 17.3295Z" fill="#263238"/>
<path d="M48.7092 15.9474C50.352 15.3107 51.5223 18.6319 49.9959 19.2252C48.4694 19.8185 47.3281 16.4829 48.7092 15.9474Z" fill="#263238"/>
<path d="M38.6272 16.5481C39.0741 16.3527 39.5086 16.1304 39.9283 15.8824C40.4202 15.7224 40.8446 15.4042 41.135 14.9779C41.2047 14.8273 41.2204 14.6575 41.1794 14.4968C41.1383 14.3361 41.0431 14.1943 40.9097 14.0951C40.625 13.9263 40.2997 13.8372 39.9683 13.8372C39.6369 13.8372 39.3117 13.9263 39.027 14.0951C38.4005 14.3528 37.8944 14.8359 37.6095 15.4482C37.5296 15.593 37.4974 15.7592 37.5175 15.9232C37.5375 16.0872 37.6087 16.2408 37.7212 16.3623C37.8336 16.4838 37.9816 16.5671 38.1441 16.6005C38.3067 16.6338 38.4757 16.6155 38.6272 16.5481Z" fill="#263238"/>
<path d="M49.5089 12.9881C49.0256 13.0327 48.5403 13.052 48.0551 13.046C47.5455 13.1396 47.0192 13.0633 46.5577 12.8289C46.4242 12.7297 46.329 12.5879 46.288 12.4273C46.2469 12.2666 46.2626 12.0967 46.3323 11.9462C46.5086 11.6668 46.7563 11.4392 47.0501 11.2866C47.3439 11.134 47.6732 11.062 48.0042 11.0779C48.6776 11.0089 49.353 11.1892 49.9014 11.5844C50.0215 11.6822 50.1104 11.8127 50.1572 11.96C50.2041 12.1073 50.2068 12.2649 50.1652 12.4137C50.1236 12.5625 50.0394 12.6961 49.9229 12.7981C49.8063 12.9001 49.6625 12.9661 49.5089 12.9881Z" fill="#263238"/>
<path d="M43.81 29.0152C44.1169 29.2471 44.4933 29.3695 44.8785 29.3625C45.269 29.2363 45.6282 29.0291 45.9325 28.7547C45.9383 28.747 45.9469 28.742 45.9564 28.7406C45.966 28.7392 45.9757 28.7417 45.9834 28.7475C45.9911 28.7532 45.9962 28.7618 45.9976 28.7713C45.9989 28.7808 45.9964 28.7904 45.9907 28.7981C45.9017 29.0472 45.7478 29.2683 45.5447 29.4387C45.3416 29.6091 45.0966 29.7227 44.8349 29.7677C44.6036 29.7768 44.3747 29.7178 44.1769 29.5981C43.9791 29.4784 43.8212 29.3033 43.7227 29.0948C43.6937 29.0369 43.7664 28.9935 43.81 29.0152Z" fill="#263238"/>
<path d="M43.9554 25.5564C44.3532 25.8931 44.8174 26.143 45.3182 26.2901C45.8191 26.4371 46.3453 26.4781 46.8629 26.4103C47.3107 26.3636 47.7492 26.2514 48.1641 26.0774C48.2482 26.0543 48.3288 26.0203 48.404 25.9761L48.622 25.8748C48.6739 25.8466 48.7153 25.8025 48.7402 25.7491C48.7651 25.6957 48.772 25.6358 48.7601 25.5782C48.7519 25.542 48.7371 25.5077 48.7165 25.4769V25.3828C48.4912 24.5724 48.0405 23.3785 48.0405 23.3785C48.3821 23.4364 50.0904 23.6535 49.9377 23.241C48.6656 19.8258 47.2482 16.0053 45.2492 12.9012C45.2355 12.8827 45.2159 12.8694 45.1935 12.8635C45.1712 12.8576 45.1475 12.8594 45.1264 12.8687C45.1053 12.8779 45.0879 12.8941 45.0772 12.9145C45.0665 12.9348 45.0631 12.9582 45.0675 12.9808C46.1651 16.3092 47.837 19.4278 48.9927 22.7562C48.3828 22.6692 47.7636 22.6692 47.1537 22.7562C47.0447 22.8286 48.0696 25.0572 48.1423 25.4334C46.8411 26.0195 45.6926 25.9255 44.1007 25.4334C43.9263 25.3973 43.8681 25.4913 43.9554 25.5564Z" fill="#263238"/>
<path d="M47.5244 25.817C47.2572 26.5251 46.8116 27.153 46.2305 27.6404C45.9063 27.8965 45.5099 28.0457 45.0966 28.0673C44.1879 28.0673 43.9335 27.3437 43.8899 26.6202C43.8662 26.2475 43.8882 25.8733 43.9553 25.5059C45.0809 25.9873 46.3319 26.0964 47.5244 25.817Z" fill="#263238"/>
<path d="M46.2306 27.6404C45.9063 27.8966 45.51 28.0458 45.0966 28.0673C44.188 28.0673 43.9336 27.3437 43.89 26.6202C44.3385 26.5027 44.8138 26.5395 45.2387 26.7247C45.6636 26.9099 46.0131 27.2326 46.2306 27.6404Z" fill="#FF98B9"/>
<path d="M30.0062 25.9254C32.4922 25.7228 33.2409 21.6708 33.299 20.0573C33.3572 18.4437 30.4932 12.3078 30.8131 9.80429C31.1329 7.30074 33.0446 5.26751 35.109 5.13726C37.1734 5.00702 40.4662 6.5844 41.7965 5.91872C43.1267 5.25303 42.3562 2.21404 43.3084 1.86672C45.4091 1.0925 49.2544 5.30368 50.4828 7.45992C50.4828 7.45992 47.9314 -2.39511 36.7954 0.549827C26.6189 3.22704 25.9792 11.1501 26.2118 14.4062C26.6185 18.4752 27.9135 22.4067 30.0062 25.9254Z" fill="#263238"/>
<path d="M32.3323 23.7982C32.3323 23.7982 27.8692 19.341 25.7902 21.0125C23.7113 22.6839 27.6802 29.5796 30.5805 30.1078C30.9474 30.203 31.3299 30.2229 31.7048 30.1665C32.0797 30.1101 32.4392 29.9784 32.7614 29.7794C33.0836 29.5805 33.3618 29.3184 33.5792 29.0092C33.7966 28.7 33.9486 28.35 34.026 27.9805L32.3323 23.7982Z" fill="#DD6A57"/>
<path d="M26.9678 22.9587C26.9601 22.9621 26.9534 22.9677 26.9488 22.9747C26.9441 22.9818 26.9417 22.9901 26.9417 22.9985C26.9417 23.007 26.9441 23.0153 26.9488 23.0223C26.9534 23.0294 26.9601 23.035 26.9678 23.0383C29.0031 23.4725 30.3188 25.0571 31.3292 26.7575C31.1845 26.5869 31.0042 26.4498 30.8008 26.3558C30.5975 26.2617 30.3759 26.213 30.1516 26.213C29.9274 26.213 29.7058 26.2617 29.5024 26.3558C29.299 26.4498 29.1187 26.5869 28.9741 26.7575C28.9305 26.8009 28.9741 26.866 29.0468 26.8443C29.3621 26.6787 29.7216 26.6155 30.0749 26.6635C30.4281 26.7115 30.7574 26.8684 31.0166 27.112C31.4535 27.5161 31.8436 27.9675 32.1797 28.4579C32.3032 28.6098 32.594 28.4579 32.4922 28.2842V28.2408C32.107 25.8024 29.621 22.7489 26.9678 22.9587Z" fill="#263238"/>
<path d="M46.2233 40.1291L42.7487 49.2823L31.2202 38.1682L28.1236 41.9308C28.1236 41.9308 39.6013 59.774 39.6522 58.9492L43.1849 51.0839L48.7093 56.3515L47.9242 42.7918L46.2233 40.1291Z" fill="white"/>
<path d="M48.702 49.608C48.4985 47.3722 48.3531 45.1146 48.0405 42.8933C48.0405 42.8137 47.9024 42.7775 47.8879 42.8933C47.4954 45.064 48.324 53.6094 48.3676 55.6643C48.135 55.4328 43.2794 51.0334 43.2067 51.1058C42.4289 52.3576 39.8339 58.0883 39.6594 58.6092C37.8422 55.7728 30.9367 45.4837 28.756 42.8137C28.7447 42.7969 28.7274 42.785 28.7076 42.7804C28.6878 42.7758 28.667 42.7789 28.6495 42.789C28.6319 42.7992 28.6188 42.8156 28.613 42.8349C28.6071 42.8543 28.6089 42.8752 28.6179 42.8933C30.2389 45.8961 39.4341 59.7597 39.5649 59.7163C40.9404 56.9897 42.1706 54.1928 43.2503 51.3373C44.0862 52.2997 49.0654 57.2779 49.0654 56.945C49.0708 54.4948 48.9495 52.0459 48.702 49.608Z" fill="#263238"/>
</g>
<defs>
<clipPath id="clip0_166_1556">
<rect width="154" height="113" fill="white"/>
</clipPath>
</defs>
</svg>
