<svg width="83" height="83" viewBox="0 0 83 83" fill="none" xmlns="http://www.w3.org/2000/svg">
<rect width="83" height="83" rx="12" fill="#E7F3FF"/>
<path d="M55 36.0294C55 35.8524 54.9409 35.7346 54.823 35.6167L53.703 34.4966L54.5284 33.0817C54.7054 32.7869 54.5875 32.4332 54.2927 32.2563L52.9366 31.4308L53.3493 29.8981C53.4084 29.6032 53.2314 29.2496 52.9366 29.1905L51.4038 28.7778V27.245C51.4038 26.8913 51.109 26.6553 50.8141 26.6553H49.2223L48.7507 25.1225C48.6916 24.9456 48.6328 24.8277 48.4559 24.7689C48.338 24.7098 48.161 24.651 47.9843 24.7098L46.4516 25.1225L45.6261 23.7076C45.567 23.5897 45.3904 23.4718 45.2725 23.4128C45.0955 23.3537 44.9776 23.4128 44.8009 23.4718L43.4449 24.2973L42.3245 23.177C42.2066 23.0591 42.0888 23 41.9118 23C41.7348 23 41.617 23.0591 41.4991 23.177L40.3788 24.2973L39.0227 23.4718C38.9048 23.4128 38.7278 23.3539 38.5512 23.4128C38.3742 23.4718 38.2563 23.5307 38.1975 23.7076L37.4311 25.1225L35.8984 24.7098C35.6035 24.5919 35.2498 24.8277 35.1908 25.1225L34.778 26.6553H33.1861C32.8913 26.6553 32.5964 26.8911 32.5964 27.245V28.8369L31.0637 29.2496C30.8867 29.3087 30.7688 29.3675 30.71 29.5445C30.6509 29.6623 30.5921 29.8393 30.6509 30.016L31.0637 31.5488L29.7076 32.3742C29.5897 32.4333 29.4718 32.5512 29.4128 32.7279C29.3537 32.9048 29.4128 33.0227 29.4718 33.1994L30.2973 34.6143L29.177 35.7346C29.0591 35.8525 29 35.9704 29 36.1474C29 36.3243 29.0591 36.4422 29.177 36.5601L30.2973 37.6804L29.4718 39.0365C29.4128 39.1544 29.3539 39.3313 29.4128 39.508C29.4718 39.685 29.5307 39.8029 29.7076 39.8617L31.0637 40.6871L30.6509 42.2199C30.5919 42.3968 30.6509 42.5147 30.71 42.6914C30.7691 42.8093 30.887 42.9272 31.0637 42.9863L32.5964 43.399V44.9909C32.5964 45.3445 32.8913 45.5806 33.1861 45.5806H34.778L35.1908 47.1133C35.2498 47.4082 35.6035 47.5849 35.8984 47.5261L37.4311 47.1133L38.1975 48.4694C38.3745 48.7643 38.7281 48.8231 39.0229 48.7052L40.379 47.9388L41.4993 49.0591C41.6172 49.177 41.7351 49.2361 41.912 49.2361C42.089 49.2361 42.2069 49.177 42.3248 49.0591L43.4451 47.9388L44.8012 48.7052C45.096 48.8821 45.4497 48.7643 45.6266 48.4694L46.452 47.1133L47.9848 47.5261C48.1617 47.5851 48.2796 47.5261 48.4563 47.467C48.5742 47.4079 48.6921 47.29 48.7512 47.1133L49.1639 45.5806H50.7558C51.0506 45.5806 51.3455 45.3448 51.3455 44.9909V43.399L52.8783 42.9863C53.1731 42.8684 53.3498 42.5735 53.291 42.2787L52.8783 40.7459L54.2343 39.9205C54.5292 39.7435 54.588 39.3898 54.4701 39.095L53.6446 37.739L54.765 36.6187C54.9411 36.3243 54.9999 36.2065 54.9999 36.0295L55 36.0294ZM41.9704 44.2242C37.4306 44.2242 33.7756 40.569 33.7756 36.0294C33.7756 31.4898 37.4308 27.8346 41.9704 27.8346C46.5099 27.8346 50.1652 31.5489 50.1652 36.0294C50.1652 40.5102 46.5099 44.2242 41.9704 44.2242Z" fill="#5E81FE"/>
<path d="M49.871 47.4673C49.694 47.88 49.4582 48.1749 49.1046 48.4106C48.8688 48.5285 48.574 48.6464 48.2203 48.6464C48.0433 48.6464 47.9254 48.6464 47.7488 48.5873L47.1002 48.4104L46.7466 49.0001C46.3927 49.5307 45.862 49.8255 45.2133 49.8255C44.9184 49.8255 44.5648 49.7664 44.329 49.5897L43.7393 49.2361L43.2677 49.7076C43.1499 49.8255 42.9729 49.9434 42.855 50.0025L47.6895 60.3201C47.8073 60.497 47.9843 60.6737 48.2201 60.6737C48.4558 60.6737 48.6328 60.5559 48.7507 60.3789L50.4604 57.3721L53.8799 57.9618C54.1157 58.0209 54.2927 57.9027 54.4696 57.726C54.5875 57.5491 54.6466 57.3133 54.5287 57.1363L49.871 47.4673Z" fill="#5E81FE"/>
<path d="M40.2014 49.2944L39.6117 49.6481C39.3169 49.825 39.022 49.8838 38.7274 49.8838C38.0789 49.8838 37.4892 49.5302 37.1947 48.9996L36.841 48.4099L36.1925 48.5868C36.0746 48.6459 35.8976 48.6459 35.7209 48.6459C34.9546 48.6459 34.306 48.1744 34.07 47.4668L29.5302 57.1945C29.4123 57.3715 29.4711 57.6073 29.5892 57.7842C29.7071 57.9612 29.9429 58.02 30.1789 58.02L33.5985 57.4303L35.3082 60.4371C35.4261 60.6141 35.603 60.7319 35.8388 60.7319C36.0746 60.7319 36.2515 60.6141 36.3694 60.3783L41.2039 50.0607C41.0269 50.0016 40.909 49.8837 40.7911 49.7658L40.2014 49.2944Z" fill="#5E81FE"/>
<path d="M41.9704 29.0132C38.0791 29.0132 34.9547 32.1378 34.9547 36.0289C34.9547 39.92 38.0793 43.0447 41.9704 43.0447C45.8615 43.0447 48.9861 39.92 48.9861 36.0289C48.9861 32.1967 45.8615 29.0132 41.9704 29.0132Z" fill="#5E81FE"/>
</svg>
