<?xml version="1.0" encoding="utf-8"?>
<!-- Generator: Adobe Illustrator 26.1.0, SVG Export Plug-In . SVG Version: 6.00 Build 0)  -->
<svg version="1.1" id="Layer_1" xmlns="http://www.w3.org/2000/svg" xmlns:xlink="http://www.w3.org/1999/xlink" x="0px" y="0px"
	 viewBox="0 0 353.1 704.1" style="enable-background:new 0 0 353.1 704.1;" xml:space="preserve">
<style type="text/css">
	.st0{fill:url(#SVGID_1_);}
	.st1{fill:url(#SVGID_00000067234420629125299740000007004429527329087633_);}
	.st2{fill:url(#SVGID_00000074418267240477214140000013467638431822536115_);}
	.st3{fill:url(#SVGID_00000032641026548944009060000016824385647636509622_);}
	.st4{fill:url(#SVGID_00000093167762185898649860000001030103001155435690_);}
	.st5{fill:url(#SVGID_00000094585827692905132630000016246343319296994701_);}
	.st6{clip-path:url(#SVGID_00000139283357259655152600000011596529263863642753_);}
	.st7{fill:url(#SVGID_00000050664580041037129370000001339535168269719702_);}
	.st8{font-family:'OpenSansHebrew-Bold';}
	.st9{font-size:9.5864px;}
	.st10{fill:#8591A1;}
	.st11{font-family:'OpenSans-Medium';}
	.st12{font-size:9.3588px;}
	.st13{font-family:'ArialMT';}
	.st14{fill:none;stroke:#8591A1;stroke-width:0.25;stroke-miterlimit:10;}
	.st15{font-size:13.1077px;}
	.st16{fill:url(#SVGID_00000045603517337769532170000017058098076158911896_);}
	.st17{fill:#344763;}
	.st18{font-size:14.0449px;}
	.st19{fill:#FFFFFF;}
	.st20{fill:url(#SVGID_00000083775906316090442440000002081537444805587122_);}
	.st21{fill:url(#SVGID_00000125594853546392258400000008503395465139812264_);}
	.st22{fill:url(#SVGID_00000010988852853915588170000013846807808293077145_);}
	.st23{fill:url(#SVGID_00000114063725164815353270000017634277393621095569_);}
	.st24{fill:url(#SVGID_00000172425947053104800500000006763840206866487474_);}
	.st25{fill:url(#SVGID_00000183947966789669637170000018015924129277280144_);}
	.st26{fill:url(#SVGID_00000127750594583315601680000012294027997015042701_);}
	.st27{fill:url(#SVGID_00000182507447245799141600000013829698668097568681_);}
	.st28{opacity:0.5;fill:url(#SVGID_00000125589948325450771110000009562343319255212436_);enable-background:new    ;}
	.st29{font-family:'OpenSans-Bold';}
	.st30{font-size:14.4669px;}
	.st31{fill:url(#SVGID_00000106115729567268658960000016527107659997060762_);}
	.st32{fill:url(#SVGID_00000094578780088735756970000001865900766611487679_);}
	.st33{fill:url(#SVGID_00000054964285698951381910000005151605659348466091_);}
	.st34{fill:url(#SVGID_00000076601034226840459350000016271593179298370211_);}
	.st35{fill:url(#SVGID_00000072240527976066817460000011283992949450042497_);}
	.st36{fill:url(#SVGID_00000111170890648649385770000003867285236168433307_);}
	.st37{clip-path:url(#SVGID_00000124873766268512002690000007449908105060862885_);}
	.st38{fill:url(#SVGID_00000013912116330879727380000012789912387022876339_);}
	.st39{fill:url(#SVGID_00000182497548369588320050000003111447499588394393_);}
	.st40{fill:url(#SVGID_00000085967423927382451840000002130096568830369929_);}
	.st41{fill:url(#SVGID_00000008135486867077725720000003777387633833452162_);}
	.st42{fill:url(#SVGID_00000004544331496365620990000017760005511481951664_);}
	.st43{fill:url(#SVGID_00000163758005257892910450000015002363249538298526_);}
	.st44{fill:url(#SVGID_00000101807871645923326170000015416787333785899681_);}
	.st45{fill:url(#SVGID_00000097463002739166228880000002278183861198484620_);}
	.st46{fill:url(#SVGID_00000047041720769797008510000006471365318256717200_);}
	.st47{fill:url(#SVGID_00000103262440711812514560000001285109402001987484_);}
	.st48{opacity:0.5;fill:url(#SVGID_00000068640974990144284300000003574943928056394627_);enable-background:new    ;}
</style>
<g>
	<g>
		<g id="b">
			<g id="c">
				<g>
					<g>
						
							<linearGradient id="SVGID_1_" gradientUnits="userSpaceOnUse" x1="349.4896" y1="574.6472" x2="349.4896" y2="488.9852" gradientTransform="matrix(1 0 0 -1 0 735.1796)">
							<stop  offset="0" style="stop-color:#231F20"/>
							<stop  offset="2.000000e-02" style="stop-color:#272324"/>
							<stop  offset="0.31" style="stop-color:#666669"/>
							<stop  offset="0.45" style="stop-color:#808184"/>
							<stop  offset="0.56" style="stop-color:#737376"/>
							<stop  offset="0.76" style="stop-color:#525153"/>
							<stop  offset="1" style="stop-color:#231F20"/>
						</linearGradient>
						<path class="st0" d="M350.5,245.7h-4.6v-85.7h4.6c1.5,0,2.6,1.2,2.6,2.6v80.4C353.1,244.5,352,245.7,350.5,245.7L350.5,245.7z
							"/>
						
							<linearGradient id="SVGID_00000018201519486288781870000012919629780306722720_" gradientUnits="userSpaceOnUse" x1="3.6418" y1="641.9262" x2="3.6418" y2="613.1133" gradientTransform="matrix(1 0 0 -1 0 735.1796)">
							<stop  offset="0" style="stop-color:#231F20"/>
							<stop  offset="2.000000e-02" style="stop-color:#272324"/>
							<stop  offset="0.31" style="stop-color:#666669"/>
							<stop  offset="0.45" style="stop-color:#808184"/>
							<stop  offset="0.56" style="stop-color:#737376"/>
							<stop  offset="0.76" style="stop-color:#525153"/>
							<stop  offset="1" style="stop-color:#231F20"/>
						</linearGradient>
						<path style="fill:url(#SVGID_00000018201519486288781870000012919629780306722720_);" d="M2.6,93.4h4.6v28.7H2.6
							c-1.5,0-2.6-1.2-2.6-2.6V96.1C0,94.6,1.2,93.4,2.6,93.4z"/>
						
							<linearGradient id="SVGID_00000039834959208322566830000013761643830618297764_" gradientUnits="userSpaceOnUse" x1="3.6418" y1="593.0836" x2="3.6418" y2="539.4344" gradientTransform="matrix(1 0 0 -1 0 735.1796)">
							<stop  offset="0" style="stop-color:#231F20"/>
							<stop  offset="2.000000e-02" style="stop-color:#272324"/>
							<stop  offset="0.31" style="stop-color:#666669"/>
							<stop  offset="0.45" style="stop-color:#808184"/>
							<stop  offset="0.56" style="stop-color:#737376"/>
							<stop  offset="0.76" style="stop-color:#525153"/>
							<stop  offset="1" style="stop-color:#231F20"/>
						</linearGradient>
						<path style="fill:url(#SVGID_00000039834959208322566830000013761643830618297764_);" d="M2.6,141.8h4.6v54.1H2.6
							c-1.5,0-2.6-1.2-2.6-2.6v-48.8C0,143,1.2,141.8,2.6,141.8L2.6,141.8z"/>
						
							<linearGradient id="SVGID_00000065795096764328423420000004790298526944367494_" gradientUnits="userSpaceOnUse" x1="3.6418" y1="526.8489" x2="3.6418" y2="472.0482" gradientTransform="matrix(1 0 0 -1 0 735.1796)">
							<stop  offset="0" style="stop-color:#231F20"/>
							<stop  offset="2.000000e-02" style="stop-color:#272324"/>
							<stop  offset="0.31" style="stop-color:#666669"/>
							<stop  offset="0.45" style="stop-color:#808184"/>
							<stop  offset="0.56" style="stop-color:#737376"/>
							<stop  offset="0.76" style="stop-color:#525153"/>
							<stop  offset="1" style="stop-color:#231F20"/>
						</linearGradient>
						<path style="fill:url(#SVGID_00000065795096764328423420000004790298526944367494_);" d="M2.6,208.3h4.6v54.1H2.6
							c-1.5,0-2.6-1.2-2.6-2.6V211C0,209.5,1.2,208.3,2.6,208.3L2.6,208.3z"/>
						
							<linearGradient id="SVGID_00000008867087639063879840000010384112087427818921_" gradientUnits="userSpaceOnUse" x1="4.1104" y1="383.1529" x2="349.4762" y2="383.1529" gradientTransform="matrix(1 0 0 -1 0 735.1796)">
							<stop  offset="0" style="stop-color:#231F20"/>
							<stop  offset="2.000000e-02" style="stop-color:#272324"/>
							<stop  offset="0.31" style="stop-color:#666669"/>
							<stop  offset="0.45" style="stop-color:#808184"/>
							<stop  offset="0.56" style="stop-color:#737376"/>
							<stop  offset="0.76" style="stop-color:#525153"/>
							<stop  offset="1" style="stop-color:#231F20"/>
						</linearGradient>
						<path style="fill:url(#SVGID_00000008867087639063879840000010384112087427818921_);" d="M41.9,0h269.8
							c20.9,0,37.8,16.9,37.8,37.8v628.5c0,20.9-16.9,37.8-37.8,37.8H41.9c-20.9,0-37.8-16.9-37.8-37.8V37.8C4.1,16.9,21,0,41.9,0z"
							/>
						<path d="M342.9,39.1v625.8c0,17.9-14.6,32.5-32.5,32.5H43.2c-17.9,0-32.5-14.6-32.5-32.5V39.1c0-17.9,14.6-32.5,32.5-32.5
							h267.1C328.3,6.6,342.9,21.2,342.9,39.1z"/>
						
							<linearGradient id="SVGID_00000005980061782995581980000016735090057511781526_" gradientUnits="userSpaceOnUse" x1="176.8" y1="42.6807" x2="176.8" y2="725.1246" gradientTransform="matrix(1 0 0 -1 0 735.1796)">
							<stop  offset="0" style="stop-color:#4D4D4D"/>
							<stop  offset="1" style="stop-color:#000000"/>
						</linearGradient>
						<path style="fill:url(#SVGID_00000005980061782995581980000016735090057511781526_);" d="M336.2,40.5v623.1
							c0,15-12.2,27.2-27.2,27.2H44.6c-15,0-27.2-12.2-27.2-27.2V40.5c0-15,12.2-27.2,27.2-27.2H309C324,13.3,336.2,25.4,336.2,40.5
							z"/>
						<g>
							<defs>
								<path id="SVGID_00000134956072729953252710000013543798877210613387_" d="M333.6,41v622c0,13.9-11.2,25.1-25.1,25.1H45.1
									C31.2,688.2,20,676.9,20,663V41c0-13.9,11.2-25.1,25.1-25.1h263.3C322.3,15.9,333.6,27.2,333.6,41z"/>
							</defs>
							<clipPath id="SVGID_00000166659656549844369460000002322117906666561181_">
								<use xlink:href="#SVGID_00000134956072729953252710000013543798877210613387_"  style="overflow:visible;"/>
							</clipPath>
							<g style="clip-path:url(#SVGID_00000166659656549844369460000002322117906666561181_);">
								
									<linearGradient id="SVGID_00000174573323060529583470000009617877855875648677_" gradientUnits="userSpaceOnUse" x1="-69.7452" y1="621.243" x2="430.294" y2="121.2038" gradientTransform="matrix(1 0 0 -1 0 735.1796)">
									<stop  offset="0" style="stop-color:#344763"/>
									<stop  offset="1" style="stop-color:#081F41"/>
								</linearGradient>
								<path style="fill:url(#SVGID_00000174573323060529583470000009617877855875648677_);" d="M31.1,19.6h298.4
									c8.6,0,15.6,7,15.6,15.6v657.5c0,8.6-7,15.6-15.6,15.6H31.1c-8.6,0-15.6-7-15.6-15.6V35.2C15.4,26.6,22.4,19.6,31.1,19.6z"
									/>
								<g>
									<text transform="matrix(1 0 0 1 49.8334 45.2272)" class="st8 st9">9:30</text>
									<g>
										<rect x="262.5" y="42.3" width="2" height="3.3"/>
										<rect x="265.4" y="41" width="2" height="4.6"/>
										<rect x="268.3" y="39.7" width="2" height="5.9"/>
										<rect x="271.2" y="38.2" width="2" height="7.4"/>
									</g>
									<g>
										<path d="M279.3,40.6l1,1c1.2-1.1,2.8-1.7,4.5-1.7s3.3,0.6,4.5,1.7l1-1c-1.5-1.4-3.4-2.1-5.4-2.1S280.8,39.2,279.3,40.6
											L279.3,40.6z"/>
										<path d="M281.1,42.4l1,1c0.7-0.6,1.7-1,2.7-1s1.9,0.3,2.7,1l1-1c-1-0.9-2.3-1.4-3.6-1.4S282.1,41.5,281.1,42.4z"/>
										<path d="M282.9,44.3l1,1c0.3-0.2,0.5-0.3,0.8-0.3s0.6,0.1,0.8,0.3l1-1C285.5,43.4,284,43.4,282.9,44.3L282.9,44.3z"/>
									</g>
									<g>
										<path d="M296.8,39.1h12.4c0.1,0,0.2,0.1,0.2,0.2v5.2c0,0.1-0.1,0.2-0.2,0.2h-12.4c-0.1,0-0.2-0.1-0.2-0.2v-5.2
											C296.5,39.2,296.6,39.1,296.8,39.1z"/>
										<path d="M309.9,40.7h0.6c0.1,0,0.2,0.1,0.2,0.2v2c0,0.1-0.1,0.2-0.2,0.2h-0.6c-0.1,0-0.2-0.1-0.2-0.2v-2
											C309.7,40.8,309.8,40.7,309.9,40.7z"/>
									</g>
								</g>
								<g>
									<text transform="matrix(1 0 0 1 128.5737 609.8361)" class="st10 st11 st12">Don’t have an account?</text>
								</g>
								<g>
									<g>
										<g>
											<text transform="matrix(1 0 0 1 65.2441 327.2502)" class="st10 st13 st12">Email</text>
											<line class="st14" x1="65.2" y1="361" x2="295.3" y2="361"/>
										</g>
										<text transform="matrix(1 0 0 1 65.2441 349.007)" class="st13 st15">y</text>
										<text transform="matrix(1 0 0 1 71.4165 349.007)" class="st13 st15">ou</text>
										<text transform="matrix(1 0 0 1 86.104 349.007)" class="st13 st15">r</text>
										<text transform="matrix(1 0 0 1 90.5624 349.007)" class="st13 st15">name@</text>
										<text transform="matrix(1 0 0 1 137.3295 349.007)" class="st13 st15">g</text>
										<text transform="matrix(1 0 0 1 144.707 349.007)" class="st13 st15">mai</text>
										<text transform="matrix(1 0 0 1 165.4194 349.007)" class="st13 st15">l</text>
										<text transform="matrix(1 0 0 1 168.5122 349.007)" class="st13 st15">.</text>
										<text transform="matrix(1 0 0 1 171.351 349.007)" class="st13 st15">c</text>
										<text transform="matrix(1 0 0 1 177.2817 349.007)" class="st13 st15">om</text>
									</g>
									<g>
										<g>
											<line class="st14" x1="65.2" y1="430.3" x2="295.3" y2="430.3"/>
										</g>
										<g>
											<path d="M70.4,416.8c0,1.2-1,2.2-2.2,2.2c-1.2,0-2.2-1-2.2-2.2s1-2.2,2.2-2.2C69.4,414.7,70.4,415.6,70.4,416.8z"/>
											<path d="M79.4,416.8c0,1.2-1,2.2-2.2,2.2c-1.2,0-2.2-1-2.2-2.2s1-2.2,2.2-2.2C78.4,414.7,79.4,415.6,79.4,416.8z"/>
											<path d="M88.3,416.8c0,1.2-1,2.2-2.2,2.2c-1.2,0-2.2-1-2.2-2.2s1-2.2,2.2-2.2C87.3,414.7,88.3,415.6,88.3,416.8z"/>
											<path d="M97.3,416.8c0,1.2-1,2.2-2.2,2.2c-1.2,0-2.2-1-2.2-2.2s1-2.2,2.2-2.2C96.3,414.7,97.3,415.6,97.3,416.8z"/>
											<path d="M106.2,416.8c0,1.2-1,2.2-2.2,2.2c-1.2,0-2.2-1-2.2-2.2s1-2.2,2.2-2.2C105.3,414.7,106.2,415.6,106.2,416.8z"/>
											<path d="M115.2,416.8c0,1.2-1,2.2-2.2,2.2c-1.2,0-2.2-1-2.2-2.2s1-2.2,2.2-2.2C114.2,414.7,115.2,415.6,115.2,416.8z"/>
											<path d="M124.2,416.8c0,1.2-1,2.2-2.2,2.2c-1.2,0-2.2-1-2.2-2.2s1-2.2,2.2-2.2C123.2,414.7,124.2,415.6,124.2,416.8z"/>
										</g>
									</g>
								</g>
								<g>
									
										<linearGradient id="SVGID_00000178197420511252889920000001245746429283572139_" gradientUnits="userSpaceOnUse" x1="137.7643" y1="267.1321" x2="221.3385" y2="183.5579" gradientTransform="matrix(1 0 0 -1 0 735.1796)">
										<stop  offset="0" style="stop-color:#51F8E8"/>
										<stop  offset="1" style="stop-color:#5EEAA0"/>
									</linearGradient>
									<path style="fill:url(#SVGID_00000178197420511252889920000001245746429283572139_);" d="M120.9,490.6h117.4
										c7.6,0,13.7,6.1,13.7,13.7v11c0,7.6-6.1,13.7-13.7,13.7H120.9c-7.6,0-13.7-6.1-13.7-13.7v-11
										C107.1,496.8,113.3,490.6,120.9,490.6z"/>
									<text transform="matrix(1 0 0 1 158.7788 513.6232)" class="st17 st8 st18">Log In</text>
								</g>
								<g>
									<path d="M302.2,80.4c1.9,0,1.9-3,0-3S300.2,80.4,302.2,80.4L302.2,80.4z"/>
									<path d="M296.1,80.4c1.9,0,1.9-3,0-3S294.2,80.4,296.1,80.4L296.1,80.4z"/>
									<path d="M308.2,80.4c1.9,0,1.9-3,0-3S306.3,80.4,308.2,80.4L308.2,80.4z"/>
								</g>
								<g>
									<path class="st19" d="M158.5,263.1v-69.7c0-11.3,9.2-20.5,20.5-20.5h23v34.8h-12.8v-22.1H179c-4.3,0-7.8,3.5-7.8,7.8v56.9
										H202v12.8H158.5z"/>
									<rect x="189.3" y="222.7" class="st19" width="12.8" height="12.8"/>
									<path class="st19" d="M195.6,155.7c-4.3,4.3-9.4,6.5-15.3,6.5c-5.9,0-11-2.1-15.3-6.5c-4.3-4.3-6.5-9.4-6.5-15.3
										c0-5.9,2.1-11,6.3-15.3c4.2-4.3,9.3-6.5,15.4-6.5s11.2,2.2,15.4,6.5s6.3,9.4,6.3,15.3C202,146.3,199.9,151.4,195.6,155.7z"
										/>
								</g>
							</g>
							<g style="clip-path:url(#SVGID_00000166659656549844369460000002322117906666561181_);">
								<text transform="matrix(1 0 0 1 141.6889 453.6281)" class="st10 st13 st12">Forgot Password ?</text>
							</g>
						</g>
						
							<linearGradient id="SVGID_00000081608251489116916340000006763860577691944628_" gradientUnits="userSpaceOnUse" x1="336.6497" y1="383.1529" x2="344.2278" y2="383.1529" gradientTransform="matrix(1 0 0 -1 0 735.1796)">
							<stop  offset="0" style="stop-color:#000000;stop-opacity:0"/>
							<stop  offset="0.2" style="stop-color:#3D3D3D;stop-opacity:0.24"/>
							<stop  offset="0.49" style="stop-color:#8F8F8F;stop-opacity:0.56"/>
							<stop  offset="0.73" style="stop-color:#CBCBCB;stop-opacity:0.8"/>
							<stop  offset="0.91" style="stop-color:#F0F0F0;stop-opacity:0.94"/>
							<stop  offset="1" style="stop-color:#FFFFFF"/>
						</linearGradient>
						<path style="fill:url(#SVGID_00000081608251489116916340000006763860577691944628_);" d="M338,660V44.1c0-12.9-6-24.5-15.5-32
							c12.1,7.1,20.3,20.2,20.3,35.3v609.2c0,15-8.2,28.2-20.3,35.3C331.9,684.4,338,672.9,338,660L338,660z"/>
						
							<linearGradient id="SVGID_00000105388683054882696610000006321733525748284340_" gradientUnits="userSpaceOnUse" x1="7422.042" y1="383.1529" x2="7429.6206" y2="383.1529" gradientTransform="matrix(-1 0 0 -1 7438.9927 735.1796)">
							<stop  offset="0" style="stop-color:#000000;stop-opacity:0"/>
							<stop  offset="0.2" style="stop-color:#3D3D3D;stop-opacity:0.24"/>
							<stop  offset="0.49" style="stop-color:#8F8F8F;stop-opacity:0.56"/>
							<stop  offset="0.73" style="stop-color:#CBCBCB;stop-opacity:0.8"/>
							<stop  offset="0.91" style="stop-color:#F0F0F0;stop-opacity:0.94"/>
							<stop  offset="1" style="stop-color:#FFFFFF"/>
						</linearGradient>
						<path style="fill:url(#SVGID_00000105388683054882696610000006321733525748284340_);" d="M15.6,660V44.1
							c0-12.9,6-24.5,15.5-32c-12.1,7.1-20.3,20.2-20.3,35.3v609.2c0,15,8.2,28.2,20.3,35.3C21.7,684.4,15.6,672.9,15.6,660
							L15.6,660z"/>
						<path d="M85.2,14.2c2.1,1.4,5.7,4.6,6.4,10.1c0.9,8,4,17.7,17,17.7H245c13,0,16.1-9.7,17-17.7c0.6-5.5,4.2-8.7,6.4-10.1H85.2z
							"/>
						
							<linearGradient id="SVGID_00000181802015374948595340000014235401444126537365_" gradientUnits="userSpaceOnUse" x1="176.8" y1="706.9158" x2="176.8" y2="712.3784" gradientTransform="matrix(1 0 0 -1 0 735.1796)">
							<stop  offset="0" style="stop-color:#4D4D4D"/>
							<stop  offset="7.000000e-02" style="stop-color:#434343"/>
							<stop  offset="0.31" style="stop-color:#252525"/>
							<stop  offset="0.55" style="stop-color:#101010"/>
							<stop  offset="0.78" style="stop-color:#040404"/>
							<stop  offset="1" style="stop-color:#000000"/>
						</linearGradient>
						<path style="fill:url(#SVGID_00000181802015374948595340000014235401444126537365_);" d="M156.6,22.9H197
							c0.8,0,1.5,0.7,1.5,1.5v2.1c0,0.8-0.7,1.5-1.5,1.5h-40.5c-0.8,0-1.5-0.7-1.5-1.5v-2.1C155,23.6,155.7,22.9,156.6,22.9z"/>
						<g>
							<ellipse transform="matrix(0.2298 -0.9732 0.9732 0.2298 139.7035 228.9806)" cx="214.5" cy="26.2" rx="4.6" ry="4.6"/>
							
								<linearGradient id="SVGID_00000116924222918541038950000009120837172854977423_" gradientUnits="userSpaceOnUse" x1="219.718" y1="703.7493" x2="209.8504" y2="713.6169" gradientTransform="matrix(1 0 0 -1 0 735.1796)">
								<stop  offset="0" style="stop-color:#4D4D4D"/>
								<stop  offset="1" style="stop-color:#000000"/>
							</linearGradient>
							<circle style="fill:url(#SVGID_00000116924222918541038950000009120837172854977423_);" cx="214.5" cy="26.2" r="6.6"/>
							
								<linearGradient id="SVGID_00000007403409763927368790000002173993176484678584_" gradientUnits="userSpaceOnUse" x1="218.7709" y1="704.7034" x2="210.6974" y2="712.7635" gradientTransform="matrix(1 0 0 -1 0 735.1796)">
								<stop  offset="0" style="stop-color:#000000"/>
								<stop  offset="1" style="stop-color:#4D4D4D"/>
							</linearGradient>
							<circle style="fill:url(#SVGID_00000007403409763927368790000002173993176484678584_);" cx="214.5" cy="26.2" r="5.4"/>
							
								<linearGradient id="SVGID_00000170964570424743337820000014363065693913199792_" gradientUnits="userSpaceOnUse" x1="211.1254" y1="712.348" x2="218.5027" y2="704.9574" gradientTransform="matrix(1 0 0 -1 0 735.1796)">
								<stop  offset="0" style="stop-color:#0058EE"/>
								<stop  offset="0.69" style="stop-color:#000000;stop-opacity:0"/>
							</linearGradient>
							<circle style="fill:url(#SVGID_00000170964570424743337820000014363065693913199792_);" cx="214.5" cy="26.2" r="4.6"/>
							
								<radialGradient id="SVGID_00000115514016513264472110000015767546444417037758_" cx="214.9047" cy="704.3451" r="4.6192" gradientTransform="matrix(1 0 0 -1 0 735.1796)" gradientUnits="userSpaceOnUse">
								<stop  offset="0" style="stop-color:#0058EE"/>
								<stop  offset="0.86" style="stop-color:#000000;stop-opacity:0"/>
							</radialGradient>
							<circle style="fill:url(#SVGID_00000115514016513264472110000015767546444417037758_);" cx="214.5" cy="26.2" r="4.6"/>
							
								<radialGradient id="SVGID_00000170958890851057958050000005565476656427984310_" cx="218.8946" cy="710.4102" r="3.0259" gradientTransform="matrix(1 0 0 -1 0 735.1796)" gradientUnits="userSpaceOnUse">
								<stop  offset="0" style="stop-color:#0058EE"/>
								<stop  offset="0.7" style="stop-color:#000000;stop-opacity:0"/>
							</radialGradient>
							<circle style="fill:url(#SVGID_00000170958890851057958050000005565476656427984310_);" cx="214.5" cy="26.2" r="4.6"/>
							
								<radialGradient id="SVGID_00000044139033750643674020000012084479866979723162_" cx="211.678" cy="707.3978" r="4.5924" gradientTransform="matrix(1 0 0 -1 0 735.1796)" gradientUnits="userSpaceOnUse">
								<stop  offset="0" style="stop-color:#FFFFFF"/>
								<stop  offset="0.15" style="stop-color:#BDBDBD;stop-opacity:0.74"/>
								<stop  offset="0.29" style="stop-color:#838383;stop-opacity:0.52"/>
								<stop  offset="0.43" style="stop-color:#545454;stop-opacity:0.33"/>
								<stop  offset="0.57" style="stop-color:#2F2F2F;stop-opacity:0.19"/>
								<stop  offset="0.69" style="stop-color:#151515;stop-opacity:8.000000e-02"/>
								<stop  offset="0.8" style="stop-color:#050505;stop-opacity:2.000000e-02"/>
								<stop  offset="0.89" style="stop-color:#000000;stop-opacity:0"/>
							</radialGradient>
							
								<circle style="opacity:0.5;fill:url(#SVGID_00000044139033750643674020000012084479866979723162_);enable-background:new    ;" cx="214.5" cy="26.2" r="4.6"/>
						</g>
					</g>
				</g>
			</g>
		</g>
	</g>
	<g>
		<text transform="matrix(1 0 0 1 122.9536 630.7433)" class="st10 st29 st30">Create Account</text>
	</g>
	<g>
		<text transform="matrix(1 0 0 1 64.8295 396.3801)" class="st10 st13 st12">Password</text>
	</g>
</g>
</svg>
