<svg id="Layer_1" data-name="Layer 1" xmlns="http://www.w3.org/2000/svg" viewBox="0 0 477 755.97"><defs><style>.cls-1{fill:#7b7b7b;fill-rule:evenodd;}</style></defs><path class="cls-1" d="M126.39,764.52h-2.82l-5.36-8.29H270.72v8.29h-9.27v41.41l-10.68-9.37V780.17h-11a11.41,11.41,0,0,0-5.36,1c-1.73,1.09-2.6,2.87-2.6,5.39,0,3.5,1.54,6.91,4.63,10.17a40,40,0,0,0,4.75,3.9L238,803.38a80.75,80.75,0,0,1-8.31-6.73q-8.31-8-8.3-14.89a9.21,9.21,0,0,1,3.43-7.59,13.42,13.42,0,0,1,8.67-2.73h17.31v-6.92H211.61a18.78,18.78,0,0,1,.84,2.43,23.06,23.06,0,0,1,.93,6c0,5-2.22,9-6.75,12.17a32.57,32.57,0,0,1-6.89,3.38,22,22,0,0,0,1.55,1.9,50.89,50.89,0,0,0,5.59,5.23,81.53,81.53,0,0,0,6.63,5c.7.5,1.6,1,2.62,1.68l-3.07,2.95c-2.17-1.47-3.84-2.66-5.12-3.59-4-2.88-7.24-5.28-9.61-7.23a102,102,0,0,1-8.55-7.57c-3.48-3.46-5.21-6.23-5.21-8.26a4.55,4.55,0,0,1,1.66-3.66,7.48,7.48,0,0,1,5-1.4,11.56,11.56,0,0,1,5.24,1.67c.61.37,1.49.9,2.58,1.7a18.79,18.79,0,0,0,2.17-1.82,7.31,7.31,0,0,0,2.12-5,24.91,24.91,0,0,0-.18-3.8,8.25,8.25,0,0,0-.41-1.79H169.84v41.41l-10.68-9.37v-32H143.51v41.41l-10.7-9.37V786.49H119.4l-.34,3.46c-.14.81-.36,1.68-.49,2.53-.37,1.38-1.48,2.09-3.35,2.09s-4.92-1.86-9.17-5.63-6.35-6.5-6.35-8.33a2.13,2.13,0,0,1,1-2,4.42,4.42,0,0,1,2.59-.66h7l1-5a52.87,52.87,0,0,1-8.9-1.7c-6-2-8.92-5.33-8.92-10a5.66,5.66,0,0,1,2.5-4.93,11,11,0,0,1,6.54-1.78,18.17,18.17,0,0,1,12,4.82c3.7,3.21,5.59,6.88,5.59,11V778h12.78V764.52Zm399.55,0H511.45a15.1,15.1,0,0,1,.84,2.43,21.47,21.47,0,0,1,.93,6c0,5-2.23,9-6.73,12.17a31.84,31.84,0,0,1-6.89,3.38,13.8,13.8,0,0,0,1.56,1.9,45.58,45.58,0,0,0,5.57,5.23,78.2,78.2,0,0,0,6.63,5c.73.5,1.61,1,2.6,1.68l-3.06,2.95c-2.15-1.47-3.86-2.66-5.1-3.59-4.07-2.88-7.25-5.28-9.64-7.23a99.16,99.16,0,0,1-8.52-7.57c-3.48-3.46-5.24-6.23-5.24-8.26a4.52,4.52,0,0,1,1.66-3.66,7.58,7.58,0,0,1,5-1.4,11.56,11.56,0,0,1,5.24,1.67c.62.37,1.49.9,2.61,1.7a18.38,18.38,0,0,0,2.12-1.82,7.25,7.25,0,0,0,2.14-5,30.14,30.14,0,0,0-.17-3.8,7.87,7.87,0,0,0-.46-1.79H469.7v41.41L459,796.56v-32H434.45v8a11.88,11.88,0,0,1,1.54-.74,9.31,9.31,0,0,1,3.43-.71A13.27,13.27,0,0,1,449.76,776a17,17,0,0,1,1.53,20.51,17.3,17.3,0,0,1-2.71,2.92l-8.44-8.16a38.51,38.51,0,0,0,3.8-3q3.8-3.62,3.79-6.8a2.59,2.59,0,0,0-.59-1.91,3.84,3.84,0,0,0-2.95-.94c-2.15,0-4.39,1-6.77,2.93a21.4,21.4,0,0,0-3,2.94v21.61l-10.55-9.63v-6.32a21.9,21.9,0,0,1-2.72,1.15,17.29,17.29,0,0,1-5.84,1.28c-3.46,0-6.57-1.57-9.31-4.64s-4.09-6.19-4.09-9.32a8.13,8.13,0,0,1,3.56-7.19,12.49,12.49,0,0,1,7.12-2,16.08,16.08,0,0,1,7.72,2.32,29.22,29.22,0,0,1,3.56,2.4v-9.65H391.35a21.41,21.41,0,0,1,.87,2.43,23.45,23.45,0,0,1,.92,6c0,5-2.23,9-6.77,12.17a31.48,31.48,0,0,1-6.84,3.38,12.47,12.47,0,0,0,1.53,1.9,52.37,52.37,0,0,0,5.57,5.23c2.3,1.91,4.5,3.6,6.64,5,.7.5,1.59,1,2.61,1.68l-3.08,2.95c-2.13-1.47-3.84-2.66-5.13-3.59-4-2.88-7.22-5.28-9.6-7.23a92.63,92.63,0,0,1-8.5-7.57c-3.51-3.46-5.27-6.23-5.27-8.26A4.53,4.53,0,0,1,366,775a7.58,7.58,0,0,1,5-1.4,11.67,11.67,0,0,1,5.25,1.67c.61.37,1.46.9,2.57,1.7a14.87,14.87,0,0,0,2.12-1.82,7.13,7.13,0,0,0,2.18-5,26.68,26.68,0,0,0-.21-3.8,7.4,7.4,0,0,0-.38-1.79H349.62v41.41l-10.68-9.37V782.84c-.23.14-.41.26-.63.37a10.24,10.24,0,0,1-5.05,1.17,12.71,12.71,0,0,1-6.22-2.1,24,24,0,0,1-3.09-2.21l-1.05,1.49a18,18,0,0,1-2.74,2.89,27.22,27.22,0,0,1-4.37,2.78c-.32.13-.77.34-1.32.61.4.64.77,1.15,1.11,1.6.94,1.24,2.08,2.61,3.47,4.13a66.43,66.43,0,0,0,5.38,5.09c.82.64,1.94,1.51,3.34,2.64l-3.56,2.85c-4.21-4.14-7.32-7.4-9.38-9.79-6.33-7.37-9.47-12.8-9.47-16.39a5,5,0,0,1,1.3-3.59A4.43,4.43,0,0,1,310,773a7.77,7.77,0,0,1,3.43.84,4.88,4.88,0,0,1,1.44.86c.3-.6.58-1.05.75-1.5a12.63,12.63,0,0,0,.67-4,15.48,15.48,0,0,0-.57-3.78,3,3,0,0,0-.26-1h-13v-8.29H525.94v8.29Zm-102,15.13a13.34,13.34,0,0,0-2.31-.95,23.15,23.15,0,0,0-7-1,8.18,8.18,0,0,0-4.67,1.36,4.53,4.53,0,0,0-2.05,4.08,2.4,2.4,0,0,0,1,2,3.37,3.37,0,0,0,2.12.8,16.35,16.35,0,0,0,8.89-3.15,42.17,42.17,0,0,0,4-3.15Zm-85-5.2v-9.93h-14.6a10.8,10.8,0,0,1,.57,2,17.88,17.88,0,0,1,.73,4.56,21.26,21.26,0,0,1-.17,2.86A8.11,8.11,0,0,1,325,776c.84.34,1.47.61,1.94.77a17.68,17.68,0,0,0,4.6.84,10.91,10.91,0,0,0,5.71-1.91c.46-.33,1-.71,1.69-1.22Zm-227.25-5.09a7.68,7.68,0,0,0,.12-1.35,11.39,11.39,0,0,0-.83-4.73,4.38,4.38,0,0,0-4.28-2.85c-2.84,0-4.23,1.14-4.23,3.49s1.54,4,4.6,4.83A29.12,29.12,0,0,0,111.69,769.36Z" transform="translate(-63.03 -50.14)"/><path class="cls-1" d="M291,76.45c-3.75,1.17-18-11.54-9.74-16.87,13.22-7.46,6,12.64,9.74,16.87Zm5.92-16.87c-1.24,0-2.44,2-2.44,6.33,3.65,3.23,4.78,6.31,4.78,11.71l3.65-1.17c0-2,1.24-4.23,2.34-6.3-1.1-2.08-1.1-6.33-1.1-11.7l-7.23,1.13Zm11.91,0c3.57-3.23,5.92-4.39,9.57-3.23l-1,9.56v5.31c0,3.23-1.31,5.23-3.65,6.4a9.57,9.57,0,0,1-4.89-8.48V59.58Zm20.37-4.39c3.73-.91,6.1,0,6.1,2.25,0,5.31-5,9.48-6.1,11.7-2.36,1,0,5.31-1.23,7.31-2.34,2.24-5.92-1-7.05-8.38-1.21-3.16,0-5.32,2.36-7.4a14.26,14.26,0,0,1,5.92-5.48Zm45.51,495.09c7.2-8.47-10.7-19.17-10.7-19.17-4.89-6.33,10.7-13.71-2.45-36-12.09-22.36,2.45-55.3,2.45-55.3,13.11-49.85-4.89-58.47-4.89-58.47-17.93,19.17-22.71,13.87-22.71,13.87s13.06,61.6-2.42,87.1-3.67,36.11-3.67,36.11l3.67,1.1c2.42-2.08,2.42-10.64,2.42-15.94-1.11-6.33,2.43-28.67,6-26.59s2.44,13.79,2.44,13.79,2.25,14.94,4.61,14.94c3.73,1,2.52,13.8,2.52,13.8s0,16.94,8.37,14.87c0,0,13.29,9.53,10.77,15.93s3.58,7.4,3.58,7.4a4.65,4.65,0,0,0,1.2,3.14c1.21,0,2.35-1,2.35-3.14,0-1-2.35-3.25,2.44-4.17,4.79,0,1.21-2.16,1.21-2.16s-3.65-2.14-6-1.07c-2.26,2.16-1.2,0-1.2,0ZM387.8,377.06c0,2.17-1.13,9.63,4.88,9.63s4.79,5.31,4.79,5.31,16.7,16.94,17.93,28.58c0,12.79,4.79,64.92,0,63.85s4.79,6.31,4.79-1.09c1.13-7.46,7.19-58.44,1.13-73.25,0,0,2.51-5.39,3.65,0,0,0,4.86-1.15,5.92,21.21,2.42,22.33-1.06,37.18-2.37,37.18,0,0-7.2,23.42-1.14,31.81,4.79,9.62,9.6,6.39,4.79,19.19l3.68,6.39V528l-6-5.24s-2.45-2.23-2.45,0c0,2.07,5.93,6.31,4.79,6.31,0,0-2.34,3.16-3.65,1.09,0,0-7.2-9.63-5.92-13.87,0,0,0-4.23-3.65-1s2.37,19.11,4.88,20.17c2.34,2.16,17.93,4.17,15.49,10.55s10.78,12.88,10.78,13.86c-1.2,0,7.23,6.33-3.65,5.33,0,0-11.92,0-9.47-11.64,0,0-1.13-5.39-6.09,0l1.28,10.55s1.14,5.32-7.2-1c-8.36-5.4-12-12.8-17.93-28.73-7.3-16-10.78-19.11-8.36-28.67,1.06-10.61-16.8-20.18-14.43-24.41s-7.16-17,0-40.37c1.21-5.3,0-2.22,1.21-11.7,2.34-9.54-1.21-30.81,1.21-36.2s-7.13-4.15-6-11.7,7.13-6.39,7.13-4.24Zm-11.92,13.87c1.21,3.23,4.79,50-2.26,60.54-1.31,4.24,0,7.47-1.31,10.69,0,5.25,1.31,8.41-2.42,13.72-4.88,5.39-5.91,2.16-5.91,0,0-1,2.34-26.48,3.54-28.64,2.37-1.1,6.1-38.3,4.79-39.28-2.42,0,1.31-18,0-16,0,1,2.37-5.31,3.57-1.07Zm-68.21,7.46c0,11.7-1.21,12.71-1.21,13.8,0,0,1.21,0,5.91,3.15,2.35,2.16,2.35,5.24,3.66,7.46,1.31,6.4-1.31,14.87,0,14.87,1.31,1-1.31,25.5,0,27.57,0,0,6,24.5,8.44,26.66,1.13,5.31-1.22,12.71,1.13,11.64,1.21-1.09-2.35,23.32-5.92,28.64-3.65,4.24,0,18.1,1.21,19.17,0,0,8.28,8.47-6.17,9.47,0,0-26.09,3.24-21.48-8.38,0,0,2.41-12.86-4.61-17,0,0-3.76-9.54,1-15.93,3.58-6.4-1-7.47-1-7.47s-6.1-14.8,2.34-24.43c1.13-2.08,1.13-5.31,2.27-8.47,1.21-6.4-1.14-13.87,1.21-31.87,1.2-17-4.79-15.94-3.48-17,0-2.08-2.34-19.11,3.48-24.42,1.2-1.09,1.2-3.22,2.44-4.23a65.59,65.59,0,0,0,3.55-7.4,4.58,4.58,0,0,1,0-4.24c2.44-2.16,6-3.23,7.23,3.08v5.39Zm22.62,6.31c1.4,1.09,0,17.12,6.09,23.43,0,0,3.57,11.64,0,18,0,1.1,0,4.24-1.11,6.4,0,1.09-2.37,1.09-2.37,2.07-1.21,4.33,1.06,8.56,0,9.63s-5,1-5-1.07c-1.13-1-1.13-3.16-1.13-6.4-1.21-2.16-2.34-4.23-2.34-6.39s-1.22-7.38-1.22-13.87V421.82s-2.36-8.56-1.23-12.88c2.45-5.22,7.15-5.22,8.27-4.24ZM258.51,514.15c1.21-2.14,4.79-1.07,4.79-1.07v7.4c3.64,2.23,3.64-4.24,3.64-8.47a10.64,10.64,0,0,1,1.14-3.17c-1.14,0,2.52-5.3,4.88,6.4,3.55,9.54,5.92-9.56,2.42-11.7-3.72-1.09,0-21.27-1.21-20.2-1.21,0,1.21,0-1.21-3.23-1.3-4.23-3.57-17.95-6-17.95-1.3-1.15,0-38.26,0-38.26,2.45-6.4,6,1,6,1-1.3,0,2.42,20.17,2.42,20.17l-1.21-1c1.21,0,1.21,1,2.34,1v2.17s0,13.77,1.14,15.93c1.23,5.31,0,11.7,0,11.7-1.14-1.07,2.51,6.4,3.58,0,1.3-3.23,1.3-3.23,2.51-4.3,1.13-6.33,1.13-16,2.34-24.43,1.14-10.54-1.21-18,0-23.34,2.55-13.86,1.14-20.23-1.21-20.23-3.64-7.4-10.7-3.17-10.7-3.17-3.57-1-1.21,11.7-1.21,13.86,0,3.24-4.88,0-4.88,0l-1.14-6.4c1.14-6.39-11.91-10.62-14.35-15.93-1.21-2.08-3.65-2.08-4.78-2.08-2.45,1.07,1.13,0-3.65,2.08s-7.23-1-7.23,0c1.23,0-3.55-1-1.13,2.07,1.13,3.24-1.14,40.37,1.13,39.37,3.65-1.07,4.88,5.3,3.65,10.63,0,11.61,8.36,18,3.58,25.48,0,1.09,1.2,2.09,0,3.16,0,1.07,2.44,34,1.2,42.51v2.09c-1.2,0,3.58,6.47-5.92,9.63,0,0-2.51,6.31,3.51,2.08,0,0,8.43-4.24,7.3-8.47,0,0,2.34-3.24,3.57,0,0,0,0,4.23-2.44,5.3,1.21,0-1.13,8.56-8.43,10.63-8.29,3.17-3.51,9.56-1.14,9.56,3.55,0,2.35,9.46-1.23,9.46-3.65,1.16-3.65,3.25-1.14,5.39,0,0,2.37,6.33,4.72,1,0,0-3.58-5.23,1.2-4.14,0,0,1.24-22.33,9.67-29.82,1.14,0,1.14-1,2.35-2.08,2.34-6.4,1.13-10.63,1.13-10.63ZM205.88,369.66c-3.65,2.17,2.44,6.4,0,8.56-7.15,5.24-13.15,15.94-21.58,20.17,0,0-3.58-1.07-2.45,4.18,0,0,10.88,60.6-1.13,78.7a3.6,3.6,0,0,0-1.14,3.16c0,1.07-10.87,45.68-2.41,30.81,0,0,3.55-2.16,2.41,1,0,0-4.85,20.18,0,13.87,1.14-1.09,2.27-3.25,3.68-6.4,1-3.23,3.38-1,2.34,1.07,0,0-3.75,13.8,2.34,5.33l2.45-5.33s4.69-5.3,3.48,1.09c0,0-1.14,20.09-14.29,19.1,0,0-19.21-6.39-10.87,7.47,0,0,4.88,2-4.68,5.24-9.68,4.3,0,6.38,1.13,2.14,2.44-3.14,6,1,3.55,2.16,0,0-4.68,11.7,6,4.17,0,0,1.21-8.47,19.14-6.33,16.79,2.16-3.48-7.38-1.14-3.14,0,0-9.47-1.09-1.2-5.33,8.33-5.39,16.79-43.58,14.35-42.51,0,0,4.78-19.1,9.57-1.07,0,0,3.65,1.07,3.65-2.09-3.65-7.47,1.21-22.34,3.48-25.57,2.34-2.07,1.3,0,1.3-1,1,0,7.13-33,0-35s-8.43-54.15-6-49.91c1.21,4.23-1.24,0-1.24,0s4.79-17.1-3.55-13.86c-2.44,1-2.44-1.07-2.44-2.08-1.23-4.32,2.44-15.94-4.78-8.56Zm18,24.5s3.48-12.86,6,0C231,405.79,231,427,231,427s-1.13,6.33-4.69,1.09c-3.74-5.33-2.44-34-2.44-34Zm1,124.22c2.44,2.1,3.75-19.16,5-28.64,1.13-8.47,4.78-1.07,4.78-1.07a264,264,0,0,0,3.5,27.57C239.44,528,227.36,529,227.36,529c-10.71,6.39-4.78-12.78-2.44-10.64Zm8.46-52,1.28,12.77s-2.34,3.16-2.34,1c0-3.16,1.06-13.77,1.06-13.77Zm51.49-45.76s-2.34,11.79-2.34,13.94c0,3.15,3.55,0,3.55,0l-1.21-13.94ZM265.64,529s-2.34-5.31,0,1.09-5.92,4.24-5.92,4.24c0-10.64-5.9,2.07-5.9,2.07-7.22,18-2.44,24.4-2.44,25.56,0,2.08,3.65,0,3.65,0-2.44,1.1-2.44-5.3-2.44-5.3,4.79-8.56,8.37,0,8.37,0,0,8.47,8.43,0,0-3.17-7.14-3.23,1.2-11.7,1.2-11.7,7.23-8.47,5.92,5.3,5.92,5.3,3.58-1.15,1.31,10.57,1.31,10.57-1.31,4.3,4.78,2.14,4.78,2.14,2.34-4.23,13.05-4.23,13.05-4.23,2.44,0,0-1.16,0-1.16l-6-4.15c-17.93,2.16,0-4.32,0-4.32,4.85-1-2.35-2.08-2.35-2.08-3.5,1.09-3.5-2.07-2.37-3.16a1.41,1.41,0,0,0,0-2.14c-7.12,2.14-4.85-10.63-4.85-10.63-4.72-10.55-6,1.07-6,1.07Zm-39.32,7.4s1-5.31,2.35-3.08c0,0,7.13-2.23,6,1,0,1.06-4.78,13.77-7.3,12.76-2.44-2.14-1-10.69-1-10.69Zm-8.43,14.93,6-3.23h1l1.4,6.31-1.4,6.39-3.48-4.14-4.79-5.33Zm12,10.63s-3.56-17,5.92-12.77c6,0-9.48,9.63-5.92,12.77Zm98.06-23.4s-1.13-11.72,3.75-11.72c0,0,1.21,0,1.21,2.16,0,0,0,9.56-5,9.56Zm10.87,17L337.68,562s-6-3.14-3.72-8.47c0,0,3.72-1.07,2.42-3.23,0,0-3.48-11.7,4.78-8.47,0,0,2.37-3.23-1.21-9.63-1.14-1.07,0-4.23,0-8.47,0-7.47-1.14-15.94,0-17,1.21,0-1.14-12.77,2.44-12.77,3.65-1,1.14,8.54,1.14,8.54L346,516.24s3.4,18.11-1.21,15.94c-3.67-2.07,0,9.63,0,9.63s7.13,10.63,7.13,0c1.21-10.7,3.66-4.24,4.79-4.24,0,0,7.23,2,1.21,5.24,0,0-6,6.4,2.37,5.31,7.19-1,8.33,13.86,3.65,12.7,0,0,2.34-15.85-7.23-7.31L358,562s-2.34,2.08-3.55-1.16c-1.24-2-1.24-14.86-8.37-11.61,0,0-2.51,3.23,2.35,6.38,0,0,1.05,5.23-3.56,3.25,0,0-2.44-12.88-6-3.25Zm44.31-14.87s0-7.38,3.55-2.14c0,0,1.13,9.54,3.57,9.54,0,0,8.44,5.39,7.23,6.31,0,1.16,4.78,4.41,0,2.25-4.79-1.09-7.23-2.25-6,1,0,0,1.23,7.47-2.34,1.16,0,0,2.34-10.72-2.44-9.63-4.79,0-3.55-9.63-3.55-8.49Zm20.27,8.49s-2.35,6.38,0,5.22c1.3-.92,1.3,5.39,1.3,6.39,1,1.16,3.48,0,3.48,0v-7.31l-4.78-4.3ZM390.24,528l-1.13,2.16h1.13l6,3.23h1.21l-1.21-3.23L393.72,528Zm6,7.46-1.14,3.17,4.62,2.14v-3.15l-3.48-2.16Zm-23.95-46.74s3.57-14.87,5.92-1.09c0,0,1.31,12.71,2.44,12.71s3.58,2.16,2.45,3.25,0,1.07,0,1.07,0,18.1,1.13,18.1l1.21,2.07s-3.58,10.63-9.58,3.17c0,0-6-2.08-2.26-11.71,0,0,3.47-7.4-1.31-5.24,0,0-4.79,0-1.21-14.95,0,0,2.52,1.16,2.52-2.14a18.59,18.59,0,0,0-1.31-5.24Zm19.14,14.87-2.34,9.54s3.57,5.3,2.34,7.4c0,2.23,3.67,1.07,3.67,1.07v-5.31l-1.4-5.24-2.27-7.46Zm-185.57,50c-1.13-3.23,0-12.79,6-11.7,0,0,7.23,1,6-7.46,0,0,4.69-1,2.42,1.06-1.21,2.16,1.13,6.4,1.13,6.4s-9.57,8.47-10.78,10.63c-1.23,2-4.78,5.24-4.78,1.07Zm-51.53-11.7c2.45,2.07,4.79-6.4,8.44,0,2.37,6.31-4.79-1.09-3.65,11.7,0,0,0,6.31-4.79,2.08-3.48-3.15-1.21-16,0-13.78Zm-9.47,22.25s-2.44-6.38,2.35-5.22h5.91s2.45-1.16,1.21,1c-1.21,3.26,0,9.56,0,9.56s-3.48,5.39-4.69,0c0,0,2.35-8.56-2.43-5.32s-2.35,0-2.35,0Zm-2.44-20.18s-3.57-3.16,0,1.09c3.58,5.31-4.78,9.46-8.44,13.87-4.7,5.22,1.32,5.22,1.32,5.22,8.26-5.22,1.13,7.48,1.13,7.48-4.79,3.23,1.21,4.15,1.21,4.15,4.78,0,3.57-12.61,3.57-12.61,1.21-1.1,1.21-5.4,1.21-5.4-1.21,0-1.21-6.33,0-4.17,2.44,3.17,4.79-6.4,4.79-6.4s2.43,1,0-6.39c-2.35-8.54-4.79,3.16-4.79,3.16Zm58.73,29.8s4.71-5.39,7.15-1.15c1.11,4.23-4.88,2.24-2.44,5.39,2.44,2.1-4.71,5.33-4.71,3.17,0,0-4.86-1.07-3.55-3.17a15.8,15.8,0,0,1,3.55-4.24ZM184.3,579s3.64-6.48,4.78-6.48c0,0,3.65-2.07,3.65,0,0,0,3.58,0,1.14,2.24,0,0-2.34,4.24-1.14,4.24,0,0-3.65,6.25-6.09,4.24a1,1,0,0,1-1-1.09,9.12,9.12,0,0,0-1.3-3.15Zm-10.71,2.08s-3.57-4.33,0-5.4c2.35,0,3.58-3.16,3.58-3.16s4.68-2.07,4.68-1a2.88,2.88,0,0,1,1.41,2.14s-5,4.24-3.68,5.33c0,0-2.41,5.24-4.85,2.08-3.58-2.08-1.14,0-1.14,0Zm-12,1.07v-4.24c1.21,0,4.89-4.24,4.89-4.24s2.24-1.15,2.24,1.09L167.6,579s1.11,7.32-4.81,3.15c-4.79-3.15-1.21,0-1.21,0ZM153.14,579s3.66-5.33,6-5.33c0,0,1.23,0,1.23,1.09v2S156.8,577.92,158,580s-3.65,2.14-3.65,0c0-1-1.21-1-1.21-1Zm-9.56,3.15L142.44,579s2.44-3.32,4.79-2.25c1.3,1.16,2.43-1.07,2.43,1.16l-1.13,3.17-1.3,1.07v2.09h-2.35v-1l-1.3-1.09Zm0-1.07v0ZM134,579h3.66l1.21,1v1.07l-1.21,1.07v1.09h-2.34v-1.09H134V579Zm8.44,20.18s-2.34,9.56-1.21,11.63S140.1,614,140.1,614c-2.44-1.08,0,4.31,0,4.31,1.13,6.4,5.92-2.16,5.92-2.16,3.64-3.23,3.64,1.09,3.64,1.09s1.21,10.55,0,10.55c-2.43,0-2.43,3.24-2.43,3.24a64.29,64.29,0,0,1,1.3,6.39c-1.3,1,2.34,1,2.34,1,2.27,2.13,0,6.45,0,6.45s-4.85,6.32-3.64,7.48c0,0-6,4.16,1.3,8.31,7.06,3.23-7.3,8.56-7.3,8.56-7.23,0-3.57,14.87-3.57,14.87-1.21,4.3,9.57,8.53,9.57,8.53,8.36,3.17,3.64-4.23,3.64-4.23-3.64,0-8.43-5.39-8.43-6.39-3.57-14.85,10.7-11.71,10.7-11.71,2.45,4.24,3.66-4.24,7.23-4.24,2.42-1.07,2.42-9.54,2.42-9.54,2.37-5.32,7.23,1.07,7.23,1.07,2.37,5.33,3.57-1.07,8.26,4.24,3.57,5.33,8.36,0,8.36,0,1.3-5.31,7.23,0,7.23,0l9.57,5.33c-1.21,3.14,7.22,0,7.22,0,6-1.1,20.35,9.45,20.35,9.45s7.15,9.63,7.15,8.49c1.28,0,4.79,3.3,0,5.46-3.5,1,1.28,3.16,1.28,3.16,15.59,1,3.51-12.79,0-13.79s-3.64-6.4-3.64-6.4c1.13-2.14-7.13-7.47-14.36-9.63s-6-15.85-6-15.85c-4.79-9.62,6-7.49,13.22-9.62s8.26-15.88,8.26-15.88,1.23-9.63-1.13-11.7c-1.14-3.23,1.13-3.23,1.13-3.23,4.88,0,2.51-4.23,2.51-4.23-7.12-2.16,4.72-8.48,4.72-8.48,3.65-1.09-1.21-3.25-1.21-3.25-3.51-5.3-2.37,2.16-3.51,2.16-1.28-1,2.37,1.09-2.51,4.23-1.13,0-1.13,2.17-3.55,2.17-13.07,6.4-6,29.74-4.71,29.74,0,0-2.35,0-1.31,1.07,2.52,0-2.44,4.23-2.44,4.23-1,1.07-10.61,1.07-20.17-2.08-8.44-3.22-9.67,1-9.67,1-6,6.37-8.44-1-8.44-1,1.3-4.23-2.34-3.22-2.34-3.22-4.72,3.22-3.58-2.17-3.58-2.17l-2.44-8.56s2.44-4.14-1.11-4.14c-3.58-1.09-1.23-13.86-4.78-12.71s-1.24-4.33-1.24-4.33c3.58-5.23-2.44-3.14-2.44-3.14-1.11,0-5.92-4.26-5.92-4.26,1.24-2.13-6-4.29-6-4.29-17.93-6.31-14.36,12.86-14.36,12.86Zm2.44,4.17,2.35-1,1.3,2.14v5.24h-3.65v-6.37Zm10.71,3.23h3.55l1.23,1v1.16l1.21,1,2.45,1.09L162.79,614l-1.21,1.09h-2.44v-3.17L158,610.82l-1.2-1.09-1.21-3.14Zm4.78,10.62s3.66-1.09,3.66,0c1.13,1.07,1.13,2,2.44,2l3.55,1.16a2.22,2.22,0,0,1,1.13,3.23s-3.55,3.17-1.13,5.33c3.57,1,3.57,3.08,3.57,3.08s9.67,7.47-1.2,6.4c0,0-3.68-3.17-2.37-4.24,0,0,1.13-2.16-1.31-1,0,0-2.24,1-2.24-1.15l-1.31-3.08s-3.58,0-1.13-4.24c0,0,1.13-5.48-3.66-3.31-3.57,1.15,0-4.16,0-4.16Zm15.57-26.59,1.23,1c4.68,1.16-3.58,15,3.55,18.1-1.14,3.16,2.54,2.16,2.54,4.24,0,1.09,3.38-7.38,1,1.09s7.23,12.7,7.23,12.7c2.34,2.17,3.55-1,3.55-1,1.23-3.17,8.36-1.07,8.36-1.07,7.22-1,9.66,4.24,9.66,4.24,9.48,5.3,8.34-2.17,8.34-2.17v-5.24c0-1.15-2.34-1.15-2.34-1.15-3.65,1.15,2.34-11.64,2.34-11.64l1.14-5.24s-1.14,1,10.8-8.54c10.78-9.62,0-11.7,0-10.69s-53.8,1.07-53.8,1.07c2.27,1.15-1.3,1.15-1.3,1.15-3.55,0-2.34,3.14-2.34,3.14Zm10.7,1,1.3-1h1.14l1.31,2.17h-1.31l-2.44-1.16ZM205.88,597h3.55v2.17H207L204.75,597Zm0-6.4h-1.13l2.26-3.14h2.42l-1.11,3.14ZM186.64,598v-1c-1,0,0,1,0,0l3.75,1v2.17L186.64,598Zm7.23,1.17V597h2.44l1.31,1v1.17ZM180.72,598h3.58l1.3,3.18-1.3,1.15-2.45-1.15-1.13-1V598Zm14.36,14.87h1.23l1.31,2.17h-2.54v-2.17Zm-2.35-7.4h3.58l1.31,1.1-1.31,1h-2.44l-1.14-2.1Zm-15.56-1,9.47,1s7.23,0,1.3,4.24c-4.68,4.24-2.34,2.16-2.34,2.16l-8.43-7.4Zm135.2,23.27c2.35,0,5,2.17,5,4.24a5.29,5.29,0,0,1-5,5.39c-2.36,0-4.7-2.16-4.7-5.39,0-2.07,2.34-4.24,4.7-4.24Zm0-7.4c-7.15,0-14.27,5.33-14.27,12.79s7.12,12.71,14.27,12.71c7.31,0,13.23-5.33,13.23-12.71s-5.92-12.79-13.23-12.79Zm0,3.23c-5.91,0-9.49,4.17-9.49,8.41,0,5.39,3.58,9.63,9.49,9.63A9.83,9.83,0,0,0,322,632c0-4.24-4.68-8.41-9.65-8.41Zm0-3.23c-7.15,0-14.27,5.33-14.27,12.79s7.12,12.71,14.27,12.71c7.31,0,13.23-5.33,13.23-12.71s-5.92-12.79-13.23-12.79Zm0,3.23c-5.91,0-9.49,4.17-9.49,8.41,0,5.39,3.58,9.63,9.49,9.63A9.83,9.83,0,0,0,322,632c0-4.24-4.68-8.41-9.65-8.41Zm-1.06-56.28c-39.65,0-71.87,29.71-71.87,65.84S271.66,699,311.31,699c39.34,0,71.81-29.8,71.81-65.85s-32.47-65.84-71.81-65.84Zm0,6.37c34.73,0,63.37,26.51,63.37,58.32,0,33-28.64,59.53-63.37,59.53S247.81,665,247.81,632c0-31.81,28.7-58.32,63.5-58.32Zm-15.66,7.41,9.57,34v2.15h-2.34l-1.21-2.15-16.8-29.8a11.49,11.49,0,0,1,10.78-4.17Zm3.58,0s4.89-3.17,7.23-1.07c0,0,2.34,2.14,2.34,3.23-1.13,1-1.13,22.24-1.13,22.24h-2.45l-3.55-13.86c1.21,0,1.21-1,0-1l-2.44-9.53ZM313.69,579s6-2.25,7.2,1c0,0,3.58,0,0,6.31A23.48,23.48,0,0,0,317.34,598c1,5.34-2.62,17-2.62,17h-2.35s-1.06-35,1.32-35c2.34,1.07,0-1,0-1Zm11.91,4.24s2.34-4.24,4.69-2.16c1.4,3.16,3.67,2.16,3.67,2.16s6-1.09,1.31,5.24c0,0-14.38,20.26-14.38,22.33,0,0,0,4.24-2.52,1.07,0,0,1.31-10.69,2.52-9.54,0,0,3.58-12.79,2.36-11.73-2.36,0,2.35-7.37,2.35-7.37ZM273,593.79v-3.17l4.69-3.14v-1.15h3.58l2.51,4.29,15.49,26.59v2l-2.34-2L273,593.79Zm67-6.31,1.21-1.15,3.67,1.15v1l4.61,2.13c5,3.17-4.61,5.33-4.61,5.33l-16.89,18-3.47,2.15v-3.23L340,587.48Zm14.46,7.4,3.55,7.47v2.14l-14.43,6.33-14.36,9.54-3.57-1.16v-.92l28.81-23.4Zm-25.24,28.71,31.16-17,2.34,1v4.3H365l1.31,2.08v1.09L364,616.12l-27.6,8.56-7.21-1.09Zm2.52,4.17L365,619.2h3.65v10.73h-37l-1.4-1,1.4-1.16Zm0,5.39h38.2V643.7H365l-2.34-2.07-8.26-1.1h-7.33l-1-1.06h-7.23l-1.13-2.08H334s-3.67-4.24-2.27-4.24Zm2.27,7.38h3.72l2.27,1.1,8.44,1.07v1h8.36l3.58,1.15,4.68,1h1.31l1.2,4.24-1.2,5.3L364,656.49l-31.08-16ZM270.6,596l23.85,24.41v2.16L291,621.37l-15.59-11.64-8.44-4.24H264.6v3.26l29.85,16.94v1.07H292.1l-10.87-3.17s-4.72-2.22-5.85-2.22-15.66-3.09-16.87-3.09c-2.34,0-2.34-4.31-2.34-4.31l2.34-1.08v-6.3l2.45-1.1h1.2v-2.13l5.92-7.41Zm-16.78,24.41h2.35l6,3.23,13.22,2.1L291,628.92l1.13,1V632H261l-4.79,1.15L253.82,632l-1.23-2.07v-2.17l3.58-1L255,624.68h-1.21v-4.32Zm0,17L255,636.3l38.21-2.14,1.21,1.07-2.35,2.16-32.38,9.47-5.9-1v-8.47Zm41.83,2.08v2.16l-33.49,18.1c-6-3.24-3.65-8.56-3.65-8.56l37.14-11.7Zm-33.49,24.4,34.73-20.17h2.34l-1.13,2.16L277.65,666l-4.69,6.4H270.6l-8.44-8.56Zm39.51-17s-4.78,4.31,0,2.17c4.79-3.17,3.55,6.37,3.55,6.37l-2.34,4.33-1.21,4.14-2.44,6.4v7.47c2.44,6.33,3.65-1.16,3.65-1.16l2.34-7.38,1.24-11.64c2.34-7.46,3.55,0,3.55,0l1.3,23.34c2.38,6.4,3.41-2.07,3.41-2.07l2.62-25.57c-1.31-10.56,5.91-2.09,5.91-2.09l17.91,26.57v3.16h-3.48L335.27,683c-3.58,2.09-5-4.15-5-4.15l-1.12-4.32-3.57-6.31-1.13-6.4-1.22-3.23-1.23-1h-2.34v1l1.21,8.56L327.94,682v4.23H325.6L322,685.07l-9.65,1.14-1.06,1.09h-7.19l-3.68-1.09V683h-1.21l-1.13,2.09h-9.47L284.87,683l1.21-2.08,1.14-4.32,4.88-7.38,4.79-8.56,4.78-9.47V650.1l-1.23,1.07-2.34,2.09L291,662.89s-7.23,11.62-7.23,14.85-3.58,1.09-3.58,1.09l-6-2.25v-2.07l1.21-1L299.23,649l2.44-2.17Zm22.8-2,26.18,25.42s-2.26,8.56-4.61,6.31c-3.65-2.07-20.44-26.48-20.44-26.48l-1.13-5.25Zm5.82-2.15,30,15.87s2.34,1.16,1.2,3.23-2.44,4.23-2.44,4.23,0,3.17-3.47,1.1c-3.66-2.17-26.45-22.28-26.45-22.28V643.7l1.12-1Zm-105.37,8.47s-5.82-8.47,2.44-7.47c0,0,9.57-3.17,9.57,3.16,0,0-1.13,18.1,6,18.1,0,0,4.86,6.4,3.65,8.54l9.57,9.48,6,5.39s0,4.23-3.65,4.23c0,0-2.34,4.24-3.48,0,0,0-2.44-9.62-8.43-13.77,0,0-4.79-4.32-4.79-7.47,0,0,0-5.33-6-5.33,0,0,0-5.39-2.42-3.14,0,0-6,2.07-6-4.32,0,0-4.78-3.17-2.44-6.24,2.44-3.3,0-1.16,0-1.16Zm-13-77.49s-1.21,0,7.23-4.3c7.22-3.23,3.48,4.3,3.48,4.3-2.27,0-2.27,3.08-3.48,4.24a2.43,2.43,0,0,1-2.45,2.1c-4.78,5.24-4.78-5.25-4.78-6.34Zm14.45,4.24s-1.4-4.24,1-4.24l5-5.39s7.12-2.14,5.84,1.09c0,0-4.78,4.3-3.5,6.31,0,0-3.65,9.57-6,3.32-2.35-7.47-2.35-1.09-2.35-1.09Zm14.26-1.16s-2.42-4.23,0-5.22c3.58,0,9.67-4.23,9.67-4.23l2.34,1s-8.43,7.4-4.78,8.47V579h-6l-1.23-2.25ZM255,579c-8.43,1-3.65-3.32,0-5.33,4.69-2.14,2.35-3.22,2.35-3.22a13.68,13.68,0,0,0,3.58-1.08l1.2,2.16s-3.65,7.47,1.14,4.15l3.64-4.15s4.72-3.25,4.72,2.14c-1.06,4.24-3.58,3.08-3.58,3.08V579l-3.48,3.15s0-5.4-9.57-3.15Zm-1.21,8.47s-3.57,3.14-6-2.22c0,0-1.21-3.1,1.13-3.1h1.31s3.57-1.07,4.78,0c2.35,2.09,3.48,2.09,3.48,2.09l1.21,1H261l-1.24,1.07v1.15h-1.21l-1.13-1.15h-3.56v1.15Zm116.07,2.08c-2.37-3.23,7.2-7.4,13.23-5.31,1.13,1,3.55,0,3.55,1,2.44,2.22,2.44,6.37,2.44,9.62,0,0-2.44,1.07,0,1.07s0,4.24,0,4.24l-2.44,4.3v1l1.13,1.1v8.47h-3.55l-1.13-3.17c-1.24-9.54-10.81-19.1-13.23-22.33Zm76.56,19.19,1.31,1s-1.31,1.09-2.35,2.16l2.35,4.23c1.14,4.24-3.65,5.25-3.65,5.25-2.35,4.32,3.65,5.39,3.65,5.39H456l1.31,1,1.21,2.17h2.36v-3.17l-1.23-1.07h-2.34l-1.31-1v-2.16a1.5,1.5,0,0,1,2.52-1.15c1.13,2.22,2.36,0,2.36,0v-4.16s-1.23-13.85-1.23-16c0-1,0-4.18-2.34-2-2.34,1-4.88-4.31-4.88-4.31,1.13-2.09-7-5.32-7-5.32l1,19.19Zm-3.58-19.19c2.54,0-3.55,1.06-2.41,0,0-1.07-2.27-1.07-1.14-2.08,2.44-3.23-9.49-2.22-15.49-3.23-4.88-1-3.64,5.31-3.64,5.31-1.24,2.07,7.19,6.39,7.19,6.39,2.45,3.24-4.78,5.25-4.78,5.25-2.41,4.29-4.79-3.18-3.65-5.25s-2.34-2.16-3.55-2.16v-5.3l-2.44-1-1.14-2.22v7.53c-1.21,2.09-6.09,3.16-6.09,3.16-9.47,2.07-7.05-8.47-7.05-8.47v-3.23h-3.56l-1.4,7.38,1.4,2.16s2.35-1,2.35,1.09c0,0,0,3.14-1.21,3.14-2.54,0-6,5.34-3.58,9.57,0,0-1.23,10.69,2.44,8.53,2.35-1.06,2.35,4.24,2.35,3.08,0-.92-1.21,2.17-1.21,2.17l-1.14,1.15h-3.67v2.16h6l-1.21-1.09v-1.07h1.21l1.21-1.15,1.06-1h4.95v3.23h-1.3l-2.35,2.1-1.3,1.07-2.27,1s-1.21-1-1.21,0v2.17H401V632l-2.36,1.15-1.21,1,1.21,1.07H401l1.21,2.16v1L401,639.47h-1.3v3.23l1.3,1,2.35,1.15,2.34-2.15,1.31-2.17h4.78l1.14-3.14h1.21l1.23-1.09h1.21v1.09l1.2,1v2.13l-1.2,2.17-1.21,2.15v1l-1.23,1h-3.56V642.7l-1.23,1-1.21,1.15-1.13,1-1.31,1-1,1.16v1h-1.3L401,650.1v4.3l1.21,1h2.44v-2.14h1l3.65-.93v3.07L407,656.49h-1.31v2.08h-1s0,2.07,1,2.07a4,4,0,0,1,2.44,1.16h1.21c0,1.09,6,2.07,6,2.07V666c-1.23,1.1,0,3.17,0,3.17l1.21,2.16,2.34,1.07v2.08c1.24,0,1.24,3.23,1.24,3.23L419,678.83v1.07a1,1,0,0,1-1.14,1c-1.2,0-2.41-2.07-2.41-2.07l-1.23-2.25s-3.56-2.07-2.35,1.16S413,679.9,413,679.9l1.21,1L415.4,682V692.6h1.21l2.34,1.09,3.65-1.09v-1.07l1.23-1v-1.15L425,687.3l-1.14-2.23v-8.49s2.34,1.16,2.34,0V663.87L425,661.8v-3.23s5.92-15.87,8.34-10.55h0s1.22-1.16,1.22-2.16V636.3H437s3.48,0,2.34,1.09v-3.23h-1.13l-1.21-1L433.31,632s-2.42-7.32,0-7.32c3.67,1,2.54-2.16,2.54-2.16l3.47-4.24s2.44-14.92-9.49-5.39c-12,8.48-7.23,3.23-7.23,3.23l-2.41,3.08-2.38,2.17-2.41,1.15L413,623.59h-1.14s-6.09,0-2.44-4.39a11.51,11.51,0,0,1,7.23-6.31l4.71-4.14v-3.26h6.06l2.45-3.14,2.34-1.15,1.14,2.16,1.22,3.23h1.32l1.13,1h3.48l6,1.16-3.58-19.19Zm1.24,0h0Zm-52.66,27.65,1.23-1.09v3.08l-1.23,2.17h-1.21l1.21-4.16Zm0,8.48,1.23,1.07,1,1-1,1.16-1.23-2.16v-1.07ZM386.67,632c1.13,0,1.13-6.31,3.57-1,0,0-1.13,7.4,1.21,8.47h1.23v3.23c-1.23,5.32-1.23,10.56,0,10.56,0,0,2.44,1.14,1,3.23-1,2.08,3.75,9.54,3.75,5.31l1.21,2.07s-2.42,2.16,0,2.16c0,0,2.36,1.1,3.57,0,0,0,7.13,0,5.92,1.1,0,2.07,1.21,2.07,1.21,2.07s1.23,2.16,0,3.23c0,0-1.21,3.17,0,3.17l-1.21,2.14a3.63,3.63,0,0,0,1.21,2.16s0,3.08-3.65,3.08c-3.48-1-1,2.09-1,2.09s-2.44,0-2.44,2.23c0,0-1.21,6.39-3.57,6.39h-1.21s-7.23,4.24-6-3.16c2.27-7.55,11.94-10.63,10.8-18.1,0,0,0-4.23-2.51-2.16,0,0-2.27,9.63-4.62,8.56-1.4-1.09-3.67,1.07-3.67,1.07l1.23,1s1,3.17,0,3.17c0,0-7.22,8.53-8.43,8.53h-1.13s-2.45,4.24-6,1.09c0,0-4.78-2.16-6,0,0,0-12,3.15-9.57-2.16,0,0-2.44-8.55,3.48-6.46,0,0,1.31,0,0-2.09,0,0,1.31-4.15,3.65-3.08,0,0,3.65-6.4,5-5.39,1.06,0,2.26-4.24,3.47-3.15h0s4.79-3.16,2.45-4.23c0,0-1.31-8.56,2.34-7.4,0,0,5.92-2.17,4.79-9.63-2.42-8.47,0-19.1,0-18.1Zm53.79,10.7s0-7.47,2.41-6.4c1.24,1.09,1.24-1.07,1.24-1.07s2.34-4.23,3.65-2.08c0,0,1.14,1,1.14,0,0,0,0-3.22,3.55-1.15,0,0,7.22,3.23,8.45,2.16,0,0,2.34,0,1.14,1.07,0,0,1.2,7.47,4.86,8.47,0,0,2.27,1.15,1.21,2.16-1.21,2.16,0,1,0,1s-1.21,5.47,0,5.47c0,0,1.06,3.07-2.42,7.4-4.79,4.14,1.21,8.47-7.15,10.54,0,0-5,4.24-3.55,7.47l2.34,1.09,1.21,3.15s0,5.32-2.52,3.09l-1-4.17s-1.41-2.07-2.54,0l-1.12,4.17-1.23,3.3-1.2,2.16-1.14,1s-10.78,3.17-4.89-4.23c6-6.4,3.58-5.32,3.58-5.32l1.31-6.38a4.06,4.06,0,0,1,2.34-1.09c2.35,0,2.35-2.08,3.48-4.24,0-3.14,1.41-2.07,1.41-2.07s3.55-4.33,0-3.24l-4.89,2.17s-3.65,0,0-2.17l7.23-6.39s1.21-3.17-1.31-2.08l-8.26,3.24-3.65,2.07-2.35,1.09s-3.57,2.07-4.78,0c0-2.25-4.81,0-2.45-6.4s8.34-7.46,5.93-9.63c-2.27-2,0-4.16,0-4.16Zm-9.57,25.5s1.28-3.24,6.09-1.07h2.34l2.44,1.07,1.11,2.07,1.24,1.09v1.07l-1.24,1.07-1.11,4.24v3.16l-1.3,1.08v1l-1.14,2.09-1.13,1.14L437,687.3v1.07l-2.45,1v2.15s-2.36,2.16-2.36,0a9.33,9.33,0,0,0-1.28-4.23l1.28-2.23L430.89,683s-3.51,1.09-2.37-2.08a4.45,4.45,0,0,0,0-4.32s2.37,0,2.37-1v-7.4Zm3.64,3.16L437,669.2h3.48v4.3l-1.14,1h-1.13l-1.21-1-1.13-1.07-1.32-1.07Zm1.32,4.24h2.34v4.3h-2.34l-1.32-1.07,1.32-3.23Zm37-60.54c0,3.22-3.72-1.09-3.72-1.09v-2.08l-2.27-3.14-1.21-6.4c-2.45-7.47-2.45,2.14-2.45,2.14l1.21,6.33,1.24,8.38v7.56l2.42,8.47s1.06-8.47,0,1.07c-1.21,8.55,2.36,7.4,2.36,7.4,8.44,3.16,0,14.87,0,14.87-3.57,3.23,0,14.93,0,14.93,0,4.24,2.42-2.14,2.42-2.14V666c1.13-5.39,3.58-1.07,3.58-1.07l-1.21,3.24,1.21,10.63c2.44,3.15,3.65-1.09,3.65-1.09s-1.21-6.38,0-9.54c2.27-2.17,3.48,1,3.48,1v4.3s1.13,0,1.13,2.1,1.41,0,1.41,0V638.4s-1.41-23.34-1.41-24.43a3.41,3.41,0,0,0-1.13-2.08l-1.21-9.54v-3.16L480.12,597c0-5.39-2.52,0-2.52,0l1.31,3.17,1.21,3.17v7.46c0,4.24-3.65,0-3.65,0l-1.21-2.07V594.88s0,3.14-2.37-1.09c-2.42-5.3-2.42,1.09-2.42,1.09l1.13,8.48s1.29,0,0,1.13c-1.13,1,0,6.33,1.29,10.57Zm11.84-18s-1.13-11.76,2.44-8.53l3.58,5.3s0,13.8,3.65,11.7c0,0,2.34,5.33,1.21,9.57,0,0-2.45,6.31,1.13,7.46,2.51,2.16,1.3,31.88,0,31.88L493.16,665v9.55s-2.41,3.23-3.47,0c-2.52-3.15,0-46.75,0-46.75s1.06-14.87-1.21-12.7c-1.31,1.06-1.31-12.71-1.31-12.71L484.73,597Zm16.9,12.71s1-3.14,1-1c1.31,3.14,3.75,3.14,3.75,3.14v17a33.14,33.14,0,0,1,1.21,7.38v10.56s-2.44,8.54-3.65,9.63c-1.31,0-2.34-46.76-2.34-46.76Zm9.56,17h2.42s1.14-1.07,1.14,1V632h-1.14l-2.42-5.24Zm-47.95,51s1.21,7.33,0,6.33a1.39,1.39,0,0,1,0,2.14c-2.34,0-2.34,5.32-2.34,5.32s2.34,4.24,2.34,5.31c0,2.16,3.66-1.07,3.66-1.07l2.27-1.07c2.43-1,0-2.1,0-2.1-5.93-2.07,0-13.77,0-13.77,1.3-3.23-1.06-4.32-1.06-4.32-3.66-4.24-4.87,3.23-4.87,3.23ZM113.73,601.2s-1.3-5.25,1.21-1c0,0,3.48,2.16,3.48,4.3l1.4,3.1,1,1.16s2.44,2.07,1.21,9.53A62.22,62.22,0,0,0,123.3,631v11.7s4.79,5.32,4.79,1c0,0-2.45-8.47-2.45-10.55v-8.47s0-7.47,1.31-5.48c0,0,3.48,5.48,4.71,2.17,0,0,1.21-2.17,2.34,0,0,0,8.44,4.32,8.44,12.79v3.23s1.14,11.64-6,9.47c0,0-2.45,2.17-2.45,3.24,0,0-3.57,6.39,2.45,5.3,0,0,4.78-3.07,3.65,1.09,0,0,1.13,4.15-4.78,2.08,0,0-1.32-4.17-6-2.08a1.3,1.3,0,0,0,0,2.08c-1.21,2.07,0,3.23,0,3.23s-2.35,7.4,3.57,4.23c0,0,7.23-4.23,4.79,0,0,0-4.79,2.17-4.79,5.33,0,0,1.13,8.54-1.21,10.62,0,0-3.57,1-3.57,3.09v6.46s-2.45,3.17-3.75,0c0,0-2.27-7.46,1.3-12.7,4.79-5.33-1.3-10.63-1.3-10.63s-3.48,1-3.48-1.07V653.26s1.21-6.4-1-6.4c-2.54,0-1.4-4.16-1.4-4.16s2.44,1,1.4-1.07v-11.7c1,0,0-10.73-1.4-8.56,0,0-1.14,1.15-1.14-1v1s1.14-12.62,0-11.64c1.14-1-3.55-8.53-3.55-8.53Zm9.57,2.16,1,6.37v1.09l1.3,1.07,1.31-1.07v-6.33l-3.65-1.13Zm0-9.57s1,2.16,2.34,0,10.81,5.4,10.81,7.41c1.21,2.16-2.45,1.15-2.45,1.15l-10.7-8.56ZM106.61,638.4l1.11,1.07h1.13v3.23h-1.13v-1.07c-1.11,0-1.11-3.23-1.11-3.23Zm9.47,12.77s8.26-2.14-1.14,0c-8.33,2.09,1.14,9.47,1.14,9.47v-9.47Zm63.5,20.19s2.27,3.15,4.72,0c0,0,6.09-6.4,7.23-2.16,0,0,0,6.4,6.09,4.3,0,0,9.39-1.07,9.39,1l3.65,3.23s7.23,0,7.23,2.16c0,0,2.42,2.08,0,5.17l1.21,3.3-1.21,5.32s2.42,4.24,1.21,5.31c-2.45,1.07-1.21,0-1.21,0s0,9.56-2.44,5.31c0,0-4.79-2.14-3.58-3.24,0,0-1.21-3.14-3.55-1,0,0,1.11,7.33-2.44,4.24,0,0-3.65-1.07-1.13-6.38,0,0,1.13-4.24-4.89,0,0,0,0,9.47-4.78,6.38,0,0-3.55-3.24,0-4.24,0,0,2.54-6.38-4.69-2.14,0,0-2.45,10.63-7.13,7.38,0,0-6.09-4.24,0-5.24,0,0,4.68-3.23,0-3.23,0,0-8.53-1.07-8.53,4.23,0,0-3.58,3.24-3.58-1l1.24-3.23s2.34-3.15-2.37-2.14c0,0-6,1.07-7.23-1,0,0-1.21-5.32-6-3.16a8.74,8.74,0,0,1-3.66-7.55s1.21-4.15-3.48-2.08c0,0-1.13,4.17,0,4.17s-2.43-2.09-2.43-2.09-2.35-4.15,0-4.15c0,0,4.78-5.33,4.78-2.25v1.16s1.13-3.23,2.34-4.24l8.44-4.3,4.81-1s9.57-1.07,9.57,2.07,2.41,1.09,2.41,1.09Zm37.07,1.07s28.71,12.64,13.23,21.26c0,0-5,3.15-3.56,0,0,0,9.48-11.71-6-17.11-15.56-6.31-3.66-4.15-3.66-4.15Zm8.27,25.5s-7,4.24,0,7.38h2.44v-7.38Zm6.09,2.14h7.15v6.33H235.8l-3.48-3.16L231,700.07Zm11.94,2.1,7.3-4.24H255v2.14l-3.65,1v5.33l-3.57,1s-6-2.09-4.86-5.23Zm18-1.1s8.43-6.37,6-4.23c2.45-2.14,3.66,2.16,3.66,2.16-5-1.07-6,8.4-6,8.4-2.44,1.16-8.43-2.09-8.43-2.09-2.35-4.24,4.79-4.24,4.79-4.24Zm9.64,2.17,2.36-3.17s4.69-2.14,3.55,2.1l-1.13,5.23a3.58,3.58,0,0,1-4.78,0c-1.21-2.09-1.21,0-1.21-2.09s1.21-2.07,1.21-2.07Zm13.14-1.07c0-1.1,3.48-3.17,3.48,1.07,0,0,1.41,2.07,0,3.16,0,0-1.14,4.24-3.48,1,0,0-3.58,0-2.51-4.16,1.3-5.31,2.51-1.07,2.51-1.07Zm9.5,1.07h3.65v5.32h-2.44l-2.35-1.16,1.14-4.16Zm8.43,2.07,4.79-3.14H310v4.23l-2.34,1v2.14h-2.45l-2.34-2.14h-1.21v-2.09Zm13.05,0,1.31-2.07h7.22l1.22,3.16-1.22,2.16-1.23,1h-4.68L316,706.4l-1.31-1.09Zm12.09-3.14h4.88s1.21-1.1,1.21,2.14A4.36,4.36,0,0,0,334,707.4h-4.79s-3.57-3.09-3.57-4.16l1.21-1.07Zm8.46-2.1v4.24h2.41v3.09h5.85v-5.23h-2.37l-1.21-2.1Zm10.77,1,1,4.24h1.31v2.09l3.57-1v-4.23l-1.31-1.1s-4.61,1.1-4.61,0Zm10.71-1V699l4.78,2.07,2.45,1.1-1.31,4.23h-3.58s1.24-1.09,0-1.09v-1L358,702.17l-1.21-2.1Zm10.77,1v-1l6.1-1.07,1.06,3.17v3.14l-1.06,2.09-3.73-1-1.23-3.16-1.14-2.17Zm10.71-1,2.44-2.14,2.45,1.07,2.34,2.07,1.21,3.24h-3.55l-2.45-1.07-1.13-1.07-1.31-2.1Zm12-2.14v4.24l2.44,2.14h2.44v-2.14l-1.4-2.1V699l-3.48-1.07Zm9.5,0v4.24h2.51v2.14h5.92v-3.24l-1.13-1L405.73,699l-6-1.07Zm12.08-1.09h3.58V699l1.21,1.07v3.17l-4.79-1.07v-5.33Zm10.78,0h3.57v1.09h1.21v5.31l-1.21,1.07-2.34-1.07-1.23-1.07v-5.33Zm9.57-1.07h1.14l2.54,3.23v3.17h-3.68l-1.28-6.4Zm6-1.07,1.13,3.23,1.14,1.07,1.3,1.07h1.11l-1.11-3.23v-1.07l-3.57-1.07Zm8.26,1.07h3.65l1.23,2.16,1.12,2.14-1.12,2.1-1.23-1.1-2.34-1s0-4.3-1.31-4.3ZM247.81,718.11S371.1,720.18,374.68,717c3.55-2.1,8.44,5.3,3.55,9.45,0,0-8.34,0-7.13-6.31l-2.44,1.15s-3.65,9.48-9.57,3.17l-2.34-1.09s-2.34,6.39-8.36,0c-6-5.3-1.31,0-1.31,0s-4.69,7.4-10.7,0L334,722.34s-6,7.46-9.49,1.07l-1.22-1.07-2.36,1.07-1.21,1.09c-1.31,0-3.65,6.31-6-1.09-3.68-5.3-2.38-1.07-2.38-1.07l-2.51,2.16s-4.68,8.47-7.13,1l-2.44-3.17-2.34,1.07-2.44,3.08-1.21,2.16s-4.61-.92-4.61-3.14l-1.41-2.1-2.35,1.09s0,8.47-8.36,1l-3.55-2.1-2.36,1.09s-1.21,10.64-9.64-2.16l-2.45-1-1.13,3.17s-1.21,8.47-8.44,1c6.09,8.47-3.58-6.34-1.13-7.4Zm-13.15,2.07h3.5L243,724.5v4.15l-3.51,1.15-4.78-3.31v-6.31Zm-12.08,0h2.34l1.4,1.15,1,2.08,1.31,3.08v2.16h-2.35c-1.4,0-4.88,1.15-4.88,0a81.58,81.58,0,0,1,1.14-8.47Zm-13.15,1.15h2.44l2.44,2.08v5.24H213.1s-4.78-2.16-3.67-6.31,0-1,0-1Zm-13.12,0h3.55v7.32s-4.78-2.16-3.55-4.15c1.31-3.17,0-3.17,0-3.17Zm-14.46,3.17h3.75l1,4.15h-3.38l-1.41-3.14v-1ZM386.67,717h6v5.3l-4.88,3.17-1.13-1-1.21-2.16,1.21-5.3Zm10.8,0h7.22v2.13l1,3.17v2.16h-6l-2.27-3.17V717Zm19.14,0a6.47,6.47,0,0,1,3.58,1.07,1.06,1.06,0,0,1,1.13,1.06v3.17L419,723.41H415.4l1.21-6.37Zm16.7,0H437v4.29l-2.45,1h-1.22l-1.14-2.16,1.14-3.14Zm10.8-173.16s1.3-3.16,1.3,2.08c-1.3,4.32,5.92,6.48,5.92,6.48,9.57,2,6,10.64,6,10.64-1.31,6.3,7.12,5.21,7.12,5.21l1.24-1s1.21-4.23-1.24-5.33a2.2,2.2,0,0,1-2.41-2.16c-2.37,2.16-3.5-13.86-3.5-13.86a7.48,7.48,0,0,0-2.52-5.24l-3.57-1.14c-6-6.24-8.34,4.3-8.34,4.3ZM455,535.41c-13.23,6.4,8.25,7.4,7.05,11.7,0,0,7.13,12.71,9.56,10.57,0,0,1.29,2.14,6,1.16,0,0,2.52-4.41-1.13-4.41s-1.21-.92-1.21-.92-7.15-3.23-7.15-5.39c0-1,1.06-19.1-13.12-12.71Zm-100.58,34h7.12l2.45,4.3-1.31,4.24h-2.34l-5.92-8.54Zm10.6,0,7.3,8.54h4.78l-1.21-4.24-3.57-5.39-7.3,1.09Zm13.22-1.09,6,9.63h4.86v-4.24l-4.86-4.3-6-1.09Zm12,0,8.44,9.63,4.71,1.09v-5.33l-5.92-5.39Zm16.8,1.09,7.13,9.63h3.64v-2.25l-7.2-6.3L407,569.38Zm13.15,0L419,570.46l7.22,8.55h1.21v-6.48L425,569.38Zm12,0-1.28,1.08L437,580h3.48v-5.25l-5.93-5.39Zm10.7,1.08h4.89l3.57,3.22,1.12,6.34-3.55-1-6-8.55ZM455,571.54h3.55l4.7,3.23,1.21,4.24v2.08L460.9,579,455,571.54Zm15.48,3.23,2.42,2V580l-2.42-1v-4.24Zm7.13,0h2.52l1.06,2v4.33h-2.27l-1.31-6.32Zm-7.13-9.62,2.42-1.09,1.13,4.23-2.42-2.14-1.13-1ZM477.6,562h2.52l1.06,3.17v1L477.6,562Zm-74.21,22.27h1.3s4.69,3.23,2.35,5.31c0,0-3.65,0-3.65-1.07v-4.24ZM247.81,59.58c-9.65-3.23-20.45-4.39-26.37,3.17-6,6.39-6,13.7-1.13,19.1,3.57,7.4,2.27,12.71,0,18-10.88,1.09,1.13,18.12-21.58,16a44.4,44.4,0,0,0-20.45-5.32c-8.26-14.79-25.14-19.18-37.05-4.24-16.89-1-26.29,6.39-27.5,25.5-11.91,3.23-22.79,8.47-29.94,17-3.65,5.3-3.65,10.54-3.65,18.1-6,3.14-10.7,9.47-14.36,18-4.78,8.4-3.64,16.94,6,22.33,3.58,9.48,8.36,12.65,15.59,12.65,3.57,12.77,9.57,20.17,18,25.56l4.79,6.39c5.92,7.32,16.79,2.08,22.71-10.62l2.45,11.63c-6,6.31-11,12.77-13.25,24.41,1.23,9.63-6,19.17-3.65,29.8,2.44,14.95-7.13,10.57,8.53,39.36,1.14,12.62,7,17.95,14.28,20.11,0,10.54,3.65,15.94,10.78,15.94-2.35,12.71,8.36,18,12,20.11a139.73,139.73,0,0,0,11.91,71.23c-2.35,0-3.55,4.24-3.55,8.47l-5.92,49.91c-19.24-4.23-28.81,4.24-30,17-13.15,7.47-13.15,16.94-7.15,26.48-6,3.32-9.48,7.56-9.48,12.8-7.39-3.23-13.21,4.3-14.45,17l-1.21,27.66c-6,5.25-8.36,15.88,0,21.25,0,7.4,1.21,13.8,2.45,20.11,3.55,10.56,9.47,20.19,15.46,28.73,7.23-1.07,13.25,1.07,19.16,3.16,6,3.14,11.91,3.14,19.14,2.16-3.57,13.78,1.21,22.25,8.34,23.25H440.46c12-6.3,21.58-14.77,19.21-29.64,10.8-2.1,33.49-6.4,33.49-18.1,13.25-9.56,15.59-24.34,18-40.37,6-2.07,7.13-3.17,8.34-9.54,0-7.4-2.34-10.57-8.34-10.57-3.57-13.86-2.44-23.4-13.15-34-1.3-8.47-6.08-13.87-13.31-20.18,6-13.79-3.55-20.17-10.71-25.5-3.55-25.5-32.26,0-34.7-27.64-1.13-8.47-4.79-15.95-8.43-23.34L432.17,478l6-34c-1.21-14.87,0-27.57,3.57-38.28,1.11-8.47,3.65-14.86,7.14-16.94,8.43-6.39,12-15,10.77-25.59,10.8-2.07,14.35-9.53,13.22-21.17,7.23-5.31,7.23-12.77,4.71-21.24,8.54-5.33,8.54-14.87,3.58-26.57V283.65c0-10.57-2.27-19.11-8.29-27.67L462,235.9c-1.14-4.24,8.43,2.07,10.85,6.31,9.5,18.1,19.07,10.63,25.15-1,4.62-6.4,10.71-12.8,13.15-20.27,7.13-13.71,26.37-14.78,28.71-30.8,1.31-11.64-7.22-19.11-18-25.5,3.65-25.41-9.57-34.95-35.76-33.95-5-17-13.25-26.51-25.24-30.83C441.76,93.55,425,103.12,416.61,118c-7.23-2.16-15.57,1-25.16,5.31,0-8.47-4.78-17-13.22-23.43,0-11.61,0-17-7.13-26.57,0-20.17-9.57-25.48-28.71-20.17C332.9,50,320.89,49,310,53.12,304.12,50,299.23,50,293.24,54.28,288.63,49,282.53,49,275.38,53.12c-4.78-1-9.74-2.07-12.08,3.23-7.13-3.23-15.49-2.07-15.49,3.23Zm45.43,313.25-8.37-6.31,8.37-6.33c-2.27-7.47,4.86-9.63,15.56-12.78,2.51,7.38,19.14,6.32,15.67,14.87-1.22,4.24,0,6.31,3.47,7.38,13.22,6.4,3.75,16-5.92,15,5.92,3.14,8.27,6.31,5.92,12.7l-9.57,1.07c10.8-7.46-3.65-7.46-6-10.63,1.32-6.46-1.06-10.7-7.15-14.93-3.55,10.63-10.77,8.47-13.12,23.41-4.88-1.07-7.23-3.24-8.36-8.48,1.13-5.3,4.89-9.54,13.15-10.7,1.21-5.23,3.55-7.4,9.57-9.47,9.57,3.23,14.43,8.47,16.79,14.87,3.56-6.4,1.22-12.8-9.56-15.94,2.34-4.24,1-9.63-6-12.79-7.23,3.16-14.43,10.63-14.43,19.1ZM273,348.42c-4.88,1.07-9.66,4.3-14.45,16.94,0,5.46,2.45,10.7,8.43,11.7-9.56,8.63-3.64,14.94,9.57,14.94-9.57-4.24-11.91-7.38,2.37-15.94,2.35-4.23,3.65-8.47-1.23-9.54-7-1.16-13,7.38-14.35,3.14-1.14-7.38,16.86-10.63,13.21-15.93L273,348.42Zm63.42,3.23,2.43-3.23c3.58,1.07,7.23,2.14,8.27,6.37v6.4l3.57,3.17c5,5.3,2.52,16.94-9.49,15.94-2.35,0-7.2-6.4-3.48-7.47l2.27-1,4.88,4.23c3.56-3.23,3.56-7.47-3.67-12.8,2.37-6.37,0-10.54-4.78-11.61ZM407,353.73a19.85,19.85,0,0,0-4.79,17.09c1.14,6.24,5.92,8.41,9.57,10.48,0,8.62,4.79,11.7,13.15,10.7,1.2,9.56,4.86,12.7,10.88,11.72-10.88-11.72,0-12.79,2.34-22.42-4.88,2.16-7.3,3.32-10.81,1.16-3.55,5.3-12,4.23-9.57-1.16s4.79-8.47,2.38-10.48c-4.79,3.08-9.58,5.24-13.15,0,0-5.46,1.13-9.63,3.57-11.79l-3.57-5.3Zm-8.36-32.88c3.57,0,7.05-2.17,9.49-5.33,0,5.33-3.48,8.47-7.13,15-3.57,10.55,7.13,19,11.92,19,0,6.46,3.65,10.7,10.87,13.77,1.14,9.57,9.48,16,20.28,16-1.24-12.71,4.79-13.87,7.22-20.2,2.25-5.3-2.43-8.47-5.92-8.47,2.35,11.72-8.43,11.72-8.43,20.26-3.67,2-10.81-1.16-6.09-9.63,5-9.54,12-12.77,3.64-16.93-3.64-2.17-7.15,6.3-9.56,13.79-7.16-1.16-10.8-11.64,0-15,3.55-4.15,3.55-10.63-1.14-13.77-3.64-2.17-7.22,6.31-10.87,13.77-2.35,2.17-7.23-3.14-4.79-7.46l4.79-8.48c4.85-7.4,4.85-13.79-3.58-22.26-3.65,4.23-6,2.16-6-4.15-3.65,0-4.71,7.31-4.71,20.11Zm17.93-43.6c6,0,2.34,1.07-2.44,11.7-2.35,6.4,3.64,10.54,6,10.54,3.64-6.3,1.13-12.61,7.19-12.61,7.15,2.07,2.45,18-2.41,21.17-3.65,2.16-1.14,7.47,3.55,11.7,8.46-5.3,4.79-12.7,8.46-21.17,2.34-5.39,10.78.91,5.89,13.8,0,2.07-4.68,3.14-8.34,9.62,0,5.15,1.32,9.48,4.79,10.46,4.79-4.15,7.13-11.61,9.58-19.1,1.2-2.14,6.09-2.14,6.09,4.26-1.41,8.53-3.66,13.86-7.23,18-1.31,3.31,0,6.46,2.34,7.46A10.37,10.37,0,0,0,455,341c5.91-7.47,1-14.87,7.05-15.87,3.65-2.16,6.07,2,4.86,7.31s-3.66,9.63-9.57,11.8c5.91,6.3,8.36,8.46,4.71,10.53-9.59-5.3-17.93-5.3-19.17-14.84-5.89-1-10.7-5.24-14.35-16-8.33-4.24-11.91-10.63-11.91-20.09-4.79-2.25-9.57-6.39-10.88-11.72,0-10.7,6.09-15.94,10.88-14.93ZM414.17,222c-2.35-4.16,0-10.62,6-7.4l3.64-2.15c3.55-1.07,8.34,0,7.06,4.23-5.92,9.62-1.06,6.39-13.08,10.63-6,3.23-3.64,11.7,3.51,7.47l7.2-2.16c4.79-1,7.33,6.39,3.65,8.56-4.79,0-10.85,1-10.85,4.23-2.37,13.71,4.85,1,14.53,0,0-7.47,2.34-9.54,8.26-9.54,0-5.33,2.34-8.56,7.22-10.63,4.69-1.1,7.21,1.06,7.21,4.23s-1.21,3.15-7.21,9.54c-2.43,4.32-1.23,7.4,3.66,11.7,2.34-6.37,8.25-7.38,9.46-3.23,1.24,9.63-1.21,16,3.66,17l-1.21,4.24c-7.23-1-11.91-5.24-11.91-14.87-3.66,1.07-7.23-3.17-10.88-8.47-1.24,5.3-4.79,10.54-15.59,16.94-2.35,3.23-3.55,6.4,0,10.7a50.08,50.08,0,0,1,14.35-14.94c4.89-2.16,10.71,2.17,6,8.56l-10.71,10.55c-1.21,4.23,3.57,9.63,5.92,7.55-1.24-5.33,1.3-9.63,8.34-13.86,3.57-2.16,9.59-1.09,9.59,4.23s-6,5.24-11.94,13.78c-1.2,6.4,1.23,8.56,5.92,7.47-1-6.38,8.43-9.54,9.67-16.95,3.48-2.22,5.91-1.15,5.91,3.08,1.29,6.4-4.7,9.63-10.7,15,1.14,3.23,1.14,6.39,1.14,9.54,7.13-6.31,12-13.86,15.56-9.54,3.58,2,0,6.39-9.49,13.71a9.4,9.4,0,0,0,7.15,7.46c0,3.32-3.66,5.31-7.15,4.31A10.4,10.4,0,0,1,462,311.22c-8.46-4.17-14.28-10.48-17.93-20.11-7.13,0-13.22-5.3-14.28-14.87-7.23-2.16-10.88-7.46-9.64-18.1-6-4.23-8.37-9.47-8.37-16.93-9.57-7.47-8.43-13.87,2.35-19.18Zm38.28-74.34c-10.69,0-19.14,6.4-19.14,19.2l-4.79,1c-4.69,1.07-5.92-3.25-5.92-8.56s3.57-12.79,9.57-17.94l-7.2,1c-3.65,1.07-1.14-14.87-6-13.86,2.37,11.7,2.37,19.16-4.78,21.24-9.48-1-15.49,3.25-19.05,10.72-3.67-2.16-7.32-5.39-6-12.8,4.61,2.08,6-2.07,9.57-3.23,3.57-4.23,8.36-3.07,13.14-4.23,3.58-2.16,3.58-4.24,0-6.31-4.78,3.14-12.08,0-14.35,8.47-8.36,4.15-13.22,0-10.8-5.33,6-13.77,20.37-15.93,37.16-12.7C425,109.43,437,102,451.33,103.12c8.34,1.06,10.71,6.31,13.12,12.7,7.15,1.07,10.81,4.3,13.15,8.54,0,7.4-3.58,10.63-10.7,11.63-6-2.07-9.57,0-11.91,6.4,0,4.15,4.68,8.54,14.18,0,4.85-3.16,6.09-11.7,12-9.56,25.23,9.56,42,3.16,37.14,32.9,3.58,9.63,14.36,10.63,18,21.24,0,5.33-2.52,6.33-6,7.49-3.57,0-8.43-4.32-13.14-10.63L514.75,187c6,4.32,12,8.47,12,14.87-3.55,4.32-8.44-4.15-13.15-7.38a18.54,18.54,0,0,1,5.92,12.77c-2.34,0-4.78-1.07-7.2-5.39a33.31,33.31,0,0,0,1.28,10.64c-6,2.15-12-5.25-9.64-13.79,0-6.39-7.23-11.72-15.49-11.72-7.3,2.17-10.88,8.47-10.88,18.1-4.71,1.09-8.43,3.16-9.49,7.41-1.21,10.62,8.36,8.46,19.06,10.62,6,2.17-2.44,9.55,6,18.11-7,4.23-16.69-3.24-14.25-10.64-10.8,1.09-2.44-2.16-13.22-5.3-7.15-2.17-6-12.79-2.45-19.11L462,196.6c9.56,0,14.43-3.3,18.08-9.63-4.86,2.17-14.43,4.32-15.67-1-1.21-9.63-1.21-12.79,0-18.1,4.72-8.56,15.67-6.39,26.3-2.16-6-3.16-8.36-7.4-10.63-9.56-10.95,6.4-15.67,2.16-20.45-6.4,0,6.4-1.13,7.49-3.65,10.72l-8.26,4.15c-7.3,5.39-3.65,11.72,0,12.79,1.14-6.4,4.69-10.54,9.57-8.47,8.36,26.48-24,25.5-21.48,30.8,2.34,2.08,9.56,1.07,20.17-3.16,1.31,6.33,3.65,15.88-4.69,20.11-4.88,3.17-8.46,1.16-13.14,7.46,3.57,7.49,3.57,11.73-2.34,9.57-5-6.4-6-10.64-2.54-15.87,3.67-3.24,7.15-6.46,10.8-7.47,7.22-2.17,2.34-7.47-5.92-5.33l-2.34,1.09c-8.47,5.25-10.88-10.72-9.68-18.1,6-13.86,14.29,5.24,22.73-7.4-14.37-1.07-14.37-7.46-11.92-14.93,3.48-9.56,18-10.63,15.47-18Zm44.29,18c-3.58-5.24,4.89-16,10.88-16.94,9.57,0,9.57,10.54,3.57,25.41-3.57-1-6-3.17-6-7.31l6-2.25c2.42-7.38-1.23-8.47-7.22-7.38l-7.23,8.47ZM494.4,171c8.26,0,16.79,5.33,17.93,12.8,0,4.23-7.15,6.31-7.15,2.16-2.52-13.87-12-9.63-10.78-15Zm-7.23,27.66c0,5.31-2.44,9.54-8.26,11.71,1.21,4.23,5.82,3.14,8.26-1.09,4.79,4.23,9.57,5.32,14.46,1.09,2.34,1,3.55,3.14,2.34,7.47-5.93,3.07-5.93,4.16-3.58,6.3,1.24-3.23,3.58-4.29,6-5.3,2.34,0,3.55,1,3.55,3.16-3.55,2.14-7.3,3.24-8.33,7.47-2.38,3.15-7.23-1.09-13.15-10.63-14.46,4.23-19.31-8.47-8.36-11.64-1.21-4.3,0-7.47,3.48-9.54,0-3.23,1.13-6.4,4.88-7.55,2.27,2.16,3.48,4.32-1.31,8.55ZM195.08,350.56a19.49,19.49,0,0,1,4.78,17c-1.13,6.31-4.78,8.47-9.47,9.47,0,9.63-4.79,11.79-12.11,10.7-2.34,9.56-5.89,12.71-11.81,11.64,10.7-11.64,0-12.71-2.44-21.18,4.68,1,7.12,3.08,10.7,1,3.55,5.39,11.91,4.23,9.57-1-2.45-5.39-4.72-8.56-2.45-10.63,4.79,3.23,9.68,5.24,13.23,0,0-5.31-1.21-8.56-3.55-11.64l3.55-5.39Zm8.36-30.81c-3.58-1.07-7.13-2.13-9.57-6.39,0,6.39,3.75,8.64,7.3,14.95,4.71,9.48-7.3,19.1-12.09,18.1,0,6.31-3.48,10.48-10.8,13.78-1.11,8.4-9.57,15.87-20.28,15.87,1.14-12.8-4.86-13.78-7.13-19.17-2.34-6.33,2.27-8.47,5.93-8.47-1.21,10.61,8.36,10.61,8.36,19.17,3.55,2.07,10.78-1.07,6-9.54s-12-11.64-3.55-16c3.55-2.14,7.13,6.33,9.57,12.7,7.13-1.06,10.77-10.53,0-13.77-3.58-4.24-3.58-10.55,2.41-13.87,2.27-2,6,6.4,9.5,13.87,2.45,2.07,7.23-3.23,4.79-7.47l-4.79-7.4c-4.78-7.47-3.48-14.93,3.65-22.25,3.58,4.15,6,2.08,6-4.41,3.5,0,6,7.56,4.71,20.26ZM185.6,276.24c4.79,0,10.71,4.17,10.71,14.87,0,6.4-5.92,9.63-10.71,11.63,0,8.48-3.75,14.88-12,20.25-3.57,9.47-8.43,13.79-14.45,14.8-1.14,8.62-9.48,8.62-19,13.86-2.44-1.09-1.23-3.23,4.78-9.56a16.82,16.82,0,0,1-9.56-11.62c-1.32-5.32,1.13-8.47,4.78-7.48,5.92,2.16,1.13,8.49,7.13,15.95a10.46,10.46,0,0,0,5.91,2.08c1.21-1.07,2.45-4.24,1.21-7.47-3.48-4.23-5.82-9.56-7.12-16.94,0-6.4,5.91-6.4,7.12-4.23,1.24,6.3,3.65,13.77,8.44,18.09,4.81-1.15,4.81-5.32,4.81-10.72-3.57-5.3-8.46-6.39-8.46-8.53-4.79-12.64,3.65-18,6-13.71,3.55,8.47,0,15.85,8.43,21.17,4.69-4.23,7.13-9.56,3.58-11.63-4.78-3.15-9.57-19.1-1.23-20.17,4.78-1.07,2.34,6.31,5.91,11.7,2.45,0,8.54-4.3,6.09-10.63-4.68-9.63-8.36-10.7-2.34-11.71Zm2.34-53.14c10.79,5.31,11.92,11.71,2.45,19.11,0,7.46-2.45,12.77-8.54,15.93,1.41,10.64-2.27,15.94-9.46,18.1-1.24,8.56-7.23,13.8-14.39,14.87a37.29,37.29,0,0,1-17.9,19.1c1.13,4.24-1.23,8.47-6.1,10.64-3.57,2.14-7-1.1-7-3.23,3.48-1,5.92-3.17,7-7.41-9.66-7.47-13.14-11.63-9.66-13.79,3.75-3.23,8.53,3.07,15.76,8.47a24.36,24.36,0,0,1,1.13-8.47c-5.91-5.31-11.93-8.47-10.8-13.87,0-5.3,2.44-6.31,6-4.23,1.21,7.49,10.78,10.63,9.57,17,4.85,1.07,7.12-1.07,6-7.4-6-7.54-11.91-7.54-11.91-12.78s5.92-6.39,9.56-4.23c7.14,3.14,9.48,8.53,8.34,13.86,2.37,1,7.16-3.32,6-7.55L153.14,266.7c-4.61-5.32,2.45-10.72,6-8.56a48.83,48.83,0,0,1,14.45,14.94c3.58-4.3,2.35-7.47,0-10.7-10.8-6.4-14.45-11.64-15.59-15.94-3.65,5.39-6,8.54-10.77,7.47,0,9.63-4.79,13.86-11.91,14.87L134,265.61c4.87-2.07,2.45-7.47,3.66-16.94,1.21-5.31,7.22-3.23,9.57,2.07,4.78-3.23,5.91-7.38,3.64-10.69-6-6.31-7.29-6.31-7.29-9.48s2.44-4.24,7.29-4.24c4.72,2.08,7.13,5.33,7.13,10.55,6,0,9.6,2.16,8.47,9.56,9.47,1.07,16.79,12.71,14.25,0,0-4.23-6-4.23-10.7-4.23-3.55-2.16,0-9.56,4.71-8.47l6,2.16c7.22,3.14,9.67-4.24,3.58-6.4-10.71-5.33-7.13-2.16-11.91-11.63-2.37-3.24,2.34-4.33,5.89-4.33l3.57,3.17c6.09-3.17,8.54,2.16,6.09,6.39Zm-38.28-71.17c-2.43,7.4,11.92,7.4,15.5,17,3.55,7.4,2.44,12.71-12,14.87,8.44,12.77,16.88-6.4,22.8,6.31,1.23,7.55-1.21,22.34-9.47,18.09l-2.44-1c-8.44-2.16-13.16,2.08-6,5.25a22.13,22.13,0,0,1,10.71,7.4c3.68,4.29,2.44,8.53-2.24,14.93-6.1,2.07-6.1-2.16-2.44-9.54-4.89-5.39-8.44-3.24-13.16-6.4-8.43-5.33-6-13.8-4.85-20.18,10.78,4.24,18,5.31,20.45,3.15,2.24-5.24-30-4.15-21.59-29.72,4.78-2.09,8.26,2.08,9.47,8.54,3.65-2.16,7.23-7.46,0-12.77L146,163.63c-2.44-2.13-3.58-4.3-2.44-9.54-5.92,8.48-10.71,11.64-21.51,5.24A27.78,27.78,0,0,1,111.29,169c10.78-4.32,21.58-5.33,26.37,2.07,1.21,5.33,1.21,8.56,0,17-1.21,5.24-10.71,4.24-15.59,1.08,3.57,6.3,8.36,10.62,19.16,9.55l-2.36,9.54c3.57,6.4,4.71,15.94-2.42,18.1-10.81,4.24-2.45,7.41-13.15,5.33,2.34,7.38-7.22,14.78-14.45,10.55,8.43-8.47,0-15.88,6.09-16.94,10.7-3.24,20.38-1.1,19.06-10.64-1.13-4.23-4.7-6.4-8.36-7.4-1.3-8.54-4.78-14.93-11.91-18.09-8.36,1-15.59,6.3-15.59,11.69,2.37,8.48-3.55,15.88-9.56,13.8A37.38,37.38,0,0,0,89.71,204c-1.13,4.23-4.69,4.23-7.13,4.23,0-3.16,2.44-8.47,6-11.63-4.79,4.23-9.57,11.63-13.22,7.4,0-5.31,6-10.7,12-13.86L85,186c-4.88,7.31-9.66,10.61-13.24,10.61s-6-2.14-6-6.46c3.66-10.55,14.36-11.64,18-21.18-4.78-28.73,12-22.42,37.07-31.9,6.09-2.07,7.23,6.4,12,9.48,9.57,8.56,14.36,4.39,14.36,0-2.35-6.31-6-8.47-11.91-6.31-7.23-1-11-4.24-9.68-11.7,1.31-3.17,4.79-6.4,13.23-7.4,1.23-7.4,3.57-11.7,12-12.71,14.29-1.07,26.3,6.4,27.41,21.27,16.8-3.24,31.15-1.16,37.17,11.7,2.44,5.15-2.35,8.38-10.7,5.15-2.52-8.47-9.67-5.15-14.36-8.47-3.75,2.16-3.75,4.32,0,6.39,4.69,1.16,9.47-1,13.05,4.33,3.57,1,4.88,5.3,9.66,3.14,1.21,7.4-2.44,9.57-6.09,11.7-3.57-7.46-9.39-10.61-19.07-9.54-7.22-2.16-7.22-9.63-4.68-20.17-5-2.16-1.41,12.62-6.09,12.62l-7.15-.92c5.92,5.31,9.56,11.64,9.56,16.95,0,6.39-1.3,9.55-6,8.46l-4.88-1c0-12.77-7.13-18.1-19.05-18.1Zm-44.29,17-7.23-8.47c-5.92,0-9.56,0-5.92,7.4L96.94,170c1.2,4.17-2.35,6.33-6,7.4C86.23,162.57,85,153,94.59,153c5.92,0,14.26,11.62,10.78,15.94Zm2.35,5.24c1.13,5.39-8.34,1.16-10.78,14.94,0,4.16-7.23,2.15-7.23-2.17,1.23-8.47,9.67-12.77,18-12.77Zm7.22,26.63c-4.78-4.23-3.65-6.37-1.21-7.53,3.55,0,4.69,3.3,4.69,7.53,3.65,1,4.88,4.24,3.65,7.4,10.8,4.25,6,15.94-8.34,11.65-6,10.69-10.87,13.86-13.22,11.78-1.13-4.32-4.71-6.39-8.29-7.49,0-2.14,1.06-4.29,3.58-4.29a12,12,0,0,1,6,6.45c2.34-2.16,2.34-3.23-3.68-6.45-1.2-4.18,1.24-6.34,3.68-8.47,3.55,5.3,8.34,3.22,13.12,0,2.34,4.29,7.13,4.29,8.36,1.07-4.88-2.08-8.36-6.32-8.36-11.65Zm283.74-43.57c9.49,3.23,19.13-1.09,21.51-8.47l1.13,4.23c-1.13,5.31-2.37,12.71-5.92,17-12-1.07-14.36,2.09-14.36,8.47-4.78,2.16-7.32-2.14-7.32-10.61,3.75-3.25,3.75-6.39,5-10.63Zm-195.24,3.23c2.44,5.24,1.31,8.47,4.88,10.54,0,9.63-2.44,12.8-6.09,10.64-1.06-6.31-3.5-8.47-15.59-8.47-3.38-4.24-4.79-10.63-5.92-15.94l1.13-5.33c2.45,8.56,12,11.7,21.59,8.56Zm192.82,23.34c8.43-4.24,9.47-14.87,20.35-10.63,4.71,2.16,11.91,2.16,10.77,7.46-6.06,8.48-13.21,11.64-25.13,10.63-1.21,2-1.21,4.15,2.44,6.4,4.69,0,8.27-3.23,13.12-2.25,3.51,3.25,2.38,5.39,2.38,9.63-3.58,10.63-14.46,2.16-13.15,13.8-7.3-4.24-7.3-11.64-1.31-17-8.26-1-16.62-14.87-9.47-18ZM207,188.06c6.09,3.23-2.26,15.94-10.7,17,5.92,5.33,5.92,12.8-1.23,18,1.23-12.7-9.48-3.22-11.82-14.87-1.41-4.23-2.54-6.39,1-8.47,4.78-1.07,8.43,2.08,13.32,1.07,3.55-1.07,4.61-3.14,2.24-6.37-10.78,1-19.14-2.16-25.13-9.56-1.14-5.31,6-6.4,10.87-7.47,10.71-5.31,12,6.4,21.41,10.63Zm38.35-89.18c1.24,9.54-1.2,15.94-5.92,22.25-2.51,13.86,19.07,19.1,13.15,26.56-12,12.8,2.44,13.81-3.65,30.81,2.44,4.24,6.09,6.4,13.22,7.49,2.44,5.3,5.92,9.45,9.5,11.7,4.85-12.79-2.27-17-14.28-19.19,0-6.38-1.21-12.77-2.35-19.17,13,23.41,33.6,9.63,49.09-5.24,13.22,14.87,31.15,19.11,44.27,7.41,1.05,7.46,0,13.86-9.58,20.17v13.77c3.58-14.78,13.15-11.61,15.6-18,4.68-9.54-1.24-14.86,4.68-23.34,1.24-4.32-1.13-7.55-5.92-8.47C352,138.07,355.62,135,364,129.69c2.34-4.33,0-11.71-6-17,1.13-14.86-6-22.24-16.8-24.4-7.2-6.4-16.69-8.47-27.47-9.56-9.57-2.24-21.59-1.07-34.81,2.09-11.94,3.23-22.71,9.63-33.52,18.1Zm8.46,9.54c8.34-12.71,16.78-15.94,26.34-14.87,11.94,3.17,25.06,15.88,9.5,30.81,0,14.87,27.68,15.87,26.37-1.07a13,13,0,0,1-3.66-14.87c3.66-14.87,26.44-21.26,37.07-4.24-5.91-2.16-11.76-5.3-19.15-4.32-3.48,1.09-11.92,4.32-11.92,10.64a11.73,11.73,0,0,0,7.23,10.63c21.48,10.63,23.84-26.57,0-8.48,0-9.53,16.79-10.63,20.44-6.39,5.92,7.47-1.21,17-10.77,18.1C346,130.69,352,136,349.44,149.77,347.08,167.89,314.72,161.5,310,153c22.89,7.47,37.07,6.31,37.07-9.56-4.69,7.47-14.18,11.64-33.39,7.47,14.25,1,26.26-4.39,25.12-14.94-4.85,5.4-12,8.47-20.44,8.47,6.1-2.07,10.8-5.23,10.8-9.47,0-6.46-2.36-9.63-4.7-10.63,5.82,25.41-48,28.66-43.24,0-13.15,5.33-3.58,20.1,9.74,21.26-7.23,3.17-14.46.92-22.89-8.56-1.14,11.73,10.8,18,24,13.87-8.36,6.33-20.44,4.17-29.94-7.47-3.65,11.64,19.07,21.18,33.49,9.56-7,10.61-22.69,8.48-32.35,3.15,2.34,5.33,4.78,9.56,10.87,8.47,2.34,2.25,1.21,3.25,0,5.39-6.09-2.14-10.87-5.39-14.45-11.7,0-3.23-4.69-8.56-3.55-13.87A25,25,0,0,1,263.3,135c3.64-4.3,8.36-5.3,9.66-9.63-12,1.09-17.93-3.23-21.58-9.54,15.56,8.54,27.5,9.54,29.85,1.07-2.35-6.39-9.57-13.77-17.93-7.46L255,114.82c13-17,22.62-12.8,31-1.09,0-4.3-1.21-8.48-3.55-10.61-7.15-7.41-16.89-5.33-28.71,5.3ZM233.38,84,231,90.41l2.37,9.45-1.06,11.73c0-6.34-1.31-9.57-6-9.57-6,2.16-8.43,8.48-12,19.11,6,4.23,6,10.63,13.05,10.63,3.65,4.23,9.57,8.47,13.22,3.23,3.58-4.3-2.42-7.47-7.2-8.54,12-10.63,3.55-14.86,6.06-23.33,2.37-6.4,7.16-9.57,11.94-11.8,3.65-5.23,1.21-9.47-4.78-14.87,4.78-5.23,7.22,3.33,9.57,5.4,3.55,2.16,4.79,1,3.55-2.07l-5.9-5.33c1.21-6.38,16.78,16,22.69,2V62.75c-2.34-4.3-9.57-3.17-10.87,0l1.3,10.54c-2.34-5.22-7.22-10.54-14.35-10.54-4.78-1.16-7.23,3.16-7.23,5.32-7.2-1.15-12,1.07-16.69,3.15-9.57,5.23-1.31,17,4.71,12.79Zm121-24.43c-9.58-1.13-14.46,0-20.45,9.56-2.27,2.08-2.27,5.31-1.06,8.48H340c1.21,6.39,8.44,11.63,20.38,15.93a18.86,18.86,0,0,0,0,11.7c1.2,7.4,3.65,13.71,8.33,18-2.34,6.4-2.34,11.7-1.14,18.1a7.31,7.31,0,0,0-4.85,7.4c7.22,16.94-1.14,7.38-2.34,10.54-1.24,8.56,0,14.87,3.65,16v7.38c1,3.25,4.68,6.4,8.33,6.4,4.78-5.31-1.21-8.48,0-14.94,8.36,2.16,10.81-4.17,8.36-13.71,4.79-14.87,0-22.42-6-28.73,7.2-6.4,7.2-11.64-1.06-20.17l-6.1-8.47c2.37-4.24,2.37-30.9-9.56-27.67v9.63c-6,0-8.52-3.23-9.57-9.63,4.78,0,8.36-1,10.7-3.23,3.58-5.3,3.58-10.63-4.68-12.64ZM302.88,169c7.13,1.07,11.84,3.16,11.84,6.4,1.31,4.23-4.71,8.47-9.5,7.38,4.79,3.25,10.81,0,13.15-5.31l3.65,2.16c-9.65,15.85-33.39,12.71-32.36-1.09,0-7.47,7.23-9.54,13.22-9.54Zm-22.72,5.24c5.92,17.09,19.07,23.49,33.53,18.1,8.33-3.16,14.25-10.63,18-18.1,3.58,7.47,4.69,13.86,1.21,22.4-18.18,25.43-76.73,10.63-54-22.4Zm-56.28-37.14c1,1,0,3.17,1,4.33,1.4,4.23,6.09,6.3,8.46,1,4.78,0,9.57,3.23,8.43,9.54-2.37,7.4-7.15,10.64-16.89,11.7l-7-2.13c0-5.33,4.69-5.33,4.69-6.4,2.34-4.17-11.92-13.71-3.48-21.18a2.91,2.91,0,0,1,4.78,3.14Zm1,33a21.38,21.38,0,0,0,12-7.46c2.51,0,2.51,5.32,2.51,11.63,1.14-2.08,3.51-4.17,4.72-7.31a17.52,17.52,0,0,1,1.2,15.85c-1.2,5.32-5.92,8.55-10.7,11.72-2.34-5.32-3.65-9.56-9.74-11.72-3.48-4.24-4.61-8.54,0-12.71Zm78,138c8.43,7.47,21.59,6.4,20.37,17.1,8.44-1.16,12,2,13.13,9.56,1.3,6.31-3.48,10.55-11.91,11.7,7.22,2,10.8,5.24,10.8,10.48l-3.58,6.37c0-6.37-2.52-9.53-7.22-10.54-16.8-5.31-13.16-10.63-21.59-22.25,2.34,15.94-20.35,12.62-14.25,27.58-8.47-4.32-12.12-8.56-7.4-16,7.4-1.07,12-3.15,10.87-8.54-2.44-5.24,6-10.56,9.57-7.4l9.64,7.4,9.58,4.24c3.58,7.47,13.07,1.15,4.71-5.33-4.71-5.31-26.37-6.31-26.37-21.24-7.13,5.39-13.15,13.93-12,24.41-13.05,2.16-11.84-23.25,1.41-25.42-7.4-6.31,17.83-24.4,14.25-2.16Zm3.58-18c5.91,4.24,13.22,3.15,15.56,9.45,2.45,3.25,5.92,6.49,10.88,6.49,2.37,1.07,4.78,4.23,3.48,6.4C334,319.75,331.69,323,325.6,322l1.21-9.62c0-4.33-9.47-2.17-13.12-6.4-7.23-8.47-9.57-18-7.23-15.94ZM305.22,255c4.79,11.72,9.5,17,18,21.26,5.92,4.17,5.92,13.8,12,12.71,5.89,6.4-2.37,14.95-8.46,8.56,0-8.56-7.13-9.56-15.5-10.63-4.85-1.07-7.19-5.4-9.64-9.63-1.23,8.56-7.22,15.94-19.14,20.26-1.3,3.23,0,6.39,1.21,10.54-3.58,0-8.36,0-9.57-4.15-2.51-14.95,6-19.1,13.05-20.25-1.14,0-2.35-2.17-1.14-4.18,4.89-6.39,13.15-9.62,20.38-7.53l-1.24-17Zm3.58-7.47c4.89,0,9.57,1.16,13.22,0,3.58,9.63,8.27,14.87,14.36,19.19,7.15,5.24,4.78,11.62-1.11,14.78-5,0-5-2-6.1-9.54,0-4.17-5.92-4.17-10.8-6.33-3.65-2.07-6-4.23-8.36-9.63l-1.21-8.47ZM291,248.67c8.26-2.23,13.15,2.07,9.47,9.47-2.34,6.4-8.34,9.63-14.36,13.8l-2.34,2.14c-2.51,2.16-1.21,5.39-2.51,10.72-4.72-2.25-9.57-5.33-8.27-13.86a105.47,105.47,0,0,0,7.2-10.63A26.53,26.53,0,0,1,291,248.67Zm-62.3-55.37c4.71,7.53,10.77,8.54,16.69-1,4.89,22.33,7.23,0,9.67,8.53l1.14,3.17c6-1.07,8.43,1.07,9.47,5.31l-11.82,7.4v7.46c-3.57,2.16-8.46,1.1-12-6.3l-2.37-6.46c-1.28-5.25-14.52-5.25-10.77-18.11Zm31.05,23.41c7.22-2.08,11.94-1,14.45,3.17,7.06,3.22,22.72,8.53,27.5,2.15,4.79,4.3-12,10.62,4.79,11.71,8.26,1.07,7.23-6.4,1.21-10.64l6-4.23c3.65,8.47,6,2.07,11.91,4.23,7.3,2.17,3.57,11.71-3.58,17-4.68,3.31-10.71,3.31-16.8,0-13.12,5.39-20.35,0-25.06-10.55l-3.65,10.55c-10.87-10.55-25.13-11.64-16.79-23.34Zm72,5.32c1.21-4.16,7.12-5.32,9.47-10.62,10.8,3.22,1.23,8.47,5.92,17-2.25,10.63-8.27,12.8-17.91,10.63,3.73-5.3,1.12-9.54,2.52-17Zm19-15.87-1.21-4.32c1.21-7.38,5-7.38,9.65-6.4-3.47,4.32-2.34,7.49,1.24,10.72,1.2,0,2.34,1.07,2.34-1.09,0-4.24,0-8.47-3.58-12.77,4.89,0,2.44-3.16,2.44-6.31,2.45,0,3.48,1,6,3.15,6.1,5.32,6.1,20.17-1.2,23.34-6,0-8.36,4.23-8.36,9.55h-8.52c3.73-7.4,0-12.72-5.91-15.87,2.51-2.16,4.86-3.23,7.12,0Zm37.15-42.53c5.92-3.14,2.44,8.49,1.31,13.8,2.34,5.31,1.13,7.47-2.44,8.56,4.78,2.07,6,6.31,2.44,13.77l-7.23,12.72c-1.21,15.93,5.92-2.08,8.36-7.41,3.48-3.23,6-1.07,7.23,2.16,0,7.4-2.35,14.8-8.36,19.1,0,10.55,2.34,10.55,7.15,1,3.48-2.07,9.47,2.16,3.48,9.54l-4.62,8.56c-7.32,9.54,3.56,9.54,7.13,1,1.14-3.08,5.92-2.07,4.79,1.07,0,6.4-3.65,9.63-8.36,16-2.42,3.16,2.36,6.31,6,1l4.69-7.4c4.79,3.17,7.23,8.47,0,16.94l-6,9.57v13.86c-4.71,0-8.27-2.16-5.92-9.56l1.21-12.78c-2.42-6.39-9.57-7.4-8.44-20.19-13.15-9.54,0-22.33-10.7-29.71-4.86-2.17-4.86-7.4-4.86-13.86,2.41-10.58,3.55-20.12,7.2-27.58l5.92-20.2Zm-172.35-1.06,6,21.26c3.48,7.46,4.88,17,5.92,26.57,1.31,6.31,0,11.63-3.48,14.87-10.78,6.39,2.44,19.1-10.78,28.64,1.21,12.79-6.09,14.87-8.35,20.17l1.13,12.8c1.13,7.4-1.13,9.54-7.15,9.54l1.13-13.87-7.13-9.47c-6.09-8.54-4.79-12.77,0-15.94l6,6.4c3.5,5.24,8.28,2.07,6-1.16-4.89-6.4-8.44-9.54-9.67-15.94,0-3.08,4.78-4.23,6.09-1,3.58,9.54,13.14,8.47,7.15-1.07l-6.09-8.47c-4.61-7.49,1.21-11.73,3.65-9.57,6,10.55,8.43,9.57,7.22,0-4.78-5.39-7.22-11.7-7.22-20.17,1.13-3.23,3.55-4.32,7.22-1.09,2.35,5.33,8.34,22.27,7.21,6.34l-6-12.72c-4.88-7.4-2.44-11.72,2.34-13.79-3.55-1.07-4.78-3.23-2.34-7.47v-1.07c-1.21-5.33-4.88-15.87,1.14-13.79ZM399.74,341c7.3,9.54-1.06,9.54-2.27,25.5-2.35,4.3-6,6.31-9.67,4.3,4.88-8.54,4.88-39.34,11.94-29.8ZM334,245.44c4.85,4.23,7.2,10.54,14.43,11.7,9.57,4.24,14.28,9.56,7.23,14.8a35.46,35.46,0,0,0-17.94-10.56c-2.41-3.24,0-7.47-7.39-9.55-1.12-4.32,0-6.39,3.67-6.39Zm13.12,26.5,7.33,6.38c13.11,8.56,10.6,16,0,19.19,10.6,6.39,8.26,13.71-1.24,20.11l5.92,8.53c4.89,6.31,0,12.79-7.13,15.94,9.57,8.47,9.57,12.7,2.45,14.8-1.24-4.17-1.24-10.48-9.58-11.63-9.56-3.17-1.3-8.48-6-19.11,3.58,0,6,4.32,10.63,11.64,6.18-4.24,3.73-8.47-4.61-13.8,2.25-11.61-8.45-12.77-6-18l2.35-3.24c3.67,6.38,7.23,11.71,10.8,10.62,2.45-3.15-1.31-7.38-8.43-11.71-3.58-4.14-3.58-10.54-2.37-15.84,8.28,8.47,13.25,10.61,14.46,4.23-9.58-4.23-15.67-10.57-8.54-18.1ZM352,239c7.13-1.07,9.57,2.17,9.57,10.63-1.2,3.17-3.57,4.24-5.91,3.17-8.54-3.17,1.13-9.48-3.66-13.8Zm12,31.9c1-6.4-2.45-10.63-4.89-15-2.34-3.14,4.89-6.31,5.92-4.15l4.88,5.31c6,8.47,3.73,13.8-5.91,13.8Zm-3.65,6.31c-2.37-3.17,3.65-7.4,8.33-4.17,6,4.17,8.43,9.47,8.43,15.87,0,3.23-6,4.24-6,1.09-2.44-11.72-6.09-7.49-10.77-12.79Zm6,18.1c6,0,9.56,2.16,11.91,8.55a8.8,8.8,0,0,1-1.14,9.46c0,1.09-2.41,1.09-2.41-3.15-2.37-5.32-6-6.31-9.67-6.31-5.92,0-4.68-8.55,1.31-8.55ZM361.53,323c-7.12-2.14,1.14-12.78,7.13-9.63,7.22,9.63,13.22,24.43,7.22,22.27-6-.92-6-10.48-14.35-12.64ZM364,341c3.54-2.08,5.91-1.07,7.12,2.07a13.63,13.63,0,0,1,2.52,11.7l-3.73-4.23c-3.57-5.3-9.56-5.3-5.91-9.54Zm0,12.71c3.54,4.32,4.68,8.55,3.54,14.86-1.2,9.63-4.85,9.63-10.77,0,4.78,3.24,9.57,2.23,5.92-5.33-2.34-5.21-3.58-7.31,1.31-9.53ZM380.67,341c4.79,1.07,9.57,3.24,8.44,8.47-1.31,3.23-3.65,5.3-3.65,9.54-5.92-4.24-5.92-10.61-4.79-18Zm-2.44,18c-4.61,5.33-8.34,12.8-1.14,14.87,4.79,2.16,7.16-2.07,4.79-7.38-2.34,0-2.34-3.26-3.65-7.49Zm-9.57-128.46c3.65,1.09,6,3.17,6,8.47,1.2,4.32,0,5.33-2.37,4.32-4.79-2.15-3.65-3.31-3.65-9.62v-3.17Zm0,19.1c2.44-3.23,5-3.23,8.43-2.16,4.79,4.32,6,9.63,4.79,16,4.79,3.16,8.36,7.4,7.23,13.71l-2.44,7.55,4.78,11.62-2.34,7.48c4.61,3.15,7.15,7.32,4.61,12.71,0,2.07-2.27,3.14-4.61,2.07,2.34-9.56-8.44-8.47-1.31-17.94-2.34,0-7.13-9.63-3.55-15.94-8.37-5.33,0-14.95-8.37-17l4.79-3.23c-4.79-3.16-13.15-6.4-12-14.87Zm20.45,82.79-1.31,4.32c0,3.17-4.68,0-5.92-3.23,2.37-5.24,0-8.4-2.34-10.56,5.92-3.24,10.7,5.32,9.57,9.47ZM275.38,247.51c3.5,0,4.78,2.16,3.5,6.4-7.22,2.07-4.71,6.4-7.22,9.63-9.5,2.07-15.49,5.24-20.28,10.54-6-6.31-1.13-10.54,8.34-14.93,7.22-1,10.88-7.32,15.66-11.64Zm-13.22,26.57c7.23,7.4,1.14,13.87-9.57,17,1.23,7.47,7.13,5.31,15.49-4.23,1.31,6.31,1.31,11.7-3.48,15.86-7.22,5.31-10.78,9.64-8.43,11.71,3.55,2.16,7.13-3.23,11.91-9.56l1.31,3.16c3.57,5.31-7.23,6.4-4.79,18.1-9.57,5.33-12,9.48-4.88,13.8,3.58-7.49,5.92-11.64,9.67-11.64-3.75,9.48,4.78,15.95-4.79,19.1-9.57,1-9.57,6.32-10.78,11.62-7.22-2.14-8.46-6.31,2.35-14.77-7.23-4.31-13.22-10.71-8.36-15.95l7.22-8.56c-10.87-7.37-12.08-13.77-1.21-20.26-12-3.07-14.38-10.54,0-19.08l8.34-6.33Zm-6-32.87c-4.79,4.23,6,10.62-3.58,13.77-2.34,1-6,0-6-3.15-1.24-8.47,2.34-12.79,9.57-10.62Zm-12,31.87c-10.78,0-13.15-5.31-7.23-13.93l4.88-5.24c2.35-2.08,9.57,1.07,7.13,4.23-3.58,4.24-7.13,8.56-4.78,14.94Zm2.44,6.39c-4.79,5.33-7.16.94-10.8,12.71,0,3.17-5.92,2.1-5.92-2.14,0-6.39,2.44-11.72,8.28-14.87,4.79-3.23,10.78,1.07,8.44,4.3Zm-6,18c6,0,8.36,8.47,2.37,8.47-4.79,0-8.29,1.07-10.63,6.4,0,4.23-2.44,4.23-3.65,2.07s-1.31-5.33-1.31-8.47c2.52-6.49,7.3-9.56,13.22-8.47Zm6,27.64c-9.67,1-9.67,10.48-15.59,12.64-7.13,2.16,0-12.64,7.15-22.27,7.2-3.14,15.66,7.47,8.44,9.63ZM243,343.09c3.65,4.32-2.37,4.32-6,9.63L233.38,356c-1.06-4.3,0-7.53,1.28-10.69,2.27-3.17,4.78-4.24,8.29-2.17Zm0,11.7c4.86,3.26,3.65,5.4,1.21,10.57-2.35,7.47,2.44,7.47,7.22,5.46-7.22,9.48-10.8,8.41-11.94,0-1.28-6.46,0-10.63,3.51-16Zm-18-11.7c2.44,7.47,1.4,13.8-4.61,18.1,0-4.3-2.42-6.4-3.66-9.54-1.2-5.24,4.79-7.39,8.27-8.56Zm3.75,18.1c4.71,5.33,8.26,12.71,1.21,14.87-5,2.16-7.3-3.23-6-7.47,3.48,0,3.48-3.23,4.79-7.4Zm9.49-128.54v3.25c0,6.31,2.42,7.46-3.5,9.54-2.34,1-3.65-1.07-3.65-4.23,0-5.31,2.37-7.47,7.15-8.56Zm0,18.09c1.28,9.57-8.28,12.8-13.24,16l6.09,3.15c-8.43,2.09,0,10.56-9.57,16,4.88,6.37,0,16.93-3.55,16.93,8.43,9.64-3.58,7.47-1.24,18.11a4.52,4.52,0,0,1-6-2.17c-1.23-6.3,1.21-9.56,6-12.7l-2.34-7.4,4.79-11.7-3.65-7.41a15.11,15.11,0,0,1,8.43-13.86c-1.3-6.46,0-11.7,6-15.94,3.5-2.16,5.92-1,8.28,1.07Zm-21.51,84c-1.2-4.24,3.66-12.71,9.67-9.56-2.44,2-4.88,5.32-2.44,10.48,0,3.31-6,6.46-6,3.31l-1.24-4.23Zm179.61,37.12c-3.58,0-4.81,2.07-2.54,6.39,5,1,7.32,4.24,7.32,9.54,2.35,3.17,4.69,3.17,7.13,0,1.21-2.07,1.21-4.3-1.13-6.46-4.79-1-8.36-5.24-10.78-9.47ZM409.38,393s-2.34,12.79,11.94,12.79c3.65,0,4.85-1.09,2.51-4.23a3.27,3.27,0,0,0-4.88,0c1.24-4.24,0-7.4-3.55-8.56Zm-237,9.57c4.78,5.39,8.33,11.69,5.89,27.64,3.57,7.46,3.57,15.93-1.11,24.4C170,438.68,167.6,421.82,172.39,402.57Z" transform="translate(-63.03 -50.14)"/></svg>